<svg xmlns="http://www.w3.org/2000/svg" width="148" height="36"><path d="M9.962 24.545c8.243 0 12.613-2.917 12.613-10.01v-.142c0-7.208-4.37-10.24-12.904-10.24H0v20.392h9.962zm-.174-4.153H4.974V8.308h4.584c3.95 0 6.169.744 7.264 2.52.49.916.779 2.061.779 3.55v.086c0 2.92-.952 4.582-3.23 5.355-1.152.372-2.651.573-4.583.573zm19.1-14.728c2.188 0 3.252-.86 3.252-2.86C32.14.722 30.987 0 28.888 0c-2.07 0-3.252.722-3.252 2.804 0 2.166.946 2.86 3.252 2.86zm2.487 18.881V8.308h-4.974v16.237h4.974zm16.061 0l9.575-16.237h-5.53L45.224 19.68 39.142 8.308h-5.471l9.08 16.237h4.685zm23.193 0V8.244h7.809v-4.09h-20.28v4.09h7.46v16.301h5.011zm17.45.378c5.541 0 9.39-1.358 11.199-5.375h-5.454c-.816 1.103-2.274 1.669-5.336 1.669-4.054 0-5.92-1.103-6.503-3.225h17.497v-1.726c0-3.65-1.779-6.252-5.074-7.667-1.692-.707-3.616-1.047-5.95-1.047-5.015 0-8.252 1.783-9.943 4.555-.817 1.358-1.225 2.83-1.225 4.47 0 3.31 1.254 5.856 4.432 7.3 1.604.678 3.704 1.046 6.358 1.046zm6.046-10.196H81.881c.687-2.16 2.747-3.398 6.38-3.398 3.518 0 5.32.979 5.864 3.398zm18.914 10.196c4.977 0 8.16-1.358 9.867-3.678.839-1.131 1.33-2.49 1.446-4.017h-5.295c-.376 2.433-1.996 3.763-5.873 3.763-4.224 0-6.018-1.528-6.018-4.612 0-3.338 1.996-4.95 6.076-4.95 3.674 0 5.381 1.216 5.815 3.649h5.295c-.607-4.81-4.455-7.526-11.168-7.526-4.456 0-7.841 1.472-9.664 4.13-.897 1.33-1.36 2.887-1.36 4.697 0 3.537 1.331 6.14 4.514 7.497 1.62.708 3.732 1.047 6.365 1.047zm19.16-.378v-7.377c0-3.89 1.75-5.85 5.631-5.85 2.451 0 3.822.98 4.435 2.68.263.836.438 1.815.438 2.94v7.607h4.99v-9.049c0-3.314-1.314-5.763-3.765-7.089-1.225-.692-2.713-1.009-4.464-1.009-3.589 0-6.01 1.557-7.265 3.977V2.643h-4.786v21.902h4.786zM1.753 35.888c.818 0 1.478-.359 1.857-1.076.185-.36.275-.808.275-1.36v-.45c0-1.12-.42-1.823-1.08-2.182a2.302 2.302 0 00-1.086-.261H0v5.329h1.753zm-.041-.86H.894v-3.625h.784c.776 0 1.299.546 1.299 1.675v.284c0 1.128-.509 1.666-1.265 1.666zm8.59.86v-.912h-.907v-3.543h.907v-.874H7.628v.874h.907v3.543h-.907v.912h2.674zm6.48 0l1.719-5.33h-.956l-1.217 3.955-1.244-3.954h-.956l1.74 5.329h.914zm9.113 0v-.875h-2.606v-1.39h2.11v-.852h-2.11v-1.368h2.489v-.844h-3.362v5.329h3.479zm4.926 0v-1.936h.948c.654 0 .887.24.887.86v.777c0 .12.035.247.097.299h.955c-.075-.06-.11-.157-.11-.284v-.807c0-.755-.233-1.129-.729-1.3.544-.203.84-.621.84-1.331 0-.98-.537-1.607-1.87-1.607h-1.912v5.329h.894zm.983-2.78h-.983v-1.712h.997c.68 0 .969.306.969.837 0 .568-.358.874-.983.874zm7.8 2.892c.818 0 1.368-.329 1.656-.83.138-.261.207-.538.207-.837 0-.59-.207-.949-.523-1.166-.316-.217-.715-.329-1.12-.418-.427-.097-.805-.18-1.039-.367-.11-.09-.165-.231-.165-.41 0-.374.227-.688.825-.688.681 0 .95.284.984.897h.935c-.035-1.07-.605-1.72-1.905-1.72-.79 0-1.3.307-1.56.77a1.669 1.669 0 00-.186.755c0 .583.2.927.515 1.144.317.21.709.314 1.094.403.433.09.832.18 1.072.382.117.097.172.254.172.44 0 .434-.296.785-.949.785-.763 0-1.093-.358-1.114-1.098h-.962c.027.844.275 1.427.873 1.726.303.157.694.232 1.19.232zm9.401-.112v-.875H46.4v-1.39h2.111v-.852H46.4v-1.368h2.488v-.844h-3.362v5.329h3.48zm11.598 0v-4.462h1.403v-.867H58.34v.867h1.348v4.462h.914zm8.934 0v-.875h-2.606v-1.39h2.111v-.852h-2.11v-1.368h2.488v-.844h-3.362v5.329h3.48zm5.785.112c.942 0 1.513-.351 1.83-.98.157-.32.26-.694.295-1.135h-.963c-.062.762-.385 1.18-1.12 1.18-.805 0-1.224-.59-1.224-1.629v-.366c0-1.143.412-1.726 1.217-1.726.708 0 1.059.396 1.12 1.128h.942c-.13-1.345-.838-2.01-2.062-2.01-1.355 0-2.138.904-2.138 2.548v.479c0 1.629.749 2.511 2.103 2.511zm7.113-.112V33.69h2.09v2.198h.894v-5.33h-.894v2.198h-2.09V30.56h-.901v5.329h.9zm8.184 0v-3.625l-.034-.374.137.351 2.125 3.648h.832v-5.33h-.853v3.573l.028.382-.13-.352-2.098-3.602h-.86v5.329h.853zm9.34.112c1.306 0 2.125-.815 2.125-2.534v-.448c0-1.121-.372-1.876-1.004-2.265-.323-.202-.688-.291-1.114-.291-.846 0-1.499.388-1.85 1.158-.171.381-.26.837-.26 1.398v.448c0 1.742.749 2.534 2.103 2.534zm.007-.897c-.804 0-1.176-.583-1.176-1.674v-.374c0-1.099.372-1.711 1.176-1.711.79 0 1.183.59 1.183 1.719v.366c0 1.091-.392 1.674-1.183 1.674zm9.567.785v-.92h-2.365v-4.41h-.908v5.33h3.273zm5.82.112c1.306 0 2.124-.815 2.124-2.534v-.448c0-1.121-.372-1.876-1.004-2.265-.323-.202-.688-.291-1.114-.291-.846 0-1.499.388-1.85 1.158-.171.381-.26.837-.26 1.398v.448c0 1.742.749 2.534 2.103 2.534zm.006-.897c-.804 0-1.176-.583-1.176-1.674v-.374c0-1.099.372-1.711 1.176-1.711.79 0 1.183.59 1.183 1.719v.366c0 1.091-.392 1.674-1.183 1.674zm9.594-.478l.069 1.263h.68v-2.796h-2.144v.845h1.196c-.007.411-.145.8-.46 1.017-.159.112-.358.164-.62.164-.81 0-1.189-.486-1.182-1.637v-.44c0-1.152.378-1.705 1.21-1.705.509 0 .777.21.914.53.076.173.117.337.124.539h.942c-.055-1.233-.742-1.943-1.966-1.943-1.334 0-2.145.837-2.145 2.54v.517c0 1.711.653 2.481 1.85 2.481.625 0 1.037-.27 1.285-.68.097-.175.17-.37.22-.573l.027-.122zm7.47 1.263v-.912h-.908v-3.543h.908v-.874h-2.675v.874h.908v3.543h-.908v.912h2.675zm7.628 0v-.875h-2.606v-1.39h2.11v-.852h-2.11v-1.368h2.489v-.844h-3.362v5.329h3.479zm5.778.112c.818 0 1.368-.329 1.657-.83.138-.261.206-.538.206-.837 0-.59-.206-.949-.522-1.166-.316-.217-.715-.329-1.12-.418-.427-.097-.805-.18-1.04-.367-.11-.09-.164-.231-.164-.41 0-.374.227-.688.825-.688.68 0 .949.284.983.897h.935c-.034-1.07-.605-1.72-1.904-1.72-.791 0-1.3.307-1.561.77a1.669 1.669 0 00-.186.755c0 .583.2.927.516 1.144.316.21.708.314 1.093.403.433.09.832.18 1.073.382.117.097.172.254.172.44 0 .434-.296.785-.95.785-.762 0-1.092-.358-1.113-1.098h-.963c.028.844.276 1.427.874 1.726.302.157.694.232 1.19.232z"/></svg>