<svg xmlns="http://www.w3.org/2000/svg" xmlns:xlink="http://www.w3.org/1999/xlink" width="324" height="240"><defs><path id="q25aqal4ka" d="M45.813 54.079l-14.348 7.03c-.249.125-.676.255-.945.345-.788.26-2.207.828-3.574.379-1.526-.499-2.034-.499-2.034-.499-.508 0-2.329 1.067-4.067.499-1.526-.499-2.034-.499-2.034-.499-.508 0-2.328 1.067-4.067.499a10.39 10.39 0 00-2.05-.434l-.772.379a.48.48 0 01-.229.055.47.47 0 01-.396-.2L2.7 57.42c1.123-.618 1.876-1.74 1.876-3.022 0-1.955-1.744-3.535-3.895-3.535-.208 0-.412.015-.61.045-.046-.46-.071-.963-.071-1.521 0-1.995.483-3.251.91-4.363.33-.858.615-1.596.615-2.538 0-.943-.284-1.686-.615-2.544C.483 38.83 0 37.574 0 35.584c0-1.994.483-3.25.91-4.363.33-.857.615-1.595.615-2.538 0-.942-.284-1.685-.615-2.543C.483 25.033 0 23.772 0 21.782c0-1.99.483-3.246.91-4.358.33-.858.615-1.6.615-2.543 0-1.117-.396-2.349-.778-3.54C.361 10.143 0 9.016 0 7.98l.02-.135.046-.11.036-.05.06-.07.077-.06.03-.01.01-.01L15.533.057a.492.492 0 01.457 0l10.169 4.987.01.005.03.014.076.06.061.07.036.05.046.11.02.134c0 .594.3 1.571.62 2.608.422 1.381.905 2.947.905 4.294 0 1.121-.33 1.984-.68 2.892-.418 1.082-.845 2.199-.845 4.009 0 1.81.427 2.927.844 4.009.35.907.681 1.765.681 2.892 0 1.121-.33 1.985-.68 2.892-.418 1.082-.845 2.199-.845 4.01 0 1.804.427 2.926.844 4.003.35.913.681 1.77.681 2.897 0 1.122-.33 1.98-.68 2.892-.418 1.082-.845 2.2-.845 4.01 0 1.116.107 1.974.254 2.722.199.065.448.145.763.25 1.739.568 3.559-.5 4.067-.5 0 0 .509 0 2.034.5 1.367.448 2.786-.12 3.574-.38.27-.09.696-.014.94.115l7.749 4.02c.244.129.244.333-.005.458"/><path id="nns4u35c7c" d="M25 50.906v6.316c-1.485.114-3.014.218-4.494.307.674-.689 1.156-1.64 1.156-2.692 0-2.087-1.622-3.777-3.65-3.777-2.035 0-3.667 1.69-3.667 3.777 0 1.2.547 2.266 1.393 2.955-2.286.104-4.034.168-4.846.193a.814.814 0 01-.28-.035l-.078.03-.133.02a.495.495 0 01-.263-.074L.281 52.988a.494.494 0 01-.277-.44c0-.249-.243-22.6 3.221-44.55v-.006c-.495-.054-.005-.114.02-.168l.012-.02A212.3 212.3 0 014.471.408a.482.482 0 01.263-.352.464.464 0 01.443 0l9.852 4.932.047.025.1.064.035.035.06.074a.41.41 0 01.06.144l.014.045c2.638 16.621 3.147 36.023 3.3 44.208 2.08.094 4.87.783 6.355 1.323z"/><path id="gqf7ob7tte" d="M25 68v6.225c0-.15-.735-.225-1.205-.225-2.115 0-3.768 1.585-3.768 3.545 0 .155.073.305.098.455H10.25a.49.49 0 01-.42-.235c-.63-.02-1.25-.175-1.745-.46l-6.05-3.45C.965 73.235 0 71.74 0 70.46V6.5c0-.175.215-.33.355-.42.115-.275.432-.59.943-.85l1.97-1a2.331 2.331 0 01-.408-1.355 2.383 2.383 0 014.627-.795l.031-.02.661-.34c.925-.475 2.296-.545 3.36-.215A2.382 2.382 0 0113.75 0a2.377 2.377 0 012.02 3.625l3.12 1.605c.86.44.86 1.02.86 1.33 0 .13.25.315-.25.515V68H25"/><path id="396ptzyp9g" d="M25 68v6.225c0-.15-.735-.225-1.205-.225-2.115 0-3.768 1.585-3.768 3.545 0 .155.073.305.098.455H10.25a.49.49 0 01-.42-.235c-.63-.02-1.25-.175-1.745-.46l-6.05-3.45C.965 73.235 0 71.74 0 70.46V6.5c0-.175.215-.33.355-.42.115-.275.432-.59.943-.85l1.97-1a2.331 2.331 0 01-.408-1.355 2.383 2.383 0 014.627-.795l.031-.02.661-.34c.925-.475 2.296-.545 3.36-.215A2.382 2.382 0 0113.75 0a2.377 2.377 0 012.02 3.625l3.12 1.605c.86.44.86 1.02.86 1.33 0 .13.25.315-.25.515V68H25z"/><path id="253wuxp5fi" d="M25 68v6.225c0-.15-.735-.225-1.205-.225-2.115 0-3.768 1.585-3.768 3.545 0 .155.073.305.098.455H10.25a.49.49 0 01-.42-.235c-.63-.02-1.25-.175-1.745-.46l-6.05-3.45C.965 73.235 0 71.74 0 70.46V6.5c0-.175.215-.33.355-.42.115-.275.432-.59.943-.85l1.97-1a2.331 2.331 0 01-.408-1.355 2.383 2.383 0 014.627-.795l.031-.02.661-.34c.925-.475 2.296-.545 3.36-.215A2.382 2.382 0 0113.75 0a2.377 2.377 0 012.02 3.625l3.12 1.605c.86.44.86 1.02.86 1.33 0 .13.25.315-.25.515V68H25z"/><path id="p3p1gy4ayk" d="M25 68v6.225c0-.15-.735-.225-1.205-.225-2.115 0-3.768 1.585-3.768 3.545 0 .155.073.305.098.455H10.25a.49.49 0 01-.42-.235c-.63-.02-1.25-.175-1.745-.46l-6.05-3.45C.965 73.235 0 71.74 0 70.46V6.5c0-.175.215-.33.355-.42.115-.275.432-.59.943-.85l1.97-1a2.331 2.331 0 01-.408-1.355 2.383 2.383 0 014.627-.795l.031-.02.661-.34c.925-.475 2.296-.545 3.36-.215A2.382 2.382 0 0113.75 0a2.377 2.377 0 012.02 3.625l3.12 1.605c.86.44.86 1.02.86 1.33 0 .13.25.315-.25.515V68H25z"/><path id="x84nyszfpm" d="M36 33.129v6.954l-3.97 1.705c-.259.106-.568.192-.847.192H22.26c-.06 0-.132.02-.203.02l-.137-.03-.09-.04-14.39-7.178c.136-.374.207-.779.207-1.204a3.67 3.67 0 00-3.676-3.666A3.673 3.673 0 00.924 31.5l-.517-.192C.233 31.222 0 31.045 0 30.853V10.62l.142-.11.104-.117.041-.015.087-.102.018-.015L10.537.147a.512.512 0 01.59-.091L32.39 10.662l.036.015.016.01.101.071.076.091.03.05.006.01-.097.082-.106.136v20.231L36 33.128z"/><path id="y4rpn314xo" d="M0 7c-.003-.012.125-.071.385-.176l8.381-3.387L.385 6.824c-.254.102-.382.161-.385.175V7m10.321-4.977l-2.11-.768a2.464 2.464 0 00-.765-.137c-.083 0-.161.007-.23.022-.303.07-.628.217-.628.533 0-.316.325-.463.629-.533.068-.015.146-.022.23-.022.257 0 .563.064.764.137l2.11.768L13.588.166c.198-.112.326-.166.38-.166.022 0 .032.008.032.023C14 .009 13.992 0 13.976 0h-.014c-.059.004-.184.058-.374.166l-3.267 1.857"/><path id="mhxqu0p2er" d="M0 7c-.004-.011.124-.07.385-.176L8.78 3.437.385 6.824c-.253.102-.38.16-.385.175V7m17-4.462v-.003c-.006-.025-.15-.04-.434-.04h-5.19 5.19c.295 0 .44.016.434.043m-6.663-.515l-2.113-.768a2.476 2.476 0 00-.766-.137c-.084 0-.162.007-.23.022-.304.07-.63.217-.63.533 0-.316.326-.464.63-.533.068-.015.146-.022.23-.022.258 0 .565.064.766.137l2.113.768L13.61.166c.197-.112.326-.166.38-.166.021 0 .032.008.032.023 0-.014-.009-.022-.026-.023h-.011c-.058.004-.184.058-.375.166l-3.273 1.857"/><path id="cqle6s26hu" d="M0 8l13.924-6.545V0l2.762 1.238c.18.085.32.235.314.383v-.018c-.006-.142-.141-.284-.314-.365L13.924 0v1.455L0 8"/><path id="98s6imxjkx" d="M4 2v-.003c0-.083-.096-.173-.233-.238L0 0l3.767 1.759c.139.066.234.157.233.241"/><path id="2k40hhkg1A" d="M0 7l11.998-5.986V0l3.737 1.295c.158.078.267.188.265.29v-.004c-.002-.102-.11-.21-.265-.286L11.998 0v1.014L0 7"/><path id="vul0f8rncD" d="M66 103.5v2.605l-7.124 2.67-11.466-5.725c-.155-.075-.304-.05-.454.04l-.034.04-16.02 7.865c-.17.085-.397.255-.397.445v.56h-1.75c-.274 0-.71-.07-.974-.16l-1.025-.34-.555.275c-.245.125-.67.225-.945.225h-1.5c-.275 0-.71-.07-.974-.16l-1.025-.34-.555.275c-.245.125-.67.225-.945.225h-6a.52.52 0 01-.23-.055L2.606 106.02c.415-.56.53-1.24.53-1.975 0-1.695-1.125-3.11-3.125-3.46V93c0-.05.13-.095.145-.14-.025-.085.037-.17.057-.255-.05-.2.072-.42.262-.535l2.39-1.5c.08-.045.146-.07.146-.07v-1.965l-2.725-1.37a.493.493 0 01-.276-.445V80.5c0-.055.134-.11.155-.16.02-.07.117-.135.172-.185l.137-.085 2.17-1.37c.055-.385.366-.735.366-1.02v-1.245L.27 74.94a.503.503 0 01-.26-.44v-6c0-.055.134-.11.155-.16.015-.05.102-.1.137-.145l.067-.075.13-.12h.006l.01.03 2.365-1.48c.08-.045.13-.05.13-.05v-2.11L.275 62.94a.502.502 0 01-.265-.44v-5.91c0-.195.18-.405.36-.52l2.442-1.5a.84.84 0 01.198-.07v-1.96L.285 51.165a.494.494 0 01-.275-.445V38.59c0-.195.18-.405.36-.52l2.442-1.5a.84.84 0 01.198-.07v-1.96L.285 33.165a.494.494 0 01-.275-.445V20.5L0 20.38l.01-.095v-.005l.19-.065 14.07-20a.55.55 0 01.677-.16l12.888 6.5c.17.085.17.255.17.445v38c0 .19.02.36-.15.445l-2.841 1.39c.03.045-.008.1-.008.165v2c.5 0 .3.025.38.07l2.562 1.5.136.085.056.05c.035.04-.057.085-.047.135.02.05-.087.105-.087.16v17.5c0 .185-.1.355-.265.44l-2.735 1.475V72.5c.5 0 .3.025.38.07l2.562 1.5.136.085.051.04c.035.04-.057.09-.042.145.02.05-.087.105-.087.16v24h27.746c.275 0 .574.1.82.225L66 103.5"/><linearGradient id="xt63ojkptp" x1="0%" x2="121.24%" y1="50.017%" y2="50.017%"><stop offset="0%" stop-color="#00BAFF"/><stop offset="100%" stop-color="#6DD2F3"/></linearGradient><linearGradient id="xkj5p038fs" x1=".001%" x2="99.999%" y1="50.017%" y2="50.017%"><stop offset="0%" stop-color="#00BAFF"/><stop offset="100%" stop-color="#6DD2F3"/></linearGradient><linearGradient id="g4qkt2uvyv" x1="-3.034%" x2="99.999%" y1="54.545%" y2="54.545%"><stop offset="0%" stop-color="#00BAFF"/><stop offset="100%" stop-color="#6DD2F3"/></linearGradient><linearGradient id="q82gwno3py" x1="-371.998%" x2="100.001%" y1="205.731%" y2="205.731%"><stop offset="0%" stop-color="#00BAFF"/><stop offset="100%" stop-color="#6DD2F3"/></linearGradient><linearGradient id="l7ntok95nB" x1="-32.995%" x2="100%" y1="72.438%" y2="72.438%"><stop offset="0%" stop-color="#00BAFF"/><stop offset="100%" stop-color="#6DD2F3"/></linearGradient></defs><g fill="none" fill-rule="evenodd"><path fill="#FFF" d="M0 0h324v240H0z"/><g transform="translate(187 53)"><mask id="r5nureearb" fill="#fff"><use xlink:href="#q25aqal4ka"/></mask><path fill="#2E2E2E" d="M2.028 55.974l9.109 4.467c-.071-.607-.213-1.158-.368-1.767-.282-1.098-.6-2.343-.6-4.303 0-1.992.483-3.25.91-4.36.33-.858.614-1.598.614-2.541 0-.942-.285-1.684-.614-2.542-.427-1.11-.91-2.368-.91-4.359s.483-3.25.91-4.36c.33-.857.614-1.598.614-2.54 0-.943-.285-1.684-.614-2.542-.427-1.11-.91-2.368-.91-4.359 0-1.99.483-3.248.91-4.358.33-.859.614-1.6.614-2.543 0-1.114-.396-2.349-.78-3.542-.345-1.074-.672-2.095-.735-3.046L1.101 8.828c.123.682.364 1.431.614 2.21.407 1.266.827 2.575.827 3.842 0 1.125-.33 1.985-.68 2.895-.416 1.08-.845 2.199-.845 4.007 0 1.81.43 2.926.845 4.007.35.91.68 1.768.68 2.893 0 1.125-.33 1.984-.68 2.893-.416 1.08-.845 2.198-.845 4.008 0 1.809.43 2.926.845 4.007.35.91.68 1.77.68 2.894s-.33 1.983-.68 2.893c-.416 1.08-.845 2.197-.845 4.007 0 1.838.29 2.968.57 4.061.207.81.404 1.58.44 2.53m9.666 5.796a.52.52 0 01-.227-.053L1.298 56.732a.5.5 0 01-.281-.447c0-.972-.193-1.725-.417-2.596-.28-1.099-.6-2.344-.6-4.305 0-1.992.483-3.25.91-4.36.33-.857.615-1.598.615-2.54 0-.943-.285-1.684-.614-2.542C.483 38.832 0 37.573 0 35.582c0-1.99.483-3.249.91-4.359.33-.857.615-1.598.615-2.54 0-.944-.285-1.684-.614-2.542C.483 25.031 0 23.773 0 21.781c0-1.99.483-3.247.91-4.358.33-.858.615-1.6.615-2.543 0-1.114-.396-2.348-.78-3.542C.362 10.145 0 9.018 0 7.98c0-.174.092-.334.241-.425a.52.52 0 01.495-.022l10.168 4.987c.172.084.28.257.28.446 0 .885.34 1.941.7 3.06.406 1.265.826 2.573.826 3.84 0 1.126-.33 1.985-.68 2.895-.415 1.081-.845 2.2-.845 4.007 0 1.81.43 2.927.845 4.007.35.91.68 1.769.68 2.894 0 1.124-.33 1.983-.68 2.892-.415 1.081-.845 2.199-.845 4.008 0 1.81.43 2.927.845 4.008.35.91.68 1.769.68 2.893 0 1.125-.33 1.984-.68 2.893-.415 1.08-.845 2.198-.845 4.008 0 1.837.29 2.968.57 4.06.23.898.447 1.745.447 2.84a.509.509 0 01-.509.5m3.559-2.244a.252.252 0 01-.254-.25c0-1.003-.197-1.77-.424-2.658-.278-1.084-.593-2.313-.593-4.243 0-1.946.476-3.182.894-4.272.34-.88.631-1.64.631-2.629 0-.988-.292-1.748-.63-2.629-.42-1.09-.895-2.326-.895-4.271 0-1.947.476-3.182.894-4.272.34-.88.631-1.64.631-2.629 0-.988-.292-1.749-.63-2.629-.42-1.09-.895-2.326-.895-4.271 0-1.945.476-3.18.894-4.271.34-.881.631-1.642.631-2.63 0-1.154-.402-2.406-.791-3.618-.377-1.174-.734-2.283-.734-3.284 0-.137.114-.249.254-.249s.255.112.255.25c0 .923.345 1.996.71 3.133.4 1.248.815 2.538.815 3.767 0 1.08-.323 1.919-.664 2.807-.404 1.05-.861 2.24-.861 4.095 0 1.854.457 3.045.86 4.095.342.887.665 1.726.665 2.805 0 1.079-.323 1.917-.664 2.805-.404 1.05-.861 2.24-.861 4.096 0 1.854.457 3.044.86 4.095.342.888.665 1.726.665 2.805 0 1.08-.323 1.918-.664 2.805-.404 1.05-.861 2.24-.861 4.096 0 1.868.307 3.066.577 4.122.226.881.44 1.714.44 2.78a.252.252 0 01-.255.249" mask="url(#r5nureearb)"/><path fill="#2E2E2E" d="M5.084 58.093a.252.252 0 01-.254-.25c0-2.52-.32-3.59-.605-4.533-.211-.707-.412-1.375-.412-2.51 0-1.213.223-2.062.46-2.96.273-1.041.557-2.119.557-3.94 0-1.856-.458-3.047-.861-4.097-.342-.887-.664-1.725-.664-2.805 0-1.079.322-1.917.664-2.805.403-1.05.86-2.24.86-4.095 0-1.856-.457-3.046-.86-4.096-.342-.888-.664-1.726-.664-2.805 0-1.079.322-1.918.664-2.805.403-1.05.86-2.24.86-4.095 0-1.854-.457-3.044-.86-4.095-.342-.888-.664-1.727-.664-2.807 0-.137.114-.25.254-.25s.254.113.254.25c0 .989.292 1.75.631 2.631.419 1.09.894 2.326.894 4.27 0 1.947-.475 3.182-.894 4.272-.339.88-.631 1.64-.631 2.63 0 .987.292 1.747.631 2.628.419 1.09.894 2.326.894 4.272 0 1.945-.475 3.18-.894 4.271-.339.88-.631 1.641-.631 2.63 0 .988.292 1.748.631 2.628.419 1.09.894 2.326.894 4.272 0 1.886-.305 3.044-.573 4.066-.228.866-.444 1.685-.444 2.835 0 1.063.182 1.669.392 2.37.294.975.625 2.08.625 4.674a.252.252 0 01-.254.249m3.559 1.995a.252.252 0 01-.254-.25c0-2.521-.321-3.59-.604-4.533-.212-.707-.413-1.375-.413-2.51 0-1.214.223-2.062.459-2.96.274-1.042.558-2.12.558-3.941 0-1.856-.458-3.046-.862-4.096-.341-.887-.664-1.725-.664-2.805 0-1.079.323-1.918.664-2.805.404-1.051.862-2.241.862-4.096s-.458-3.045-.862-4.096c-.341-.887-.664-1.725-.664-2.804 0-1.08.323-1.918.664-2.805.404-1.05.862-2.241.862-4.096 0-1.854-.458-3.044-.862-4.094-.341-.888-.664-1.728-.664-2.807 0-.138.114-.25.255-.25.14 0 .254.112.254.25 0 .989.292 1.75.63 2.63.42 1.091.895 2.327.895 4.271 0 1.946-.475 3.182-.894 4.272-.339.88-.631 1.64-.631 2.629 0 .988.292 1.748.63 2.628.42 1.091.895 2.326.895 4.272 0 1.946-.475 3.181-.894 4.272-.339.88-.631 1.64-.631 2.629 0 .988.292 1.749.63 2.629.42 1.09.895 2.326.895 4.272 0 1.885-.305 3.043-.573 4.065-.228.867-.444 1.686-.444 2.836 0 1.063.182 1.668.392 2.369.294.975.625 2.08.625 4.674 0 .138-.114.25-.254.25m11.185-3.055a.251.251 0 01-.254-.249c0-.993-.195-1.56-.419-2.216-.28-.82-.598-1.748-.598-3.688 0-1.946.475-3.182.894-4.272.339-.88.631-1.64.631-2.629 0-.988-.292-1.748-.63-2.629-.42-1.09-.895-2.326-.895-4.271 0-1.946.475-3.182.894-4.272.339-.88.631-1.64.631-2.629 0-.988-.292-1.749-.63-2.629-.42-1.09-.895-2.325-.895-4.271 0-1.945.475-3.18.894-4.271.339-.881.631-1.642.631-2.63 0-1.154-.403-2.406-.792-3.618-.377-1.174-.733-2.283-.733-3.284 0-.137.114-.249.254-.249s.254.112.254.25c0 .923.345 1.997.71 3.133.401 1.248.815 2.538.815 3.767 0 1.08-.322 1.919-.664 2.807-.403 1.05-.86 2.24-.86 4.095 0 1.854.457 3.045.86 4.095.342.887.664 1.726.664 2.805 0 1.08-.322 1.917-.664 2.805-.403 1.05-.86 2.24-.86 4.096 0 1.854.457 3.044.86 4.095.342.888.664 1.726.664 2.805 0 1.08-.322 1.918-.664 2.805-.403 1.05-.86 2.24-.86 4.096 0 1.859.303 2.746.571 3.53.229.668.445 1.3.445 2.374 0 .138-.114.25-.254.25m4.067-1.497a.251.251 0 01-.254-.249c0-1.003-.197-1.77-.424-2.658-.278-1.084-.593-2.313-.593-4.243 0-1.946.475-3.182.894-4.272.339-.88.631-1.64.631-2.629 0-.988-.292-1.748-.63-2.63-.42-1.09-.895-2.325-.895-4.27 0-1.947.475-3.182.894-4.272.339-.88.631-1.64.631-2.63 0-.987-.292-1.748-.63-2.628-.42-1.09-.895-2.326-.895-4.271 0-1.945.475-3.18.894-4.271.339-.881.631-1.642.631-2.631 0-1.153-.402-2.406-.791-3.617-.378-1.175-.734-2.283-.734-3.284 0-.137.114-.25.254-.25s.255.113.255.25c0 .924.345 1.997.71 3.134.4 1.248.815 2.538.815 3.767 0 1.08-.323 1.919-.664 2.807-.404 1.05-.861 2.24-.861 4.095 0 1.854.457 3.045.86 4.095.342.887.665 1.726.665 2.805 0 1.079-.323 1.917-.664 2.805-.404 1.05-.861 2.24-.861 4.096 0 1.854.457 3.044.86 4.095.342.887.665 1.726.665 2.805 0 1.08-.323 1.918-.664 2.805-.404 1.05-.861 2.24-.861 4.096 0 1.868.307 3.066.577 4.122.226.881.44 1.714.44 2.78a.252.252 0 01-.255.248" mask="url(#r5nureearb)"/><path fill="#2E2E2E" d="M11.567 61.833a.51.51 0 01-.455-.274.495.495 0 01.225-.67l14.842-7.34c-.025-.865-.182-1.566-.362-2.368-.245-1.096-.524-2.337-.524-4.29 0-1.995.505-3.255.95-4.366.343-.856.639-1.595.639-2.535 0-.944-.28-1.686-.602-2.544-.418-1.11-.892-2.367-.892-4.356 0-1.993.49-3.252.921-4.362.333-.857.62-1.597.62-2.54 0-.943-.283-1.683-.61-2.541-.425-1.11-.907-2.368-.907-4.358 0-1.99.486-3.249.913-4.36.331-.858.616-1.6.616-2.542 0-1.2-.457-2.69-.861-4.006-.245-.795-.465-1.515-.58-2.13l-14.662 7.161c-.25.124-.556.022-.681-.224s-.023-.546.229-.668L25.7 5.04a.519.519 0 01.494.022c.15.091.241.252.241.424 0 .595.3 1.572.618 2.607.424 1.382.905 2.947.905 4.294 0 1.125-.33 1.985-.682 2.895-.416 1.081-.847 2.199-.847 4.007 0 1.81.428 2.927.841 4.008.348.909.677 1.767.677 2.892s-.334 1.985-.688 2.895c-.42 1.08-.853 2.197-.853 4.006 0 1.81.42 2.929.827 4.01.342.91.666 1.767.666 2.89 0 1.129-.345 1.989-.71 2.9-.432 1.079-.879 2.195-.879 4.001 0 1.845.265 3.03.5 4.075.2.894.39 1.738.39 2.826v.063a.5.5 0 01-.28.445l-15.125 7.48a.514.514 0 01-.228.053" mask="url(#r5nureearb)"/><path fill="#2E2E2E" d="M.509 8.478a.51.51 0 01-.456-.276.495.495 0 01.228-.669L15.533.053a.52.52 0 01.455 0L26.156 5.04a.495.495 0 01.227.67.514.514 0 01-.682.223l-9.94-4.876L.736 8.425a.51.51 0 01-.227.053" mask="url(#r5nureearb)"/></g><g fill="#2E2E2E"><path d="M197.5 59c-.798 0-1.447.617-1.447 1.375 0 .759.649 1.375 1.447 1.375s1.447-.616 1.447-1.375c0-.758-.649-1.375-1.447-1.375zm0 3.75c-1.378 0-2.5-1.066-2.5-2.375 0-1.31 1.122-2.375 2.5-2.375s2.5 1.065 2.5 2.375-1.122 2.375-2.5 2.375z"/><path d="M197.237 64a.513.513 0 01-.526-.5v-1c0-.276.235-.5.526-.5.29 0 .526.224.526.5v1c0 .276-.235.5-.526.5"/></g><g fill="#2E2E2E"><path d="M203.5 56c-.798 0-1.447.617-1.447 1.375 0 .759.649 1.375 1.447 1.375s1.447-.616 1.447-1.375c0-.758-.649-1.375-1.447-1.375zm0 3.75c-1.378 0-2.5-1.066-2.5-2.375 0-1.31 1.122-2.375 2.5-2.375s2.5 1.065 2.5 2.375-1.122 2.375-2.5 2.375z"/><path d="M203.237 61a.513.513 0 01-.526-.5v-1c0-.276.235-.5.526-.5.29 0 .526.224.526.5v1c0 .276-.235.5-.526.5"/></g><g transform="translate(106 52)"><mask id="mwvnpikn8d" fill="#fff"><use xlink:href="#nns4u35c7c"/></mask><path fill="#2E2E2E" d="M1 52.241l8.911 4.464c.044-4.707.46-29.294 4.39-50.974L5.327 1.236C1.293 23.69 1.018 49.171.999 52.241zM10.4 58a.491.491 0 01-.221-.052L.282 52.99a.497.497 0 01-.273-.444c0-.278.05-28.083 4.462-52.14a.495.495 0 01.708-.354l9.897 4.957c.197.1.306.317.265.534-4.394 23.965-4.445 51.683-4.445 51.96a.5.5 0 01-.495.496z" mask="url(#mwvnpikn8d)"/><path fill="#2E2E2E" d="M10.402 58a.495.495 0 01-.222-.939l7.643-3.828c-.015-3.004-.238-27.437-3.457-47.701a.496.496 0 01.978-.156c3.43 21.6 3.47 47.9 3.47 48.163a.496.496 0 01-.274.443l-7.918 3.966a.493.493 0 01-.22.052" mask="url(#mwvnpikn8d)"/><path fill="#2E2E2E" d="M10.401 57.752l-.11-.026-9.898-4.957a.247.247 0 01-.11-.333.246.246 0 01.331-.11l9.898 4.957c.122.06.172.21.11.332a.245.245 0 01-.22.137m-.001-4.462l-.11-.026-9.898-4.957a.246.246 0 01-.11-.332.246.246 0 01.331-.11l9.898 4.956a.248.248 0 01-.11.47" mask="url(#mwvnpikn8d)"/><path fill="#2E2E2E" d="M10.401 53.29a.248.248 0 01-.111-.469l7.918-3.965a.248.248 0 01.222.443l-7.918 3.965-.11.027m-.001-4.461a.246.246 0 01-.221-.138.247.247 0 01.11-.332l7.918-3.966a.248.248 0 01.222.443l-7.918 3.966-.11.026m.494-4.709a.247.247 0 01-.221-.137.246.246 0 01.11-.332l6.928-3.47a.247.247 0 11.222.443l-6.928 3.47-.111.026m0-4.461a.248.248 0 01-.111-.47l6.928-3.47a.248.248 0 01.222.443l-6.928 3.47-.111.027m.494-4.709a.244.244 0 01-.22-.138.247.247 0 01.11-.332l5.939-2.975a.25.25 0 01.332.111.25.25 0 01-.11.333l-5.94 2.974-.11.026m-.001-4.461a.248.248 0 01-.11-.47l5.939-2.974a.249.249 0 01.332.11.25.25 0 01-.11.333l-5.94 2.974-.11.027m.495-4.214a.25.25 0 01-.222-.137.25.25 0 01.11-.332l4.95-2.479a.249.249 0 01.332.11.248.248 0 01-.11.333l-4.95 2.479-.11.026m.494-4.214a.246.246 0 01-.22-.136.247.247 0 01.11-.333l3.959-1.983a.249.249 0 01.332.11.248.248 0 01-.11.333l-3.96 1.983-.11.027m.494-4.214a.245.245 0 01-.22-.137.246.246 0 01.11-.332l2.969-1.488a.249.249 0 01.222.444l-2.97 1.487-.11.026m.989-4.709a.248.248 0 01-.111-.47l1.98-.991a.248.248 0 01.332.11.248.248 0 01-.11.333l-1.98.991-.11.027" mask="url(#mwvnpikn8d)"/><path fill="#2E2E2E" d="M10.401 48.83l-.11-.027-9.898-4.957a.247.247 0 01-.11-.333.246.246 0 01.331-.11l9.898 4.957c.122.06.172.21.11.332a.245.245 0 01-.22.137m.494-4.461l-.11-.026-9.898-4.958a.246.246 0 01-.11-.332.244.244 0 01.331-.11l9.898 4.956a.248.248 0 01-.111.47m0-4.462l-.11-.026-9.898-4.957a.247.247 0 01-.11-.333.245.245 0 01.331-.11l9.898 4.957a.247.247 0 01-.111.469m.494-4.461l-.11-.026-9.898-4.958a.247.247 0 11.222-.442l9.898 4.956a.248.248 0 01-.111.47m.495-4.462l-.111-.026L1.877 26a.248.248 0 01.222-.443l9.898 4.957a.248.248 0 01-.111.469m0-4.461l-.111-.026-9.898-4.957a.248.248 0 01-.11-.333.246.246 0 01.332-.11l9.898 4.957a.247.247 0 01-.111.469m.494-4.462l-.11-.026-9.898-4.957a.246.246 0 01-.11-.332.249.249 0 01.332-.111l9.897 4.957c.123.061.172.21.11.333a.245.245 0 01-.22.137m.494-4.461l-.11-.027-9.898-4.957a.248.248 0 01.222-.443l9.897 4.957c.123.06.172.21.11.332a.245.245 0 01-.22.137m.494-4.461l-.11-.027-9.898-4.957a.246.246 0 01-.11-.332.245.245 0 01.332-.11l9.897 4.956a.248.248 0 01-.11.47" mask="url(#mwvnpikn8d)"/></g><g transform="translate(131 45)"><mask id="td7icswmmf" fill="#fff"><use xlink:href="#gqf7ob7tte"/></mask><path fill="#2E2E2E" d="M9.75 11.799c-.7 0-1.402-.14-1.948-.42L.986 7.886C.129 7.446 0 6.866 0 6.559c0-.308.128-.89.984-1.33l2.478-1.275a.5.5 0 01.457.889L1.441 6.12c-.326.167-.441.34-.441.439 0 .098.116.27.442.438l6.816 3.492c.809.415 2.176.415 2.986 0l6.815-3.492c.326-.168.441-.34.441-.439 0-.098-.115-.271-.44-.439l-3.472-1.786a.5.5 0 11.457-.889l3.472 1.786c.857.44.984 1.022.984 1.33 0 .306-.129.888-.986 1.327l-6.816 3.493c-.546.28-1.248.42-1.948.42M7.75 3.002a.5.5 0 01-.229-.944l.657-.337c1.092-.562 2.803-.562 3.895 0a.498.498 0 01.216.672.498.498 0 01-.673.217c-.808-.415-2.173-.415-2.982 0l-.655.337a.498.498 0 01-.229.055" mask="url(#td7icswmmf)"/><path fill="#2E2E2E" d="M9.956 77.775c-.695 0-1.39-.158-1.931-.472l-5.988-3.444C.913 73.205 0 71.68 0 70.459V6.5a.5.5 0 011 0v63.959c0 .873.718 2.057 1.538 2.533l5.987 3.445c.762.443 2.096.444 2.857.004l5.81-3.43c.723-.418 1.308-1.553 1.308-2.531V7a.5.5 0 011 0v63.48c0 1.34-.775 2.8-1.803 3.395l-5.811 3.429c-.542.314-1.236.471-1.93.471" mask="url(#td7icswmmf)"/><path fill="#2E2E2E" d="M16.75 73.75a.25.25 0 01-.25-.25v-62a.25.25 0 01.5 0v62a.25.25 0 01-.25.25m-2 1a.25.25 0 01-.25-.25v-62a.25.25 0 01.5 0v62a.25.25 0 01-.25.25m-2 1a.25.25 0 01-.25-.25v-62a.25.25 0 01.5 0v62a.25.25 0 01-.25.25m-10-2a.25.25 0 01-.25-.25v-62a.25.25 0 01.5 0v62a.25.25 0 01-.25.25m2 1a.25.25 0 01-.25-.25v-62a.25.25 0 01.5 0v62a.25.25 0 01-.25.25m2 1a.25.25 0 01-.25-.25v-62a.25.25 0 01.5 0v62a.25.25 0 01-.25.25m4 1a.25.25 0 01-.25-.25v-62a.25.25 0 01.5 0v62a.25.25 0 01-.25.25m-2 .5A.25.25 0 018.5 77V14.5a.25.25 0 01.5 0V77a.25.25 0 01-.25.25" mask="url(#td7icswmmf)"/></g><g transform="translate(131 45)"><mask id="n5y42yuy8h" fill="#fff"><use xlink:href="#396ptzyp9g"/></mask><path fill="#2E2E2E" d="M5.25 1.5a1.376 1.376 0 000 2.75 1.376 1.376 0 000-2.75zm0 3.75a2.378 2.378 0 01-2.375-2.375A2.378 2.378 0 015.25.5c1.31 0 2.375 1.065 2.375 2.375S6.559 5.25 5.25 5.25z" mask="url(#n5y42yuy8h)"/><path fill="#2E2E2E" d="M5 6.5a.5.5 0 01-.5-.5V5a.5.5 0 011 0v1a.5.5 0 01-.5.5" mask="url(#n5y42yuy8h)"/></g><g transform="translate(131 45)"><mask id="6afy3qi6uj" fill="#fff"><use xlink:href="#253wuxp5fi"/></mask><path fill="#2E2E2E" d="M13.75 1a1.376 1.376 0 101.375 1.375c0-.758-.617-1.375-1.375-1.375zm0 3.75a2.378 2.378 0 01-2.375-2.375A2.378 2.378 0 0113.75 0c1.31 0 2.375 1.065 2.375 2.375S15.059 4.75 13.75 4.75z" mask="url(#6afy3qi6uj)"/><path fill="#2E2E2E" d="M13.5 6a.5.5 0 01-.5-.5v-1a.5.5 0 011 0v1a.5.5 0 01-.5.5" mask="url(#6afy3qi6uj)"/></g><g transform="translate(131 45)"><mask id="maj8356yal" fill="#fff"><use xlink:href="#p3p1gy4ayk"/></mask><path fill="#2E2E2E" d="M9.75 5c-.758 0-1.375.617-1.375 1.375S8.992 7.75 9.75 7.75s1.375-.617 1.375-1.375S10.508 5 9.75 5zm0 3.75a2.378 2.378 0 01-2.375-2.375A2.378 2.378 0 019.75 4a2.378 2.378 0 012.375 2.375A2.378 2.378 0 019.75 8.75z" mask="url(#maj8356yal)"/><path fill="#2E2E2E" d="M9.5 10a.5.5 0 01-.5-.5v-1a.5.5 0 011 0v1a.5.5 0 01-.5.5" mask="url(#maj8356yal)"/></g><g transform="translate(70 94)"><mask id="k79gnpqlmn" fill="#fff"><use xlink:href="#x84nyszfpm"/></mask><path fill="#2E2E2E" d="M22.31 21.452v19.204l9.127-4.552V12.348l-9.127 9.104zm-.507 20.528a.506.506 0 01-.507-.506V21.243c0-.134.053-.263.148-.358L31.585 10.77a.506.506 0 01.866.357v25.29c0 .19-.109.366-.28.452l-10.142 5.058a.513.513 0 01-.226.053z" mask="url(#k79gnpqlmn)"/><path fill="#2E2E2E" d="M21.93 41.98a.506.506 0 01-.226-.053L.28 31.305a.507.507 0 01-.28-.452V10.62c0-.135.054-.264.15-.36L10.419.147a.506.506 0 01.582-.093l21.423 10.621a.505.505 0 11-.452.906L10.874 1.12l-9.859 9.713V30.54l21.141 10.48c.251.125.353.43.229.68a.509.509 0 01-.455.28" mask="url(#k79gnpqlmn)"/><path fill="#2E2E2E" d="M6.085 13.53a.253.253 0 01-.18-.432l10.14-10.116c.1-.099.26-.099.36 0 .099.1.099.26 0 .358L6.264 13.456a.257.257 0 01-.18.074m5.324 2.655a.253.253 0 01-.179-.432l10.14-10.116a.254.254 0 11.36.359L11.588 16.11a.253.253 0 01-.18.074m5.324 2.656a.253.253 0 01-.18-.432L26.695 8.293a.254.254 0 01.359.358L16.912 18.766a.253.253 0 01-.18.074" mask="url(#k79gnpqlmn)"/><path fill="#2E2E2E" d="M22.056 21.749a.507.507 0 01-.226-.054L.534 11.075a.506.506 0 11.453-.906L22.283 20.79a.507.507 0 01-.227.959m2.536-2.782l-.114-.027L3.182 8.319a.253.253 0 11.227-.453l21.296 10.622a.253.253 0 01-.113.479m2.535-2.529l-.114-.027L5.717 5.79a.253.253 0 11.227-.452l21.296 10.62a.252.252 0 01.113.34.251.251 0 01-.226.14m2.535-2.529l-.114-.027L8.253 3.261a.252.252 0 01-.113-.34.252.252 0 01.34-.112L29.776 13.43a.254.254 0 01-.114.479M3.55 18.305l1.52.758V17.1l-1.52-.759v1.964zm1.774 1.42L5.21 19.7l-2.028-1.012a.254.254 0 01-.14-.226v-2.529c0-.087.046-.169.12-.215a.256.256 0 01.247-.011l2.029 1.012c.085.043.14.13.14.226v2.529a.256.256 0 01-.12.215.258.258 0 01-.134.037zm2.789.94l1.52.758V19.46l-1.52-.759v1.964zm1.774 1.42l-.113-.026-2.028-1.012a.252.252 0 01-.14-.226v-2.529a.252.252 0 01.367-.226L10 19.078c.086.043.14.13.14.226v2.529a.255.255 0 01-.12.215.256.256 0 01-.134.037zm3.296.94l1.521.758v-1.962l-1.52-.759v1.963zm1.775 1.42l-.114-.026-2.028-1.011a.254.254 0 01-.14-.227v-2.528c0-.087.046-.169.12-.215a.256.256 0 01.247-.011l2.028 1.011c.086.043.14.13.14.226v2.529a.251.251 0 01-.253.253zm2.788.94l1.522.759V24.18l-1.522-.759v1.963zm1.775 1.421l-.113-.026-2.029-1.012a.254.254 0 01-.14-.226v-2.529a.253.253 0 01.368-.226l2.028 1.011c.085.043.14.131.14.227v2.528c0 .088-.046.17-.12.216a.258.258 0 01-.134.037zM3.55 23.362l1.52.759v-1.963l-1.52-.759v1.963zm1.774 1.421l-.114-.027-2.028-1.011a.254.254 0 01-.14-.226v-2.53a.253.253 0 01.367-.225l2.029 1.011c.085.043.14.13.14.226v2.53a.256.256 0 01-.12.215.258.258 0 01-.134.037zm2.789.939l1.52.759v-1.963l-1.52-.759v1.963zm1.774 1.421l-.113-.027-2.028-1.011a.252.252 0 01-.14-.226v-2.53a.254.254 0 01.367-.225L10 24.135c.086.043.14.13.14.226v2.53a.256.256 0 01-.12.215.256.256 0 01-.134.037zm3.296.939l1.521.76v-1.963l-1.52-.759v1.962zm1.775 1.422l-.114-.027-2.028-1.012a.252.252 0 01-.14-.226v-2.528a.253.253 0 01.367-.226l2.028 1.01c.086.044.14.131.14.227v2.529a.252.252 0 01-.253.253zm2.788.939l1.522.759v-1.963l-1.522-.759v1.963zm1.775 1.421l-.113-.027-2.029-1.011a.254.254 0 01-.14-.226v-2.53c0-.087.046-.168.12-.215a.257.257 0 01.248-.01l2.028 1.011c.085.043.14.13.14.226v2.53a.256.256 0 01-.12.215.258.258 0 01-.134.037zM3.55 28.42l1.52.758v-1.962l-1.52-.76v1.964m1.774 1.421l-.114-.027-2.028-1.011a.254.254 0 01-.14-.226v-2.53c0-.087.046-.168.12-.215a.255.255 0 01.247-.01l2.029 1.011c.085.043.14.13.14.226v2.53a.256.256 0 01-.12.215.268.268 0 01-.134.037m2.789.939l1.52.758v-1.962l-1.52-.76v1.964zm1.774 1.42l-.113-.027-2.028-1.011a.252.252 0 01-.14-.226v-2.53a.254.254 0 01.367-.225L10 29.193c.086.043.14.13.14.226v2.53a.256.256 0 01-.12.215.265.265 0 01-.134.037zm3.296.94l1.521.759v-1.963l-1.52-.758v1.962zm1.775 1.421l-.114-.026-2.028-1.012a.252.252 0 01-.14-.226v-2.528a.253.253 0 01.367-.226l2.028 1.01c.086.044.14.131.14.227v2.529a.252.252 0 01-.253.252zm2.788.939l1.522.76v-1.964l-1.522-.758V35.5zm1.775 1.422l-.113-.027-2.029-1.011a.254.254 0 01-.14-.226v-2.53c0-.087.046-.168.12-.215a.257.257 0 01.248-.01l2.028 1.011c.085.043.14.13.14.226v2.53a.256.256 0 01-.12.215.268.268 0 01-.134.037zm8.873-15.102v1.963l1.521-.758v-1.963l-1.52.759zm-.253 2.626a.253.253 0 01-.254-.253v-2.529c0-.095.055-.183.14-.226l2.028-1.011a.253.253 0 01.367.226v2.528a.254.254 0 01-.14.227l-2.028 1.011-.113.027zm-4.31-.266v1.964l1.521-.759v-1.963l-1.521.759zm-.254 2.626a.255.255 0 01-.133-.037.256.256 0 01-.12-.216v-2.528c0-.096.054-.184.14-.227l2.028-1.011a.258.258 0 01.247.01c.075.047.12.128.12.216v2.529a.252.252 0 01-.14.226l-2.028 1.012-.114.026zm4.817.073v1.962l1.521-.759V26.12l-1.52.759zm-.253 2.625a.255.255 0 01-.254-.253v-2.53c0-.095.055-.182.14-.225l2.028-1.011a.253.253 0 01.367.226v2.528a.252.252 0 01-.14.226l-2.028 1.012-.113.027zm-4.31-.265v1.963l1.521-.76V28.48l-1.521.759zm-.254 2.625a.255.255 0 01-.133-.037.256.256 0 01-.12-.216v-2.529c0-.095.054-.183.14-.226l2.028-1.011a.253.253 0 01.367.226V30.6a.253.253 0 01-.14.226l-2.028 1.011-.114.027zm4.817.072V33.9l1.521-.759v-1.962l-1.52.758zm-.253 2.625a.258.258 0 01-.134-.037.255.255 0 01-.12-.215v-2.53c0-.095.055-.182.14-.225l2.028-1.011a.255.255 0 01.247.01c.075.047.12.128.12.216v2.528a.252.252 0 01-.14.226l-2.028 1.012-.113.026zm-4.31-.265v1.963l1.521-.758v-1.963l-1.521.758zm-.254 2.626a.264.264 0 01-.133-.037.256.256 0 01-.12-.216V34.14c0-.095.054-.183.14-.226l2.028-1.011a.253.253 0 01.367.226v2.529a.253.253 0 01-.14.226l-2.028 1.011-.114.027z" mask="url(#k79gnpqlmn)"/></g><g transform="translate(132 183)"><mask id="t4fohli2jq" fill="#fff"><use xlink:href="#y4rpn314xo"/></mask><path fill="url(#xt63ojkptp)" d="M0 7c-.003-.012.125-.071.385-.176l8.381-3.387L.385 6.824c-.254.102-.382.161-.385.175V7m10.321-4.977l-2.11-.768a2.464 2.464 0 00-.765-.137c-.083 0-.161.007-.23.022-.303.07-.628.217-.628.533 0-.316.325-.463.629-.533.068-.015.146-.022.23-.022.257 0 .563.064.764.137l2.11.768L13.588.166c.198-.112.326-.166.38-.166.022 0 .032.008.032.023C14 .009 13.992 0 13.976 0h-.014c-.059.004-.184.058-.374.166l-3.267 1.857" mask="url(#t4fohli2jq)"/></g><path fill="#2E2E2E" d="M134.076 162.504l-.99 4.674a.498.498 0 01-.128.24l-2.94 3.067 2.978-2.363a.52.52 0 01.532-.068l3.053 1.336-2.594-1.914a.494.494 0 01-.202-.43l.291-4.542zM124.511 176a.514.514 0 01-.374-.159.49.49 0 01.001-.681l7.975-8.321 2.423-11.441a.516.516 0 01.57-.394.502.502 0 01.442.526l-.725 11.311 5.974 4.408a.492.492 0 01.132.652.518.518 0 01-.65.201l-6.883-3.012-8.562 6.799a.525.525 0 01-.323.111z"/><path fill="#2E2E2E" d="M132 187c-1.196 0-2-.402-2-1l.571-16.515c.01-.276.268-.485.589-.485.316.009.563.24.554.515l-.567 16.355c.135.056.428.13.853.13.426 0 .718-.073.853-.13l-.567-17.356c-.009-.275.24-.505.555-.514.305-.001.578.21.588.486l.571 17.5c0 .612-.804 1.014-2 1.014m-1.008-19a.475.475 0 01-.355-.163l-.447-.494c-1.243-.724-1.348-1.735-1.051-2.39.17-.378.488-.685.87-.841a1.373 1.373 0 011.207.058l.054.035 1.507 1.11c.23.171.292.516.139.771-.154.255-.466.324-.697.154l-1.475-1.088c-.257-.12-.599.056-.707.298a.376.376 0 00.006.33c.053.12.212.358.671.612a.48.48 0 01.13.104l.503.556a.598.598 0 010 .785.476.476 0 01-.355.163"/><g transform="translate(192 186)"><mask id="jb726jj84t" fill="#fff"><use xlink:href="#mhxqu0p2er"/></mask><path fill="url(#xkj5p038fs)" d="M0 7c-.004-.011.124-.07.385-.176L8.78 3.437.385 6.824c-.253.102-.38.16-.385.175V7m17-4.462v-.003c-.006-.025-.15-.04-.434-.04h-5.19 5.19c.295 0 .44.016.434.043m-6.663-.515l-2.113-.768a2.476 2.476 0 00-.766-.137c-.084 0-.162.007-.23.022-.304.07-.63.217-.63.533 0-.316.326-.464.63-.533.068-.015.146-.022.23-.022.258 0 .565.064.766.137l2.113.768L13.61.166c.197-.112.326-.166.38-.166.021 0 .032.008.032.023 0-.014-.009-.022-.026-.023h-.011c-.058.004-.184.058-.375.166l-3.273 1.857" mask="url(#jb726jj84t)"/></g><path fill="#2E2E2E" d="M194.076 164.505l-.99 4.673a.501.501 0 01-.128.24l-2.939 3.067 2.977-2.363a.52.52 0 01.532-.068l3.053 1.336-2.594-1.914a.494.494 0 01-.202-.43l.29-4.541zM184.512 178a.515.515 0 01-.375-.159.491.491 0 010-.681l7.976-8.32 2.424-11.442a.512.512 0 01.569-.394.502.502 0 01.442.526l-.726 11.311 5.975 4.408a.49.49 0 01.131.652.516.516 0 01-.649.201l-6.882-3.011-8.563 6.798a.52.52 0 01-.322.111z"/><path fill="#2E2E2E" d="M192 190c-1.197 0-2-.402-2-1l.571-16.515c.01-.276.274-.483.589-.485.315.009.564.24.554.515l-.566 16.355c.134.057.427.13.852.13.426 0 .719-.073.853-.13l-.567-17.356c-.01-.275.24-.505.555-.514.314-.003.578.21.588.486l.571 17.5c0 .612-.803 1.014-2 1.014m-1.009-19a.473.473 0 01-.354-.163l-.447-.494c-1.243-.724-1.347-1.735-1.052-2.39.171-.379.488-.685.87-.842.41-.166.839-.146 1.208.058l.054.035 1.506 1.111c.231.17.293.515.14.771-.155.255-.466.324-.697.154l-1.475-1.089c-.259-.119-.598.058-.707.299a.373.373 0 00.005.329c.054.12.212.359.672.613a.496.496 0 01.13.104l.502.556a.595.595 0 010 .785.473.473 0 01-.355.163M106 142.691l18 9v-14.382l-18-9v14.382M124.5 153a.508.508 0 01-.224-.053l-19-9.5A.499.499 0 01105 143v-15.5a.5.5 0 01.724-.447l19 9.5A.5.5 0 01125 137v15.5a.5.5 0 01-.5.5m8-23a.475.475 0 01-.224-.055l-19-9.952a.536.536 0 01-.223-.703.49.49 0 01.67-.235l19 9.952c.247.13.348.445.224.703a.498.498 0 01-.448.29"/><path fill="#2E2E2E" d="M125.034 137.28v14.405l12.932-6.447v-14.663l-6-.56-6.932 7.265m-.517 15.72a.522.522 0 01-.268-.073.49.49 0 01-.249-.424v-15.417c0-.124.049-.245.136-.337l7.242-7.588a.528.528 0 01.431-.159l6.724.627a.505.505 0 01.467.495v15.416a.496.496 0 01-.28.442l-13.965 6.962a.52.52 0 01-.238.056"/><path fill="#2E2E2E" d="M138.492 130a.512.512 0 01-.227-.052l-19.199-9.348-6.25-.59-6.935 7.36a.518.518 0 01-.717.029.486.486 0 01-.03-.699l7.104-7.54a.517.517 0 01.424-.158l6.596.623a.526.526 0 01.178.05l19.283 9.389c.25.122.353.419.227.663a.509.509 0 01-.454.273"/><path fill="#2E2E2E" d="M110.267 130a.281.281 0 01-.18-.064.233.233 0 01-.017-.348l7.467-7.508c.1-.1.268-.107.377-.016a.234.234 0 01.016.348l-7.466 7.508a.278.278 0 01-.197.08m5 2a.281.281 0 01-.18-.064.233.233 0 01-.017-.348l7.467-7.508c.1-.1.268-.107.377-.016a.234.234 0 01.016.348l-7.466 7.508a.278.278 0 01-.197.08m5 3a.281.281 0 01-.18-.064.233.233 0 01-.017-.348l7.467-7.508c.1-.1.268-.107.377-.015a.233.233 0 01.016.347l-7.466 7.508a.278.278 0 01-.197.08m-11.667-1.606l1.8.857v-1.646l-1.8-.857v1.646zm2.1 1.606l-.134-.03-2.4-1.143a.286.286 0 01-.166-.256v-2.285c0-.1.054-.191.142-.244a.314.314 0 01.292-.012l2.4 1.143a.286.286 0 01.166.256v2.285c0 .1-.054.191-.142.244a.314.314 0 01-.158.042zm1.9.394l1.8.857v-1.646l-1.8-.857v1.646zm2.1 1.606l-.134-.03-2.4-1.143a.286.286 0 01-.166-.256v-2.285c0-.1.054-.191.142-.244a.314.314 0 01.292-.012l2.4 1.143a.286.286 0 01.166.256v2.285c0 .1-.054.191-.142.244a.314.314 0 01-.158.042zm1.9.394l1.8.857v-1.646l-1.8-.857v1.646zm2.1 1.606l-.134-.03-2.4-1.143a.286.286 0 01-.166-.256v-2.285c0-.1.054-.191.142-.244a.317.317 0 01.292-.012l2.4 1.143a.286.286 0 01.166.256v2.285c0 .1-.054.191-.142.244a.314.314 0 01-.158.042zm1.9.394l1.8.857v-1.646l-1.8-.857v1.646zm2.1 1.606l-.134-.03-2.4-1.143a.286.286 0 01-.166-.256v-2.285c0-.1.054-.191.142-.244a.317.317 0 01.292-.012l2.4 1.143a.286.286 0 01.166.256v2.285c0 .1-.054.191-.142.244a.314.314 0 01-.158.042zm-14.1-3.606l1.8.857v-1.646l-1.8-.857v1.646zm2.1 1.606l-.134-.03-2.4-1.143a.286.286 0 01-.166-.256v-2.285c0-.1.054-.191.142-.244a.317.317 0 01.292-.012l2.4 1.143a.286.286 0 01.166.256v2.285c0 .1-.054.191-.142.244a.314.314 0 01-.158.042zm1.9.394l1.8.857v-1.646l-1.8-.857v1.646zm2.1 1.606l-.134-.03-2.4-1.143a.286.286 0 01-.166-.256v-2.285c0-.1.054-.191.142-.244a.317.317 0 01.292-.012l2.4 1.143a.286.286 0 01.166.256v2.285c0 .1-.054.191-.142.244a.314.314 0 01-.158.042zm1.9.394l1.8.857v-1.646l-1.8-.857v1.646zm2.1 1.606l-.134-.03-2.4-1.143a.286.286 0 01-.166-.256v-2.285c0-.1.054-.191.142-.244a.314.314 0 01.292-.012l2.4 1.143a.286.286 0 01.166.256v2.285c0 .1-.054.191-.142.244a.314.314 0 01-.158.042zm1.9.394l1.8.857v-1.646l-1.8-.857v1.646zm2.1 1.606l-.134-.03-2.4-1.143a.286.286 0 01-.166-.256v-2.285c0-.1.054-.191.142-.244a.314.314 0 01.292-.012l2.4 1.143a.286.286 0 01.166.256v2.285c0 .1-.054.191-.142.244a.314.314 0 01-.158.042zm-14.1-3.606l1.8.857v-1.646l-1.8-.857v1.646zm2.1 1.606l-.134-.03-2.4-1.143a.286.286 0 01-.166-.256v-2.285c0-.1.054-.191.142-.244a.314.314 0 01.292-.012l2.4 1.143a.286.286 0 01.166.256v2.285c0 .1-.054.191-.142.244a.314.314 0 01-.158.042zm1.9.394l1.8.857v-1.646l-1.8-.857v1.646zm2.1 1.606l-.134-.03-2.4-1.143a.286.286 0 01-.166-.256v-2.285c0-.1.054-.191.142-.244a.314.314 0 01.292-.012l2.4 1.143a.286.286 0 01.166.256v2.285c0 .1-.054.191-.142.244a.314.314 0 01-.158.042zm1.9.394l1.8.857v-1.646l-1.8-.857v1.646zm2.1 1.606l-.134-.03-2.4-1.143a.286.286 0 01-.166-.256v-2.285c0-.1.054-.191.142-.244a.314.314 0 01.292-.012l2.4 1.143a.286.286 0 01.166.256v2.285c0 .1-.054.191-.142.244a.314.314 0 01-.158.042zm1.9.394l1.8.857v-1.646l-1.8-.857v1.646zm2.1 1.606l-.134-.03-2.4-1.143a.286.286 0 01-.166-.256v-2.286c0-.099.054-.19.142-.243a.317.317 0 01.292-.012l2.4 1.143a.284.284 0 01.166.255v2.286c0 .1-.054.191-.142.244a.314.314 0 01-.158.042zm4.9-10.395v1.646l1.8-.857v-1.646l-1.8.857m-.3 2.395a.314.314 0 01-.158-.042.286.286 0 01-.142-.244v-2.285c0-.109.064-.207.166-.256l2.4-1.143a.314.314 0 01.292.012.285.285 0 01.142.244v2.285c0 .11-.064.207-.166.256l-2.4 1.143-.134.03m.3 1.605v1.647l1.8-.858v-1.646l-1.8.857m-.3 2.395a.314.314 0 01-.158-.042.286.286 0 01-.142-.244v-2.285c0-.108.064-.207.166-.256l2.4-1.142a.311.311 0 01.292.012.284.284 0 01.142.243v2.286a.284.284 0 01-.166.255l-2.4 1.143-.134.03m.3 1.605v1.646l1.8-.857v-1.646l-1.8.857m-.3 2.395a.314.314 0 01-.158-.042.286.286 0 01-.142-.244v-2.285c0-.108.064-.207.166-.256l2.4-1.143a.314.314 0 01.292.012.285.285 0 01.142.244v2.285a.286.286 0 01-.166.256l-2.4 1.143-.134.03m6.3-13.395v1.647l1.8-.858v-1.646l-1.8.857m-.3 2.395a.314.314 0 01-.158-.042.286.286 0 01-.142-.244v-2.285c0-.108.064-.207.166-.256l2.4-1.142a.311.311 0 01.292.012.284.284 0 01.142.243v2.286a.284.284 0 01-.166.255l-2.4 1.143-.134.03m.3 1.605v1.647l1.8-.858v-1.646l-1.8.857m-.3 2.395a.314.314 0 01-.158-.042.286.286 0 01-.142-.244v-2.285c0-.109.064-.207.166-.256l2.4-1.142a.311.311 0 01.292.012.284.284 0 01.142.243v2.286a.284.284 0 01-.166.255l-2.4 1.143-.134.03m.3 1.605v1.646l1.8-.857v-1.646l-1.8.857m-.3 2.395a.314.314 0 01-.158-.042.286.286 0 01-.142-.244v-2.285c0-.108.064-.207.166-.256l2.4-1.143a.314.314 0 01.292.012.285.285 0 01.142.244v2.285a.286.286 0 01-.166.256l-2.4 1.143-.134.03"/><path fill="#2E2E2E" d="M127.743 135l-.114-.026-19.487-9.5a.248.248 0 01-.115-.336.26.26 0 01.344-.112l19.487 9.5a.248.248 0 01.115.336.259.259 0 01-.23.138m2-3l-.114-.026-19.487-9.5a.248.248 0 01-.115-.336.26.26 0 01.344-.112l19.487 9.5a.248.248 0 01.115.336.259.259 0 01-.23.138M41 130.006v18.665l23-11.677v-18.665l-23 11.677zM40.5 150a.499.499 0 01-.263-.076.511.511 0 01-.237-.432v-19.8a.51.51 0 01.276-.454l24-12.185a.495.495 0 01.487.023.51.51 0 01.237.432v19.8a.51.51 0 01-.276.454l-24 12.185a.508.508 0 01-.224.053z"/><path fill="#2E2E2E" d="M33 145.093l7 3.571v-18.757l-7-3.571v18.757zM40.5 150a.496.496 0 01-.224-.054l-8-4.081a.513.513 0 01-.276-.457V125.51c0-.177.09-.341.237-.434a.49.49 0 01.486-.022l8 4.081c.17.087.277.263.277.457v19.898c0 .177-.09.34-.237.434a.499.499 0 01-.263.076z"/><path fill="#2E2E2E" d="M41.5 130a.5.5 0 01-.223-.052l-8-4a.5.5 0 01.446-.895l7.777 3.888 23.776-11.888a.5.5 0 11.447.894l-24 12a.485.485 0 01-.223.053m-.123 16l-.114-.028-8.123-4.16a.263.263 0 01-.113-.349.25.25 0 01.34-.115l8.01 4.1 24.255-12.42a.25.25 0 01.341.115.264.264 0 01-.113.35l-24.37 12.48-.113.027"/><path fill="#2E2E2E" d="M41.377 144l-.114-.028-8.123-4.16a.263.263 0 01-.113-.349.251.251 0 01.34-.116l8.01 4.102 24.255-12.422a.253.253 0 01.341.116.264.264 0 01-.113.35l-24.37 12.48-.113.027"/><path fill="#2E2E2E" d="M41.377 141l-.114-.028-8.123-4.16a.263.263 0 01-.113-.349.25.25 0 01.34-.115l8.01 4.1 24.255-12.42a.25.25 0 01.341.115.264.264 0 01-.113.35l-24.37 12.48-.113.027"/><path fill="#2E2E2E" d="M41.377 139l-.114-.028-8.123-4.16a.263.263 0 01-.113-.349.251.251 0 01.34-.116l8.01 4.102 24.255-12.422a.253.253 0 01.341.116.264.264 0 01-.113.35l-24.37 12.48-.113.027"/><path fill="#2E2E2E" d="M41.377 136l-.114-.028-8.123-4.16a.263.263 0 01-.113-.349.25.25 0 01.34-.115l8.01 4.1 24.255-12.42a.25.25 0 01.341.115.264.264 0 01-.113.35l-24.37 12.48-.113.027"/><path fill="#2E2E2E" d="M41.377 134l-.114-.028-8.123-4.16a.263.263 0 01-.113-.349.25.25 0 01.34-.115l8.01 4.1 24.255-12.42a.25.25 0 01.341.115.264.264 0 01-.113.35l-24.37 12.48-.113.027m-7.877-8a.499.499 0 01-.223-.948l24-12a.5.5 0 01.446 0l8 4a.5.5 0 01-.446.896l-7.777-3.889-23.776 11.889a.496.496 0 01-.223.052"/><path fill="#2E2E2E" d="M44.5 134c-.276 0-.5-.112-.5-.25v-1.5c0-.138.224-.25.5-.25s.5.112.5.25v1.5c0 .138-.224.25-.5.25m-6 1c-.276 0-.5-.112-.5-.25v-1.5c0-.138.224-.25.5-.25s.5.112.5.25v1.5c0 .138-.224.25-.5.25m-3-2c-.276 0-.5-.112-.5-.25v-1.5c0-.138.224-.25.5-.25s.5.112.5.25v1.5c0 .138-.224.25-.5.25m3 7c-.276 0-.5-.112-.5-.25v-1.5c0-.138.224-.25.5-.25s.5.112.5.25v1.5c0 .138-.224.25-.5.25m-3-2c-.276 0-.5-.112-.5-.25v-1.5c0-.138.224-.25.5-.25s.5.112.5.25v1.5c0 .138-.224.25-.5.25m3 7c-.276 0-.5-.112-.5-.25v-1.5c0-.138.224-.25.5-.25s.5.112.5.25v1.5c0 .138-.224.25-.5.25m-3-2c-.276 0-.5-.112-.5-.25v-1.5c0-.138.224-.25.5-.25s.5.112.5.25v1.5c0 .138-.224.25-.5.25m11-10c-.276 0-.5-.112-.5-.25v-1.5c0-.138.224-.25.5-.25s.5.112.5.25v1.5c0 .138-.224.25-.5.25m3-1c-.276 0-.5-.112-.5-.25v-1.5c0-.138.224-.25.5-.25s.5.112.5.25v1.5c0 .138-.224.25-.5.25m2-1c-.276 0-.5-.112-.5-.25v-1.5c0-.138.224-.25.5-.25s.5.112.5.25v1.5c0 .138-.224.25-.5.25m3-2c-.276 0-.5-.112-.5-.25v-1.5c0-.138.224-.25.5-.25s.5.112.5.25v1.5c0 .138-.224.25-.5.25m2-1c-.276 0-.5-.112-.5-.25v-1.5c0-.138.224-.25.5-.25s.5.112.5.25v1.5c0 .138-.224.25-.5.25m3-1c-.276 0-.5-.112-.5-.25v-1.5c0-.138.224-.25.5-.25s.5.112.5.25v1.5c0 .138-.224.25-.5.25m2-1c-.276 0-.5-.112-.5-.25v-1.5c0-.138.224-.25.5-.25s.5.112.5.25v1.5c0 .138-.224.25-.5.25m-17 13c-.276 0-.5-.112-.5-.25v-1.5c0-.138.224-.25.5-.25s.5.112.5.25v1.5c0 .138-.224.25-.5.25m2-1c-.276 0-.5-.112-.5-.25v-1.5c0-.138.224-.25.5-.25s.5.112.5.25v1.5c0 .138-.224.25-.5.25m3-1c-.276 0-.5-.112-.5-.25v-1.5c0-.138.224-.25.5-.25s.5.112.5.25v1.5c0 .138-.224.25-.5.25m2-1c-.276 0-.5-.112-.5-.25v-1.5c0-.138.224-.25.5-.25s.5.112.5.25v1.5c0 .138-.224.25-.5.25m3-2c-.276 0-.5-.112-.5-.25v-1.5c0-.138.224-.25.5-.25s.5.112.5.25v1.5c0 .138-.224.25-.5.25m2-1c-.276 0-.5-.112-.5-.25v-1.5c0-.138.224-.25.5-.25s.5.112.5.25v1.5c0 .138-.224.25-.5.25m3-1c-.276 0-.5-.112-.5-.25v-1.5c0-.138.224-.25.5-.25s.5.112.5.25v1.5c0 .138-.224.25-.5.25m2-1c-.276 0-.5-.112-.5-.25v-1.5c0-.138.224-.25.5-.25s.5.112.5.25v1.5c0 .138-.224.25-.5.25m-17 13c-.276 0-.5-.112-.5-.25v-1.5c0-.138.224-.25.5-.25s.5.112.5.25v1.5c0 .138-.224.25-.5.25m2-1c-.276 0-.5-.112-.5-.25v-1.5c0-.138.224-.25.5-.25s.5.112.5.25v1.5c0 .138-.224.25-.5.25m3-1c-.276 0-.5-.112-.5-.25v-1.5c0-.138.224-.25.5-.25s.5.112.5.25v1.5c0 .138-.224.25-.5.25m2-1c-.276 0-.5-.112-.5-.25v-1.5c0-.138.224-.25.5-.25s.5.112.5.25v1.5c0 .138-.224.25-.5.25m3-2c-.276 0-.5-.112-.5-.25v-1.5c0-.138.224-.25.5-.25s.5.112.5.25v1.5c0 .138-.224.25-.5.25m2-1c-.276 0-.5-.112-.5-.25v-1.5c0-.138.224-.25.5-.25s.5.112.5.25v1.5c0 .138-.224.25-.5.25m3-1c-.276 0-.5-.112-.5-.25v-1.5c0-.138.224-.25.5-.25s.5.112.5.25v1.5c0 .138-.224.25-.5.25m2-1c-.276 0-.5-.112-.5-.25v-1.5c0-.138.224-.25.5-.25s.5.112.5.25v1.5c0 .138-.224.25-.5.25m-16.767-8l-.12-.027-7.466-3.5a.243.243 0 01-.119-.335.276.276 0 01.358-.112l7.467 3.5a.244.244 0 01.119.336.27.27 0 01-.239.138m6.002-3l-.118-.03-8.47-4.444c-.132-.069-.184-.236-.119-.373s.225-.192.355-.124l8.47 4.445a.284.284 0 01.119.373.266.266 0 01-.237.153m6-3l-.118-.03-8.47-4.444a.284.284 0 01-.119-.373.26.26 0 01.355-.124l8.47 4.445a.284.284 0 01.119.373.266.266 0 01-.237.153m6-3l-.118-.03-8.47-4.444c-.132-.068-.184-.236-.119-.373s.225-.192.355-.124l8.47 4.445a.284.284 0 01.119.373.266.266 0 01-.237.153m47.775 4a.49.49 0 01-.218-.051l-8.022-4.02a.491.491 0 01.438-.877l8.022 4.02a.49.49 0 01-.219.928m-45.037-2a.473.473 0 01-.214-.893l6.051-3.056a.471.471 0 11.428.842l-6.05 3.056a.485.485 0 01-.215.051"/><path fill="#2E2E2E" d="M86.5 176c-1.37 0-2.74-.268-3.807-.805l-58.932-29.63c-1.136-.57-1.761-1.369-1.761-2.251 0-.881.625-1.681 1.761-2.252l8.836-4.442c.249-.125.549-.024.672.225s.023.551-.224.676l-8.836 4.442c-.767.385-1.208.878-1.208 1.351s.44.966 1.208 1.352l58.932 29.629c1.852.932 4.866.932 6.718 0l58.932-29.63c.767-.385 1.208-.878 1.208-1.35 0-.474-.44-.967-1.208-1.352l-9.96-5.008a.505.505 0 01-.224-.676.5.5 0 01.672-.225l9.96 5.008c1.136.57 1.761 1.371 1.761 2.252 0 .881-.625 1.681-1.761 2.253l-58.932 29.629c-1.067.537-2.437.805-3.807.805m152-.001c-1.37 0-2.74-.266-3.807-.8l-58.933-29.45c-1.136-.568-1.761-1.362-1.761-2.238 0-.876.625-1.671 1.761-2.239l9.485-4.739a.5.5 0 01.448.895l-9.485 4.74c-.767.383-1.208.873-1.208 1.343s.44.96 1.208 1.343l58.932 29.448c1.852.926 4.866.926 6.718 0l58.932-29.448c.767-.383 1.208-.873 1.208-1.343s-.44-.96-1.208-1.343l-22.414-11.221a.5.5 0 11.449-.895l22.413 11.22c1.136.568 1.761 1.363 1.761 2.239 0 .876-.625 1.67-1.761 2.238l-58.931 29.45c-1.067.533-2.437.8-3.807.8m32.005-50a.49.49 0 01-.22-.052l-8.011-4.01a.495.495 0 01.442-.886l8.01 4.01a.495.495 0 01-.221.938m-15.015-7a.514.514 0 01-.228-.053l-12.664-6.247c-1.29-.637-3.254-.858-5.002-.564a.51.51 0 01-.589-.411.504.504 0 01.417-.58c1.978-.333 4.136-.082 5.63.655l12.664 6.247a.5.5 0 01.228.675.513.513 0 01-.457.278m-45.981 6a.512.512 0 01-.454-.259c-.126-.23-.024-.511.226-.627l10.986-5.064a.527.527 0 01.68.21c.126.23.024.51-.227.627l-10.985 5.064a.548.548 0 01-.226.049M188.5 86a.505.505 0 01-.222-.052l-6-2.996a.502.502 0 01.444-.899l6 2.994a.504.504 0 01-.222.953m-38.98-7a.516.516 0 01-.233-.978l5.962-2.967a.516.516 0 11.464.923l-5.962 2.968a.535.535 0 01-.231.054m-26.036 13a.481.481 0 01-.433-.298c-.12-.266-.022-.59.217-.723l7.033-3.922c.239-.134.529-.024.648.241.12.267.023.59-.216.724l-7.033 3.92a.43.43 0 01-.216.058m-23.963 12a.558.558 0 01-.399-.161c-.185-.191-.156-.476.064-.636.246-.18.465-.3.835-.46l6.224-2.695c.258-.112.572-.021.7.202.129.223.024.494-.233.605l-6.225 2.695c-.296.128-.45.212-.63.344a.58.58 0 01-.336.106m63.277 34c-1.364 0-2.727-.27-3.79-.808l-56.732-28.755a.508.508 0 01-.223-.678.496.496 0 01.669-.226l56.732 28.755c1.844.935 4.844.935 6.687 0l58.66-29.731c.764-.387 1.202-.882 1.202-1.356 0-.475-.438-.97-1.202-1.357l-11.615-5.886a.508.508 0 01-.223-.679.494.494 0 01.668-.225l11.616 5.886c1.13.574 1.753 1.376 1.753 2.26 0 .885-.623 1.687-1.753 2.26l-58.66 29.732c-1.062.539-2.426.808-3.79.808m-.297 76c-1.37 0-2.74-.265-3.807-.798L99.76 183.845c-1.136-.567-1.761-1.359-1.761-2.232 0-.873.625-1.665 1.761-2.232l32.87-16.375a.502.502 0 01.672.223.498.498 0 01-.224.67l-32.87 16.375c-.767.383-1.208.87-1.208 1.339 0 .468.44.956 1.208 1.34l58.932 29.357c1.852.923 4.866.923 6.718 0l58.932-29.358c.767-.383 1.208-.87 1.208-1.339s-.44-.956-1.208-1.34l-40.807-20.328a.497.497 0 01-.224-.67.502.502 0 01.672-.222l40.807 20.328c1.136.567 1.761 1.359 1.761 2.232 0 .873-.625 1.665-1.761 2.232l-58.932 29.357c-1.067.532-2.437.798-3.807.798"/><path fill="#2E2E2E" d="M134.501 164c-.183 0-.36-.1-.448-.274a.493.493 0 01.224-.665l24.76-12.268c2.133-1.057 5.473-1.057 7.606 0l13.08 6.48c.248.123.348.42.224.666a.504.504 0 01-.671.222l-13.08-6.482c-1.85-.917-4.86-.917-6.711 0l-24.76 12.269a.517.517 0 01-.224.052M67 162.077l9 4.588v-18.742l-9-4.588v18.742zM76.5 168a.493.493 0 01-.224-.054l-10-5.098a.511.511 0 01-.276-.456V142.51c0-.177.09-.341.237-.434a.49.49 0 01.486-.022l10 5.098a.51.51 0 01.277.456v19.882c0 .177-.09.34-.237.434a.496.496 0 01-.263.076zM87 147.937v18.73l11-5.605v-18.728l-11 5.603zM86.5 168a.49.49 0 01-.263-.076.513.513 0 01-.237-.433v-19.868a.51.51 0 01.276-.456l12-6.114a.495.495 0 01.487.023.51.51 0 01.237.433v19.868c0 .193-.107.37-.276.456l-12 6.114a.508.508 0 01-.224.053z"/><path fill="#2E2E2E" d="M77 166.976h9v-18.952h-9v18.952zM86.5 168h-10a.506.506 0 01-.5-.512v-19.976c0-.283.224-.512.5-.512h10c.276 0 .5.229.5.512v19.976a.506.506 0 01-.5.512z"/><path fill="#2E2E2E" d="M76.618 147.966h9.764l11.015-5.698-13.404-7.172-16.362 8.222 8.987 4.648M86.5 149h-10a.497.497 0 01-.224-.054l-10-5.173a.52.52 0 01-.276-.466.519.519 0 01.282-.462l17.5-8.793a.486.486 0 01.448.005l14.5 7.759c.166.09.271.269.27.463a.519.519 0 01-.277.46l-12 6.207a.496.496 0 01-.223.054"/><path fill="#2E2E2E" d="M86.562 152H76.408l-.115-.029-10.154-5.348a.27.27 0 01-.112-.355.252.252 0 01.342-.117l10.1 5.32H86.5l12.13-6.442a.249.249 0 01.341.115.27.27 0 01-.11.355l-12.185 6.472-.115.029"/><path fill="#2E2E2E" d="M86.562 155H76.408l-.115-.029-10.154-5.348a.27.27 0 01-.112-.355.251.251 0 01.342-.117l10.1 5.32H86.5l12.13-6.442a.249.249 0 01.341.115.27.27 0 01-.11.355l-12.185 6.472-.115.029"/><path fill="#2E2E2E" d="M86.562 158H76.408l-.115-.029-10.154-5.349a.27.27 0 01-.112-.355.25.25 0 01.342-.116l10.1 5.32H86.5l12.13-6.442a.248.248 0 01.341.115.27.27 0 01-.11.355l-12.185 6.472-.115.029"/><path fill="#2E2E2E" d="M86.562 161H76.408l-.115-.029-10.154-5.348a.27.27 0 01-.112-.355.251.251 0 01.342-.117l10.1 5.32H86.5l12.13-6.442a.249.249 0 01.341.115.27.27 0 01-.11.355l-12.185 6.472-.115.029"/><path fill="#2E2E2E" d="M86.562 164H76.408l-.115-.029-10.154-5.348a.27.27 0 01-.112-.355.251.251 0 01.342-.117l10.1 5.32H86.5l12.13-6.442a.249.249 0 01.341.115.27.27 0 01-.11.355l-12.185 6.472-.115.029M74.5 140.053c-.798 0-1.447.649-1.447 1.447s.649 1.447 1.447 1.447 1.447-.649 1.447-1.447-.649-1.447-1.447-1.447zm0 3.947c-1.378 0-2.5-1.122-2.5-2.5s1.122-2.5 2.5-2.5 2.5 1.122 2.5 2.5-1.122 2.5-2.5 2.5z"/><path fill="#2E2E2E" d="M74.5 145a.5.5 0 01-.5-.5v-1a.5.5 0 011 0v1a.5.5 0 01-.5.5m7-3.947c-.798 0-1.447.649-1.447 1.447s.649 1.447 1.447 1.447 1.447-.649 1.447-1.447-.649-1.447-1.447-1.447zm0 3.947c-1.378 0-2.5-1.122-2.5-2.5s1.122-2.5 2.5-2.5 2.5 1.122 2.5 2.5-1.122 2.5-2.5 2.5zm0 2a.5.5 0 01-.5-.5v-1a.5.5 0 011 0v1a.5.5 0 01-.5.5m5-9.947c-.798 0-1.447.649-1.447 1.447s.649 1.447 1.447 1.447 1.447-.649 1.447-1.447-.649-1.447-1.447-1.447zm0 3.947c-1.378 0-2.5-1.122-2.5-2.5s1.122-2.5 2.5-2.5 2.5 1.122 2.5 2.5-1.122 2.5-2.5 2.5z"/><path fill="#2E2E2E" d="M86.5 142a.5.5 0 01-.5-.5v-1a.5.5 0 011 0v1a.5.5 0 01-.5.5m-28 4.047c-1.904 0-3.453 1.549-3.453 3.453s1.55 3.453 3.453 3.453c1.904 0 3.453-1.549 3.453-3.453s-1.549-3.453-3.453-3.453zm0 7.953c-2.481 0-4.5-2.018-4.5-4.5s2.019-4.5 4.5-4.5c2.482 0 4.5 2.018 4.5 4.5s-2.018 4.5-4.5 4.5zm0 3a.5.5 0 01-.5-.5v-2a.5.5 0 011 0v2a.5.5 0 01-.5.5m46-9.953c-1.904 0-3.453 1.549-3.453 3.453s1.55 3.453 3.453 3.453c1.904 0 3.453-1.549 3.453-3.453s-1.549-3.453-3.453-3.453zm0 7.953c-2.481 0-4.5-2.018-4.5-4.5s2.019-4.5 4.5-4.5c2.482 0 4.5 2.018 4.5 4.5s-2.018 4.5-4.5 4.5z"/><path fill="#2E2E2E" d="M104.5 157a.5.5 0 01-.5-.5v-2a.5.5 0 011 0v2a.5.5 0 01-.5.5m19-53.953c-1.904 0-3.453 1.549-3.453 3.453s1.55 3.453 3.453 3.453c1.904 0 3.453-1.549 3.453-3.453s-1.549-3.453-3.453-3.453zm0 7.953c-2.481 0-4.5-2.018-4.5-4.5s2.019-4.5 4.5-4.5c2.482 0 4.5 2.018 4.5 4.5s-2.018 4.5-4.5 4.5zm0 3a.5.5 0 01-.5-.5v-2a.5.5 0 011 0v2a.5.5 0 01-.5.5m31 5.047c-1.904 0-3.453 1.549-3.453 3.453s1.55 3.453 3.453 3.453c1.904 0 3.453-1.549 3.453-3.453s-1.549-3.453-3.453-3.453zm0 7.953c-2.481 0-4.5-2.018-4.5-4.5s2.019-4.5 4.5-4.5c2.482 0 4.5 2.018 4.5 4.5s-2.018 4.5-4.5 4.5z"/><path fill="#2E2E2E" d="M154.5 129a.5.5 0 01-.5-.5v-2a.5.5 0 011 0v2a.5.5 0 01-.5.5m33-24.953c-1.904 0-3.453 1.549-3.453 3.453s1.549 3.453 3.453 3.453 3.453-1.549 3.453-3.453-1.549-3.453-3.453-3.453zm0 7.953c-2.481 0-4.5-2.018-4.5-4.5s2.019-4.5 4.5-4.5c2.482 0 4.5 2.018 4.5 4.5s-2.018 4.5-4.5 4.5z"/><path fill="#2E2E2E" d="M187.5 114a.5.5 0 01-.5-.5v-2a.5.5 0 011 0v2a.5.5 0 01-.5.5m-114 10.047c-1.904 0-3.453 1.549-3.453 3.453s1.55 3.453 3.453 3.453c1.904 0 3.453-1.549 3.453-3.453s-1.549-3.453-3.453-3.453zm0 7.953c-2.481 0-4.5-2.018-4.5-4.5s2.019-4.5 4.5-4.5c2.482 0 4.5 2.018 4.5 4.5s-2.018 4.5-4.5 4.5z"/><path fill="#2E2E2E" d="M73.5 134a.5.5 0 01-.5-.5v-2a.5.5 0 011 0v2a.5.5 0 01-.5.5"/><g transform="translate(236 126)"><mask id="c7uh19iflw" fill="#fff"><use xlink:href="#cqle6s26hu"/></mask><path fill="url(#g4qkt2uvyv)" d="M0 8l13.924-6.545V0l2.762 1.238c.18.085.32.235.314.383v-.018c-.006-.142-.141-.284-.314-.365L13.924 0v1.455L0 8" mask="url(#c7uh19iflw)"/></g><path fill="#2E2E2E" d="M221 126.691l14 7v-8.382l-14-7v8.382M235.5 135a.504.504 0 01-.224-.052l-15-7.5A.503.503 0 01220 127v-9.5a.5.5 0 01.724-.447l15 7.5A.499.499 0 01236 125v9.5a.5.5 0 01-.5.5m8-18a.465.465 0 01-.224-.056l-15-7.94a.546.546 0 01-.223-.711.486.486 0 01.67-.237l15 7.94c.247.132.348.45.224.711a.497.497 0 01-.448.293"/><path fill="#2E2E2E" d="M236.034 125.244v8.442l12.932-6.437v-8.746l-6.013-1.448-6.919 8.189zm-.517 9.756a.528.528 0 01-.269-.073.494.494 0 01-.248-.424v-9.435c0-.114.04-.225.116-.313l7.242-8.572a.528.528 0 01.527-.168l6.723 1.618c.23.056.392.254.392.482v9.436a.493.493 0 01-.28.44l-13.965 6.953a.524.524 0 01-.238.056z"/><path fill="#2E2E2E" d="M249.49 118a.508.508 0 01-.226-.052l-15.205-7.38-6.24-1.52-6.916 8.276a.518.518 0 01-.715.072.483.483 0 01-.074-.694l7.119-8.52a.518.518 0 01.518-.167l6.61 1.609.103.037 15.254 7.404a.486.486 0 01.228.662.512.512 0 01-.455.273"/><path fill="#2E2E2E" d="M224.267 119a.275.275 0 01-.168-.055.233.233 0 01-.04-.346l7.467-8.508a.282.282 0 01.375-.036.235.235 0 01.04.347l-7.467 8.506a.273.273 0 01-.207.092m3 1a.275.275 0 01-.168-.055.233.233 0 01-.04-.346l7.467-8.508a.281.281 0 01.375-.036.235.235 0 01.04.347l-7.467 8.506a.273.273 0 01-.207.092m3 2a.275.275 0 01-.168-.055.233.233 0 01-.04-.346l7.467-8.508a.281.281 0 01.375-.036.235.235 0 01.04.347l-7.467 8.506a.273.273 0 01-.207.092m3 1a.275.275 0 01-.168-.055.233.233 0 01-.04-.346l7.467-8.508a.282.282 0 01.375-.036.235.235 0 01.04.347l-7.467 8.506a.273.273 0 01-.207.092"/><path fill="#2E2E2E" d="M236.742 125l-.116-.027-15.484-7.5a.248.248 0 01-.115-.336.264.264 0 01.347-.111l15.484 7.5a.248.248 0 01.115.336.262.262 0 01-.231.138m3-4l-.116-.027-15.484-7.5a.247.247 0 01-.115-.335.264.264 0 01.347-.112l15.484 7.5a.248.248 0 01.115.336.262.262 0 01-.231.138m3-5l-.116-.027-15.484-7.5a.247.247 0 01-.115-.335.263.263 0 01.347-.112l15.484 7.5a.248.248 0 01.115.336.262.262 0 01-.231.138m-20.171 8.15l2.858 1.226v-2.526l-2.858-1.226v2.526zm3.143 1.85l-.131-.026-3.429-1.47c-.095-.042-.154-.122-.154-.21v-3.058a.23.23 0 01.137-.202.346.346 0 01.28-.008l3.429 1.47c.095.041.154.122.154.21v3.058a.23.23 0 01-.137.202l-.149.034zm4.857 2.15l2.858 1.226v-2.526l-2.858-1.226v2.526zm3.143 1.85l-.131-.026-3.429-1.47c-.095-.042-.154-.122-.154-.21v-3.058a.23.23 0 01.137-.202.346.346 0 01.28-.008l3.429 1.47c.095.041.154.122.154.21v3.058a.23.23 0 01-.137.202l-.149.034zm4.857-3.15v2.526l2.858-1.226v-2.526l-2.858 1.226zm-.285 3.15l-.149-.034c-.085-.043-.137-.12-.137-.202v-3.058c0-.088.06-.169.154-.21l3.429-1.47a.346.346 0 01.28.008c.085.043.137.12.137.202v3.058c0 .088-.06.168-.154.21l-3.429 1.47-.131.026zm5.285-6.15v2.526l2.858-1.226v-2.526l-2.858 1.226zm-.285 3.15l-.149-.034c-.085-.043-.137-.12-.137-.202v-3.058c0-.088.06-.169.154-.21l3.429-1.47a.346.346 0 01.28.008c.085.043.137.12.137.202v3.058c0 .088-.06.168-.154.21l-3.429 1.47-.131.026z"/><g transform="translate(218 143)"><mask id="kasuim6rfz" fill="#fff"><use xlink:href="#98s6imxjkx"/></mask><path fill="url(#q82gwno3py)" d="M4 2v-.003c0-.083-.096-.173-.233-.238L0 0l3.767 1.759c.139.066.234.157.233.241" mask="url(#kasuim6rfz)"/></g><path fill="#2E2E2E" d="M186 144.248l15 7.445v-13.942l-15-7.445v13.942M201.5 153a.51.51 0 01-.222-.052l-16-7.942a.5.5 0 01-.278-.448V129.5a.5.5 0 01.722-.448l16 7.941c.17.085.278.258.278.448V152.5a.5.5 0 01-.5.5"/><path fill="#2E2E2E" d="M202 137.751v13.942l15-7.445v-13.942l-15 7.445M201.5 153a.498.498 0 01-.5-.5v-15.059a.5.5 0 01.278-.448l16-7.94a.498.498 0 01.722.447v15.058c0 .19-.107.364-.278.448l-16 7.942a.51.51 0 01-.222.052"/><path fill="#2E2E2E" d="M186.567 129.501l14.903 7.428 14.963-7.43-14.903-7.427-14.963 7.43M201.48 138a.443.443 0 01-.201-.047l-16-7.974a.502.502 0 01-.278-.45v-.058c0-.191.108-.366.279-.45l15.905-7.898.053-.038a.496.496 0 01.485-.038l16 7.974c.17.085.278.26.278.45v.059a.502.502 0 01-.279.45l-15.905 7.897-.053.039a.543.543 0 01-.284.084m-12.909-1.078l2.858 1.363v-3.207l-2.858-1.364v3.208zm3.143 2.078l-.128-.029-3.428-1.636a.272.272 0 01-.158-.244v-3.818a.27.27 0 01.135-.232.3.3 0 01.279-.012l3.428 1.636a.273.273 0 01.158.244v3.818a.273.273 0 01-.135.233.306.306 0 01-.15.04zm3.857 1.922l2.858 1.363v-3.207l-2.858-1.364v3.208zm3.143 2.078l-.128-.029-3.428-1.636a.273.273 0 01-.158-.244v-3.818c0-.095.051-.182.135-.233a.3.3 0 01.279-.011l3.428 1.636a.273.273 0 01.158.244v3.818a.273.273 0 01-.135.233.306.306 0 01-.15.04zm-10.143-.078l2.858 1.363v-3.207l-2.858-1.364v3.208zm3.143 2.078l-.128-.029-3.428-1.636a.272.272 0 01-.158-.244v-3.818a.27.27 0 01.135-.232.3.3 0 01.279-.012l3.428 1.636a.273.273 0 01.158.244v3.818a.273.273 0 01-.135.233.306.306 0 01-.15.04zm3.857 1.922l2.858 1.363v-3.207l-2.858-1.364v3.208zm3.143 2.078l-.128-.029-3.428-1.636a.272.272 0 01-.158-.244v-3.818a.27.27 0 01.135-.232.3.3 0 01.279-.012l3.428 1.636a.273.273 0 01.158.244v3.818a.273.273 0 01-.135.233.306.306 0 01-.15.04zm12.857-13.922v3.208l2.858-1.364v-3.207l-2.858 1.363zm-.285 3.922a.3.3 0 01-.15-.04.27.27 0 01-.136-.233v-3.818a.27.27 0 01.158-.243l3.428-1.637a.297.297 0 01.279.012.27.27 0 01.135.232v3.818a.272.272 0 01-.158.244l-3.428 1.636-.128.029zm-6.715.078v3.208l2.858-1.364v-3.208l-2.858 1.364zm-.285 3.922a.3.3 0 01-.15-.04.27.27 0 01-.136-.233v-3.818a.27.27 0 01.158-.243l3.428-1.637a.297.297 0 01.279.012.27.27 0 01.135.232v3.818a.273.273 0 01-.158.244l-3.428 1.636-.128.029zm7.285-2.095v5.44l2.858-1.25v-5.44l-2.858 1.25zm-.285 6.095a.309.309 0 01-.15-.037.245.245 0 01-.136-.213v-6a.25.25 0 01.158-.223l3.428-1.5a.321.321 0 01.279.01.245.245 0 01.135.213v6a.25.25 0 01-.158.224l-3.428 1.5-.128.026zm-6.715-1.922v3.207l2.858-1.363v-3.208l-2.858 1.364zm-.285 3.922a.3.3 0 01-.15-.04.27.27 0 01-.136-.233v-3.818c0-.103.061-.197.158-.244l3.428-1.636a.3.3 0 01.279.012.27.27 0 01.135.232v3.818a.273.273 0 01-.158.244l-3.428 1.636-.128.029z"/><path fill="#2E2E2E" d="M213.5 147c-.276 0-.5-.12-.5-.27v-6.46c0-.15.224-.27.5-.27s.5.12.5.27v6.46c0 .15-.224.27-.5.27m-18-18.947c-.798 0-1.447.649-1.447 1.447s.649 1.447 1.447 1.447 1.447-.649 1.447-1.447-.649-1.447-1.447-1.447zm0 3.947c-1.378 0-2.5-1.122-2.5-2.5s1.122-2.5 2.5-2.5 2.5 1.122 2.5 2.5-1.122 2.5-2.5 2.5z"/><path fill="#2E2E2E" d="M195.5 133a.5.5 0 01-.5-.5v-1a.5.5 0 011 0v1a.5.5 0 01-.5.5m6-8.947c-.798 0-1.447.649-1.447 1.447s.649 1.447 1.447 1.447 1.447-.649 1.447-1.447-.649-1.447-1.447-1.447zm0 3.947c-1.378 0-2.5-1.122-2.5-2.5s1.122-2.5 2.5-2.5 2.5 1.122 2.5 2.5-1.122 2.5-2.5 2.5z"/><path fill="#2E2E2E" d="M201.5 129a.5.5 0 01-.5-.5v-1a.5.5 0 011 0v1a.5.5 0 01-.5.5m5-.947c-.798 0-1.447.649-1.447 1.447s.649 1.447 1.447 1.447 1.447-.649 1.447-1.447-.649-1.447-1.447-1.447zm0 3.947c-1.378 0-2.5-1.122-2.5-2.5s1.122-2.5 2.5-2.5 2.5 1.122 2.5 2.5-1.122 2.5-2.5 2.5z"/><path fill="#2E2E2E" d="M206.5 133a.5.5 0 01-.5-.5v-1a.5.5 0 011 0v1a.5.5 0 01-.5.5m15.5 29.301l13 6.403V161.7l-13-6.403v7.005zM235.5 170a.496.496 0 01-.222-.052l-14-6.895a.495.495 0 01-.278-.444v-8.113a.498.498 0 01.722-.444l14 6.895c.17.083.278.256.278.444v8.113a.497.497 0 01-.5.496z"/><path fill="#2E2E2E" d="M235.515 170a.534.534 0 01-.274-.076.497.497 0 01-.241-.423v-8.041c0-.276.23-.499.515-.499.285 0 .515.223.515.499v7.248l14.94-6.95v-15.26c0-.275.23-.498.515-.498.285 0 .515.223.515.499v15.573a.5.5 0 01-.292.45l-15.97 7.429a.525.525 0 01-.223.049"/><path fill="#2E2E2E" d="M235.738 162a.513.513 0 01-.364-.15.49.49 0 01.009-.703l15.243-14.604-13.267-6.444-15.496 14.847a.513.513 0 01-.718-.007.488.488 0 01.008-.702l15.754-15.095a.516.516 0 01.581-.09l14.23 6.911c.147.072.25.209.276.368a.487.487 0 01-.147.432l-15.754 15.095a.51.51 0 01-.355.142"/><path fill="#2E2E2E" d="M235.741 162l-.115-.028-14.483-7.463a.273.273 0 01-.116-.36.254.254 0 01.347-.121l14.483 7.463c.128.066.18.228.116.36a.256.256 0 01-.232.149m5-6l-.115-.028-14.483-7.463a.273.273 0 01-.116-.36.255.255 0 01.347-.121l14.483 7.463c.128.066.18.227.116.36a.256.256 0 01-.232.149m5-5l-.115-.028-14.483-7.463a.273.273 0 01-.116-.36.254.254 0 01.347-.121l14.483 7.463c.128.066.18.228.116.36a.256.256 0 01-.232.149m6-5l-.115-.028-14.483-7.463a.273.273 0 01-.116-.36.254.254 0 01.347-.121l14.483 7.463c.128.066.18.228.116.36a.256.256 0 01-.232.149M224.5 161.591l8 3.765v-2.948l-8-3.764v2.947zm8.25 4.409l-.107-.024-8.5-4a.25.25 0 01-.143-.226v-3.5c0-.086.044-.166.116-.212a.255.255 0 01.24-.015l8.5 4c.088.042.144.13.144.227v3.5a.25.25 0 01-.25.25z"/><path fill="#2E2E2E" d="M227.5 163c-.276 0-.5-.128-.5-.286v-3.428c0-.158.224-.286.5-.286s.5.128.5.286v3.428c0 .158-.224.286-.5.286m2 1c-.276 0-.5-.128-.5-.286v-3.428c0-.158.224-.286.5-.286s.5.128.5.286v3.428c0 .158-.224.286-.5.286m9.024-1.595v2.94l9.952-4.75v-2.94l-9.952 4.75zm-.262 3.595a.27.27 0 01-.138-.037.249.249 0 01-.124-.213v-3.5a.25.25 0 01.145-.223l10.476-5a.268.268 0 01.255.01.249.249 0 01.124.213v3.5a.25.25 0 01-.145.224l-10.476 5-.117.026z"/><path fill="#2E2E2E" d="M243.5 163c-.276 0-.5-.128-.5-.286v-3.428c0-.158.224-.286.5-.286s.5.128.5.286v3.428c0 .158-.224.286-.5.286m2-1c-.276 0-.5-.112-.5-.25v-3.5c0-.138.224-.25.5-.25s.5.112.5.25v3.5c0 .138-.224.25-.5.25m-5 2c-.276 0-.5-.112-.5-.25v-3.5c0-.138.224-.25.5-.25s.5.112.5.25v3.5c0 .138-.224.25-.5.25m-15.25-8a.249.249 0 01-.18-.078.264.264 0 01.006-.365l15.5-15.484c.1-.1.257-.097.353.006a.262.262 0 01-.005.364l-15.5 15.484a.242.242 0 01-.174.073m3 2a.249.249 0 01-.18-.078.264.264 0 01.006-.365l15.5-15.484c.1-.1.257-.097.353.006a.262.262 0 01-.005.364l-15.5 15.484a.242.242 0 01-.174.073m4 2a.249.249 0 01-.18-.078.264.264 0 01.006-.365l15.5-15.484c.1-.1.257-.097.353.006a.262.262 0 01-.005.364l-15.5 15.484a.242.242 0 01-.174.073"/><g transform="translate(274 143)"><mask id="bg6yhbwywC" fill="#fff"><use xlink:href="#2k40hhkg1A"/></mask><path fill="url(#l7ntok95nB)" d="M0 7l11.998-5.986V0l3.737 1.295c.158.078.267.188.265.29v-.004c-.002-.102-.11-.21-.265-.286L11.998 0v1.014L0 7" mask="url(#bg6yhbwywC)"/></g><path fill="#2E2E2E" d="M256 146.301l13 6.403v-7.005l-13-6.403v7.005M269.5 154a.496.496 0 01-.222-.052l-14-6.895a.495.495 0 01-.278-.444v-8.113a.497.497 0 01.722-.444l14 6.895c.17.083.278.255.278.444v8.113a.497.497 0 01-.5.496"/><path fill="#2E2E2E" d="M269.029 145.451v7.203l15.942-8.105v-7.203l-15.942 8.105zm-.515 8.549a.515.515 0 01-.514-.511v-8.35c0-.192.108-.367.28-.455l16.971-8.628a.518.518 0 01.749.455v8.35a.508.508 0 01-.28.454l-16.971 8.629a.524.524 0 01-.235.056z"/><path fill="#2E2E2E" d="M268.828 145a.514.514 0 01-.23-.053l-14.318-7.115a.496.496 0 01-.007-.889l8.255-4.228V128.5c0-.276.227-.5.509-.5.281 0 .509.224.509.5v4.517a.5.5 0 01-.274.444l-7.649 3.918 13.2 6.558 15.543-8.034-6.28-3.017a.498.498 0 01-.285-.448V128.5c0-.276.227-.5.509-.5.281 0 .509.224.509.5v3.626l6.896 3.311a.5.5 0 01.285.442.5.5 0 01-.272.45l-16.663 8.614a.52.52 0 01-.237.057"/><path fill="#2E2E2E" d="M264.627 128.76l6.01 3.119 6.753-3.64-5.89-3.118-6.873 3.639zm6.014 4.24a.469.469 0 01-.22-.055l-7.141-3.705a.534.534 0 01-.28-.473.533.533 0 01.277-.476l8-4.235a.472.472 0 01.447 0l7 3.705c.168.09.275.273.276.472 0 .2-.105.384-.274.474l-7.858 4.235a.47.47 0 01-.227.058z"/><path fill="#2E2E2E" d="M270.641 137a.503.503 0 01-.22-.051l-7.14-3.5a.499.499 0 11.44-.898l6.915 3.39 7.637-3.886a.5.5 0 11.453.891l-7.859 4a.495.495 0 01-.226.054"/><path fill="#2E2E2E" d="M270.5 138c-.276 0-.5-.244-.5-.545v-4.91c0-.3.224-.545.5-.545s.5.244.5.545v4.91c0 .3-.224.545-.5.545m-12.929 6.922l2.858 1.363v-3.207l-2.858-1.364v3.208zm3.143 2.078l-.128-.029-3.428-1.636a.273.273 0 01-.158-.244v-3.818c0-.095.051-.182.135-.233a.3.3 0 01.279-.011l3.428 1.636a.273.273 0 01.158.244v3.818a.273.273 0 01-.135.233.306.306 0 01-.15.04zm2.857.922l2.858 1.363v-3.207l-2.858-1.364v3.208zm3.143 2.078l-.128-.029-3.428-1.636a.273.273 0 01-.158-.244v-3.818c0-.095.051-.182.135-.233a.3.3 0 01.279-.011l3.428 1.636a.273.273 0 01.158.244v3.818a.273.273 0 01-.135.233.306.306 0 01-.15.04zm11.857-7.922v3.207l2.858-1.363v-3.208l-2.858 1.364zm-.285 3.922a.3.3 0 01-.15-.04.27.27 0 01-.136-.233v-3.818a.27.27 0 01.158-.243l3.428-1.637a.3.3 0 01.279.012.27.27 0 01.135.232v3.818a.273.273 0 01-.158.244l-3.428 1.636-.128.029zm-5.715-.922v3.207l2.858-1.363v-3.208l-2.858 1.364zm-.285 3.922a.3.3 0 01-.15-.04.27.27 0 01-.136-.233v-3.818c0-.103.061-.197.158-.244l3.428-1.636a.3.3 0 01.279.012.27.27 0 01.135.232v3.818a.273.273 0 01-.158.244l-3.428 1.636-.128.029zm1.214-16.717v2.99l1-.556v-2.99l-1 .556zm-.25 3.717a.233.233 0 01-.131-.041.286.286 0 01-.119-.237v-3.61c0-.106.054-.202.138-.249l1.5-.833a.225.225 0 01.243.011c.074.052.119.14.119.237v3.611a.283.283 0 01-.138.248l-1.5.834-.112.029zm-47.75-2.953c-1.904 0-3.453 1.549-3.453 3.453s1.549 3.453 3.453 3.453 3.453-1.549 3.453-3.453-1.549-3.453-3.453-3.453zm0 7.953c-2.481 0-4.5-2.018-4.5-4.5s2.019-4.5 4.5-4.5c2.482 0 4.5 2.018 4.5 4.5s-2.018 4.5-4.5 4.5z"/><path fill="#2E2E2E" d="M224.5 143a.5.5 0 01-.5-.5v-2a.5.5 0 011 0v2a.5.5 0 01-.5.5m25-10.953c-1.904 0-3.453 1.549-3.453 3.453s1.549 3.453 3.453 3.453 3.453-1.549 3.453-3.453-1.549-3.453-3.453-3.453zm0 7.953c-2.481 0-4.5-2.018-4.5-4.5s2.019-4.5 4.5-4.5c2.482 0 4.5 2.018 4.5 4.5s-2.018 4.5-4.5 4.5z"/><path fill="#2E2E2E" d="M249.5 142a.5.5 0 01-.5-.5v-2a.5.5 0 011 0v2a.5.5 0 01-.5.5m9-24.953c-1.904 0-3.453 1.549-3.453 3.453s1.549 3.453 3.453 3.453 3.453-1.549 3.453-3.453-1.549-3.453-3.453-3.453zm0 7.953c-2.481 0-4.5-2.018-4.5-4.5s2.019-4.5 4.5-4.5c2.482 0 4.5 2.018 4.5 4.5s-2.018 4.5-4.5 4.5z"/><path fill="#2E2E2E" d="M258.5 127a.5.5 0 01-.5-.5v-2a.5.5 0 011 0v2a.5.5 0 01-.5.5m-44 23.047c-1.904 0-3.453 1.549-3.453 3.453s1.549 3.453 3.453 3.453 3.453-1.549 3.453-3.453-1.549-3.453-3.453-3.453zm0 7.953c-2.481 0-4.5-2.018-4.5-4.5s2.019-4.5 4.5-4.5c2.482 0 4.5 2.018 4.5 4.5s-2.018 4.5-4.5 4.5zm-1 3a.5.5 0 01-.5-.5v-2a.5.5 0 011 0v2a.5.5 0 01-.5.5m-56-4.953c-1.904 0-3.453 1.549-3.453 3.453s1.55 3.453 3.453 3.453c1.904 0 3.453-1.549 3.453-3.453s-1.549-3.453-3.453-3.453zm0 7.953c-2.481 0-4.5-2.018-4.5-4.5s2.019-4.5 4.5-4.5c2.482 0 4.5 2.018 4.5 4.5s-2.018 4.5-4.5 4.5zm-1 3a.5.5 0 01-.5-.5v-2a.5.5 0 011 0v2a.5.5 0 01-.5.5m50 7.047c-1.904 0-3.453 1.549-3.453 3.453s1.549 3.453 3.453 3.453 3.453-1.549 3.453-3.453-1.549-3.453-3.453-3.453zm0 7.953c-2.481 0-4.5-2.018-4.5-4.5s2.019-4.5 4.5-4.5c2.482 0 4.5 2.018 4.5 4.5s-2.018 4.5-4.5 4.5z"/><path fill="#2E2E2E" d="M205.5 184a.5.5 0 01-.5-.5v-2a.5.5 0 011 0v2a.5.5 0 01-.5.5m-87-8.953c-1.904 0-3.453 1.549-3.453 3.453s1.55 3.453 3.453 3.453c1.904 0 3.453-1.549 3.453-3.453s-1.549-3.453-3.453-3.453zm0 7.953c-2.481 0-4.5-2.018-4.5-4.5s2.019-4.5 4.5-4.5c2.482 0 4.5 2.018 4.5 4.5s-2.018 4.5-4.5 4.5z"/><path fill="#2E2E2E" d="M117.5 185a.5.5 0 01-.5-.5v-2a.5.5 0 011 0v2a.5.5 0 01-.5.5m36 8.047c-1.904 0-3.453 1.549-3.453 3.453s1.55 3.453 3.453 3.453c1.904 0 3.453-1.549 3.453-3.453s-1.549-3.453-3.453-3.453zm0 7.953c-2.481 0-4.5-2.018-4.5-4.5s2.019-4.5 4.5-4.5c2.482 0 4.5 2.018 4.5 4.5s-2.018 4.5-4.5 4.5z"/><path fill="#2E2E2E" d="M152.5 203a.5.5 0 01-.5-.5v-2a.5.5 0 011 0v2a.5.5 0 01-.5.5m26-15.953c-1.904 0-3.453 1.549-3.453 3.453s1.549 3.453 3.453 3.453 3.453-1.549 3.453-3.453-1.549-3.453-3.453-3.453zm0 7.953c-2.481 0-4.5-2.018-4.5-4.5s2.019-4.5 4.5-4.5c2.482 0 4.5 2.018 4.5 4.5s-2.018 4.5-4.5 4.5z"/><path fill="#2E2E2E" d="M177.5 197a.5.5 0 01-.5-.5v-2a.5.5 0 011 0v2a.5.5 0 01-.5.5m3-39.953c-1.904 0-3.453 1.549-3.453 3.453s1.549 3.453 3.453 3.453 3.453-1.549 3.453-3.453-1.549-3.453-3.453-3.453zm0 7.953c-2.481 0-4.5-2.018-4.5-4.5s2.019-4.5 4.5-4.5c2.482 0 4.5 2.018 4.5 4.5s-2.018 4.5-4.5 4.5z"/><path fill="#2E2E2E" d="M179.5 167a.5.5 0 01-.5-.5v-2a.5.5 0 011 0v2a.5.5 0 01-.5.5m79-14.953c-1.904 0-3.453 1.549-3.453 3.453s1.549 3.453 3.453 3.453 3.453-1.549 3.453-3.453-1.549-3.453-3.453-3.453zm0 7.953c-2.481 0-4.5-2.018-4.5-4.5s2.019-4.5 4.5-4.5c2.482 0 4.5 2.018 4.5 4.5s-2.018 4.5-4.5 4.5z"/><path fill="#2E2E2E" d="M258.5 162a.5.5 0 01-.5-.5v-2a.5.5 0 011 0v2a.5.5 0 01-.5.5m-110.763 11.01c-2.94 0-5.195.987-6.186 2.708-.802 1.39-.706 3.153.264 4.835.87 1.51 4.617 6.437 16.273 6.437.412 0 .832-.007 1.26-.02 18.026-.558 22.694-6.907 22.643-10.187-.03-1.952-1.491-3.369-3.474-3.369-.535 0-1.094.101-1.66.3-6.652 2.339-9.986 3.168-12.74 3.168-2.458 0-4.34-.68-7.19-1.71-.768-.277-1.609-.58-2.553-.904-2.436-.835-4.669-1.258-6.637-1.258zm10.35 14.99c-8.23 0-14.64-2.595-17.146-6.942-1.155-2.003-1.251-4.134-.264-5.846 1.177-2.042 3.75-3.212 7.06-3.212 2.08 0 4.422.441 6.964 1.312.95.325 1.796.63 2.568.91 2.75.993 4.567 1.65 6.847 1.65 2.594 0 5.957-.844 12.406-3.11a5.998 5.998 0 011.995-.358c2.558 0 4.444 1.834 4.482 4.363.06 3.892-4.847 10.632-23.62 11.213-.438.013-.87.02-1.291.02z"/><path fill="#2E2E2E" d="M146.22 178c-.07 0-.14-.052-.183-.147-.068-.153-.04-.358.061-.46.186-.187.57-.692.57-1.06 0-.154.07-.287.17-.323.102-.04.203.038.249.175 0 0 .032.078.108.105.108.036.274-.044.461-.232.102-.103.239-.06.307.091.068.153.04.358-.061.46-.308.308-.586.416-.828.318l-.064-.03c-.194.562-.607.988-.667 1.047a.17.17 0 01-.122.056m1 5c-.071 0-.141-.052-.184-.148-.068-.152-.04-.357.061-.46.186-.186.57-.69.57-1.06 0-.153.07-.287.17-.322.1-.039.203.037.248.174 0 0 .033.079.109.105.11.038.274-.045.461-.232.1-.102.239-.061.307.092.068.152.04.358-.062.46-.307.307-.586.417-.827.318l-.064-.03c-.194.561-.607.988-.667 1.047a.176.176 0 01-.122.056m6-5c-.071 0-.141-.052-.184-.147-.068-.153-.04-.358.061-.46.186-.187.57-.692.57-1.06 0-.155.07-.288.17-.323.1-.038.203.037.249.174 0 0 .032.078.108.105.11.037.274-.044.462-.232.1-.102.238-.06.306.091.068.153.04.358-.062.46-.307.308-.586.417-.827.319l-.064-.031c-.194.563-.607.989-.667 1.048a.17.17 0 01-.122.056m1 6c-.07 0-.141-.052-.184-.148-.068-.152-.04-.357.061-.46.186-.186.57-.69.57-1.06 0-.153.07-.287.17-.322.1-.039.203.037.248.175 0 0 .033.078.109.104.11.037.274-.044.461-.232.101-.102.238-.06.307.092.068.152.04.358-.062.46-.307.307-.586.416-.827.318l-.065-.031c-.193.563-.606.989-.665 1.048a.172.172 0 01-.123.056m4-5c-.071 0-.141-.052-.184-.148-.068-.152-.04-.358.061-.46.186-.186.57-.691.57-1.06 0-.154.07-.287.17-.322.1-.038.203.037.249.174 0 0 .033.079.108.105.11.038.274-.045.462-.233.101-.101.238-.06.306.093.068.151.04.358-.062.46-.307.307-.585.416-.827.318l-.064-.031c-.194.562-.607.989-.667 1.048a.174.174 0 01-.122.056m4 5c-.072 0-.141-.052-.184-.148-.067-.152-.04-.358.061-.46.186-.186.57-.69.57-1.06 0-.153.07-.287.17-.322.1-.039.203.037.248.175 0 0 .034.078.109.104.11.038.274-.044.462-.232.1-.101.238-.06.306.092s.04.358-.062.46c-.308.308-.587.416-.827.318l-.064-.031c-.194.563-.607.989-.666 1.048a.172.172 0 01-.123.056m4-4c-.071 0-.141-.052-.184-.148-.067-.152-.04-.357.061-.46.186-.186.57-.69.57-1.06 0-.154.07-.287.17-.322.1-.039.203.037.248.174 0 0 .033.078.109.105.108.037.273-.044.461-.232.101-.102.238-.061.307.092.068.152.04.358-.061.46-.308.308-.588.416-.828.318l-.065-.032c-.193.563-.606.99-.666 1.05a.177.177 0 01-.122.055m3 3c-.071 0-.142-.052-.184-.147-.068-.153-.04-.358.061-.46.186-.187.57-.692.57-1.06 0-.155.07-.288.17-.323.1-.038.203.037.248.174 0 0 .033.078.109.105.107.038.273-.044.461-.232.1-.102.239-.061.307.091.068.153.04.358-.061.46-.308.309-.588.416-.828.319l-.064-.031c-.194.563-.607.99-.667 1.048a.17.17 0 01-.122.056m3-5c-.071 0-.141-.052-.184-.147-.067-.153-.04-.358.061-.46.185-.187.57-.692.57-1.06 0-.155.07-.288.17-.323.099-.038.202.037.248.174 0 0 .033.078.108.105.108.036.274-.044.462-.232.1-.102.239-.061.307.091.068.153.04.358-.061.46-.308.308-.588.417-.828.319l-.065-.031c-.193.563-.606.989-.666 1.048a.17.17 0 01-.122.056m4 1c-.071 0-.141-.052-.184-.148-.067-.152-.04-.357.061-.46.186-.186.57-.691.57-1.06 0-.153.07-.287.17-.322.101-.039.203.037.248.175 0 0 .033.078.108.104.11.04.275-.044.462-.232.1-.101.238-.06.307.092.068.152.04.358-.062.46-.307.307-.587.414-.827.319l-.065-.032c-.193.563-.606.989-.665 1.048a.172.172 0 01-.123.056M144.5 164.053c-.798 0-1.447.649-1.447 1.447s.649 1.447 1.447 1.447 1.447-.649 1.447-1.447-.649-1.447-1.447-1.447zm0 3.947c-1.378 0-2.5-1.122-2.5-2.5s1.122-2.5 2.5-2.5 2.5 1.122 2.5 2.5-1.122 2.5-2.5 2.5z"/><path fill="#2E2E2E" d="M144.5 168a.5.5 0 01-.5-.5v-1a.5.5 0 011 0v1a.5.5 0 01-.5.5m-3 22.053c-.798 0-1.447.649-1.447 1.447s.649 1.447 1.447 1.447 1.447-.649 1.447-1.447-.649-1.447-1.447-1.447zm0 3.947c-1.378 0-2.5-1.122-2.5-2.5s1.122-2.5 2.5-2.5 2.5 1.122 2.5 2.5-1.122 2.5-2.5 2.5z"/><path fill="#2E2E2E" d="M141.5 195a.5.5 0 01-.5-.5v-1a.5.5 0 011 0v1a.5.5 0 01-.5.5m25 1.053c-.798 0-1.447.649-1.447 1.447s.649 1.447 1.447 1.447 1.447-.649 1.447-1.447-.649-1.447-1.447-1.447zm0 3.947c-1.378 0-2.5-1.122-2.5-2.5s1.122-2.5 2.5-2.5 2.5 1.122 2.5 2.5-1.122 2.5-2.5 2.5z"/><path fill="#2E2E2E" d="M166.5 201a.5.5 0 01-.5-.5v-1a.5.5 0 011 0v1a.5.5 0 01-.5.5m2-36.947c-.798 0-1.447.649-1.447 1.447s.649 1.447 1.447 1.447 1.447-.649 1.447-1.447-.649-1.447-1.447-1.447zm0 3.947c-1.378 0-2.5-1.122-2.5-2.5s1.122-2.5 2.5-2.5 2.5 1.122 2.5 2.5-1.122 2.5-2.5 2.5z"/><path fill="#2E2E2E" d="M168.5 169a.5.5 0 01-.5-.5v-1a.5.5 0 011 0v1a.5.5 0 01-.5.5"/><g transform="translate(155 18)"><mask id="gn2pn0uhxE" fill="#fff"><use xlink:href="#vul0f8rncD"/></mask><path fill="#2E2E2E" d="M14.008 112a.5.5 0 01-.5-.5v-85a.5.5 0 01.087-.282l12.998-19a.5.5 0 01.825.564l-12.91 18.873V111.5a.5.5 0 01-.5.5" mask="url(#gn2pn0uhxE)"/><path fill="#2E2E2E" d="M14.508 63.837v4.877l4.5-2.3v-4.878l-4.5 2.301zm-.5 6.195a.493.493 0 01-.26-.074.496.496 0 01-.24-.426v-6c0-.188.105-.36.272-.446l5.5-2.812a.497.497 0 01.727.445v6c0 .188-.105.36-.272.445l-5.5 2.813a.503.503 0 01-.227.055zm.5-24.195v4.877l4.5-2.3v-4.878l-4.5 2.301zm-.5 6.195a.493.493 0 01-.26-.074.496.496 0 01-.24-.426v-6c0-.188.105-.36.272-.446l5.5-2.812a.497.497 0 01.727.445v6c0 .188-.105.36-.272.445l-5.5 2.813a.503.503 0 01-.227.055zm-3.5 39.159l3 1.5V87.81l-3-1.5v4.882zm3.5 2.81a.505.505 0 01-.224-.053l-3.999-2a.5.5 0 01-.276-.448v-6a.5.5 0 01.723-.447l4 2a.5.5 0 01.276.447v6a.5.5 0 01-.5.5z" mask="url(#gn2pn0uhxE)"/><path fill="#2E2E2E" d="M14.508 87.81v4.881l6.999-3.5V84.31l-7 3.5m-.5 6.191a.502.502 0 01-.499-.5v-6a.5.5 0 01.276-.447l8-4a.5.5 0 01.723.447v6c0 .19-.107.363-.277.447l-7.999 4a.488.488 0 01-.223.053m.5-60.191v4.881l6.999-3.5V30.31l-7 3.5m-.5 6.191a.5.5 0 01-.499-.5v-6a.5.5 0 01.276-.447l8-4a.5.5 0 01.723.447v6c0 .19-.107.363-.277.447l-7.999 4a.488.488 0 01-.223.053m-4.499 38.69l3.999 2V75.81l-4-2v4.882zm4.499 3.31a.505.505 0 01-.224-.053l-4.999-2.5A.5.5 0 018.509 79v-6a.5.5 0 01.723-.447l5 2.5a.5.5 0 01.276.447v6a.5.5 0 01-.5.5zm-4.499-27.31l3.999 2V51.81l-4-2v4.882zm4.499 3.31a.505.505 0 01-.224-.053l-4.999-2.5A.5.5 0 018.509 55v-6a.5.5 0 01.723-.447l5 2.5a.5.5 0 01.276.447v6a.5.5 0 01-.5.5z" mask="url(#gn2pn0uhxE)"/><path fill="#2E2E2E" d="M9.509 36.691l3.999 2V33.81l-4-2v4.882zm4.499 3.31a.505.505 0 01-.224-.053l-4.999-2.5A.5.5 0 018.509 37v-6a.5.5 0 01.723-.447l5 2.5a.5.5 0 01.276.447v6a.5.5 0 01-.5.5z" mask="url(#gn2pn0uhxE)"/><path fill="#2E2E2E" d="M1.01 104.197l12.998 6.74 12.998-6.74v-28.86l-5.762 3.103a.5.5 0 01-.737-.44v-6c0-.184.1-.353.263-.44l6.236-3.358V51.809l-7.275 3.638a.498.498 0 01-.486-.022.497.497 0 01-.238-.425v-6c0-.19.107-.362.277-.447l7.722-3.862V7.31L14.67 1.14 1.01 20.658V32.41l8.224 4.143a.5.5 0 01.275.446v6a.5.5 0 01-.725.446L1.01 39.532v10.88l8.224 4.143a.5.5 0 01.275.446v6a.5.5 0 01-.725.446L1.01 57.532V62.2l8.233 4.36a.5.5 0 01.266.441v6a.502.502 0 01-.734.442L1.01 69.331v4.872l5.239 2.858c.16.088.26.256.26.44v6a.5.5 0 01-.739.438l-4.76-2.596v5.068l9.223 4.643a.498.498 0 01.275.446v6a.5.5 0 01-.724.446L1.01 93.53v10.667M14.008 112a.5.5 0 01-.23-.056l-13.499-7a.502.502 0 01-.27-.444V93c0-.049.008-.096.021-.14a.501.501 0 01.705-.588l8.774 4.417v-4.88L.285 87.165a.5.5 0 01-.275-.447V80.5a.5.5 0 01.739-.439l4.76 2.597v-4.86L.27 74.938a.5.5 0 01-.26-.439v-6a.5.5 0 01.734-.442l7.765 4.112V67.3L.276 62.942A.499.499 0 01.01 62.5v-5.78a.5.5 0 01.725-.447l7.774 3.915v-4.88L.285 51.166a.5.5 0 01-.275-.447v-12a.5.5 0 01.725-.446l7.774 3.915v-4.88L.285 33.165a.497.497 0 01-.275-.446V20.5c0-.102.031-.202.09-.286l13.998-20a.5.5 0 01.633-.161l12.998 6.5a.5.5 0 01.277.447v38a.5.5 0 01-.277.448l-7.722 3.861v4.882l7.275-3.638a.5.5 0 01.724.447v17.5a.5.5 0 01-.263.44l-6.236 3.36v4.864l5.762-3.103a.5.5 0 01.737.441V104.5a.5.5 0 01-.27.444l-13.498 7a.504.504 0 01-.23.056" mask="url(#gn2pn0uhxE)"/><path fill="#2E2E2E" d="M14.257 27.5a.494.494 0 01-.216-.05L.543 20.95a.5.5 0 11.434-.9l13.498 6.5a.499.499 0 01-.217.95M4.587 91.985l-.12-.032-1.328-.734a.25.25 0 01-.13-.219v-3a.25.25 0 01.5 0v2.853l1.2.663a.25.25 0 01-.122.469M24.756 73.25a.25.25 0 01-.25-.25v-3a.25.25 0 01.5 0v3a.25.25 0 01-.25.25m-.812-23a.25.25 0 01-.131-.463l.693-.426V47a.25.25 0 11.5 0v2.5a.249.249 0 01-.119.212l-.812.5-.131.037M4.415 67.875l-.118-.03-1.156-.625A.249.249 0 013.01 67v-3a.25.25 0 01.5 0v2.851l1.024.554a.25.25 0 01-.119.47m.125-11.968l-.114-.028-1.28-.656A.25.25 0 013.01 55v-3a.25.25 0 01.5 0v2.847l1.145.587a.25.25 0 01-.115.473m8.968-1.157l-.124-.033-1.75-1a.249.249 0 01-.126-.217v-3a.25.25 0 01.5 0v2.855l1.624.928a.25.25 0 01-.124.467M4.447 37.907l-.121-.032-1.187-.656a.25.25 0 01-.13-.219v-3a.25.25 0 01.5 0v2.853l1.059.585c.12.066.164.219.098.34a.252.252 0 01-.22.129M3.26 79.25a.25.25 0 01-.25-.25v-3a.25.25 0 01.5 0v3a.25.25 0 01-.25.25m10.248-.5l-.124-.033-1.75-1a.249.249 0 01-.126-.217v-3a.25.25 0 01.5 0v2.855l1.624.928a.25.25 0 01-.124.467m0 12a.246.246 0 01-.139-.042l-.75-.5a.25.25 0 01-.11-.208v-3a.25.25 0 11.499 0v2.866l.638.426a.251.251 0 01.07.347.252.252 0 01-.208.111" mask="url(#gn2pn0uhxE)"/><path fill="#2E2E2E" d="M.76 93a.5.5 0 01-.258-.928l2.5-1.5a.5.5 0 11.515.857l-2.5 1.5A.501.501 0 01.76 93m17.732-4.39a.25.25 0 01-.106-.477l.621-.292v-2.84a.25.25 0 11.5 0v3a.252.252 0 01-.143.226l-.766.359-.106.024" mask="url(#gn2pn0uhxE)"/><path fill="#2E2E2E" d="M22.256 90a.504.504 0 01-.257-.071l-2.5-1.5a.5.5 0 01.515-.857l2.5 1.5a.499.499 0 01-.258.928M.76 81a.5.5 0 01-.258-.928l2.5-1.5a.5.5 0 11.515.857l-2.5 1.5A.501.501 0 01.76 81m8.5-1.5a.5.5 0 01-.259-.928l2.5-1.5a.5.5 0 11.515.857l-2.5 1.5a.501.501 0 01-.257.071m1 12.5a.498.498 0 01-.258-.928l2.5-1.5a.5.5 0 11.515.857l-2.5 1.5a.501.501 0 01-.257.071M.76 69a.5.5 0 01-.258-.928l2.5-1.5a.5.5 0 11.515.857l-2.5 1.5A.501.501 0 01.76 69m0-12a.5.5 0 01-.258-.928l2.5-1.5a.5.5 0 11.515.857l-2.5 1.5A.501.501 0 01.76 57m8.5-1.5a.5.5 0 01-.259-.928l2.5-1.5a.5.5 0 11.515.857l-2.5 1.5a.501.501 0 01-.257.071m4.249-18.75l-.124-.033-1.75-1a.249.249 0 01-.126-.217v-3a.25.25 0 01.5 0v2.855l1.624.928a.25.25 0 01-.124.467" mask="url(#gn2pn0uhxE)"/><path fill="#2E2E2E" d="M9.26 37.5a.5.5 0 01-.259-.928l2.5-1.5a.5.5 0 11.515.857l-2.5 1.5a.501.501 0 01-.257.071m4.749 11.25a.25.25 0 01-.12-.47l2.62-1.428V44a.25.25 0 11.5 0v3a.25.25 0 01-.131.22l-2.75 1.5-.12.03" mask="url(#gn2pn0uhxE)"/><path fill="#2E2E2E" d="M19.757 49a.499.499 0 01-.257-.071l-2.5-1.5a.499.499 0 11.515-.857l2.5 1.5a.5.5 0 01-.258.928m-1.218-14.406a.25.25 0 01-.108-.476l.576-.275V31a.25.25 0 01.5 0v3a.251.251 0 01-.142.226l-.719.344-.107.024" mask="url(#gn2pn0uhxE)"/><path fill="#2E2E2E" d="M22.256 36a.504.504 0 01-.257-.071l-2.5-1.5a.5.5 0 01.515-.857l2.5 1.5a.499.499 0 01-.258.928m-8.248 30.75a.25.25 0 01-.12-.47l2.62-1.428V62a.25.25 0 11.5 0v3a.25.25 0 01-.131.22l-2.75 1.5-.12.03" mask="url(#gn2pn0uhxE)"/><path fill="#2E2E2E" d="M19.757 67a.499.499 0 01-.257-.071l-2.5-1.5a.499.499 0 11.515-.857l2.5 1.5a.5.5 0 01-.258.928m7.998-15.5a.504.504 0 01-.257-.071l-2.5-1.5a.5.5 0 01.516-.857l2.5 1.5a.5.5 0 01-.259.928m0 23.5a.504.504 0 01-.257-.071l-2.5-1.5a.5.5 0 01.516-.857l2.5 1.5a.5.5 0 01-.259.928M.76 39a.5.5 0 01-.258-.928l2.5-1.5a.5.5 0 11.515.857l-2.5 1.5A.501.501 0 01.76 39m13.498 66.75l-.112-.026-12.998-6.5a.25.25 0 11.224-.447l12.998 6.5a.25.25 0 01-.112.473" mask="url(#gn2pn0uhxE)"/><path fill="#2E2E2E" d="M14.258 105.75a.25.25 0 01-.112-.473l12.998-6.5a.25.25 0 01.224.447l-12.998 6.5-.112.026m0-6a.25.25 0 01-.112-.473l12.998-6.5a.25.25 0 01.224.447l-12.998 6.5-.112.026m0-6a.25.25 0 01-.112-.473l12.998-6.5a.25.25 0 01.224.447l-12.998 6.5-.112.026m0-6a.25.25 0 01-.112-.473l12.998-6.5a.25.25 0 01.224.447l-12.998 6.5-.112.026m0-6a.25.25 0 01-.112-.473l12.998-6.5a.25.25 0 01.224.447l-12.998 6.5-.112.026m0-6a.25.25 0 01-.112-.473l12.998-6.5a.25.25 0 01.224.447l-12.998 6.5-.112.026m0-6a.25.25 0 01-.112-.473l12.998-6.5a.25.25 0 01.224.447l-12.998 6.5-.112.026m0-6a.25.25 0 01-.112-.473l12.998-6.5a.25.25 0 01.224.447l-12.998 6.5-.112.026m0-6a.25.25 0 01-.112-.473l12.998-6.5a.25.25 0 01.224.447l-12.998 6.5-.112.026m0-12a.25.25 0 01-.112-.473l12.998-6.5a.25.25 0 01.224.447l-12.998 6.5-.112.026m0-6a.25.25 0 01-.112-.473l12.998-6.5a.25.25 0 01.224.447l-12.998 6.5-.112.026m0-6a.25.25 0 01-.112-.473l12.998-6.5a.25.25 0 01.224.447l-12.998 6.5-.112.026m0-6a.25.25 0 01-.112-.473l12.998-6.5a.25.25 0 01.224.447l-12.998 6.5-.112.026" mask="url(#gn2pn0uhxE)"/><path fill="#2E2E2E" d="M14.258 99.75l-.112-.026-12.998-6.5a.25.25 0 11.224-.447l12.998 6.5a.25.25 0 01-.112.473m0-12l-.112-.026-12.998-6.5a.25.25 0 11.224-.447l12.998 6.5a.25.25 0 01-.112.473m0-6l-.112-.026-12.998-6.5a.25.25 0 11.224-.447l12.998 6.5a.25.25 0 01-.112.473m0-12l-.112-.026-12.998-6.5a.25.25 0 11.224-.447l12.998 6.5a.25.25 0 01-.112.473m0-6l-.112-.026-12.998-6.5a.25.25 0 11.224-.447l12.998 6.5a.25.25 0 01-.112.473m0-12l-.112-.026-12.998-6.5a.25.25 0 11.224-.447l12.998 6.5a.25.25 0 01-.112.473m0-6l-.112-.026-12.998-6.5a.25.25 0 11.224-.447l12.998 6.5a.25.25 0 01-.112.473m0-12l-.112-.026-12.998-6.5a.25.25 0 11.224-.447l12.998 6.5a.25.25 0 01-.112.473M5.092 22.917a.25.25 0 01-.205-.394l13.999-20a.25.25 0 11.408.287l-13.997 20a.248.248 0 01-.205.107m4.333 2.166a.25.25 0 01-.204-.393l13.998-20a.25.25 0 11.408.287l-13.997 20a.247.247 0 01-.205.106M6.26 90.5a1.001 1.001 0 000 2 1 1 0 00-.001-2m0 3c-1.103 0-2-.897-2-2 0-1.102.897-2 2-2s2 .898 2 2c0 1.103-.897 2-2 2" mask="url(#gn2pn0uhxE)"/><path fill="#2E2E2E" d="M6.01 94.5a.5.5 0 01-.5-.5v-1a.5.5 0 11.999 0v1a.5.5 0 01-.5.5M17.257 87a1.001 1.001 0 101 1c0-.551-.449-1-1-1m0 3c-1.102 0-2-.897-2-2s.898-2 2-2c1.103 0 2 .897 2 2s-.897 2-2 2" mask="url(#gn2pn0uhxE)"/><path fill="#2E2E2E" d="M17.007 91a.5.5 0 01-.5-.5v-1a.5.5 0 011 0v1a.5.5 0 01-.5.5M4.76 78a1.001 1.001 0 000 2c.55 0 1-.448 1-1 0-.551-.45-1-1-1m0 3c-1.104 0-2-.897-2-2s.896-2 2-2c1.102 0 1.999.897 1.999 2s-.897 2-2 2" mask="url(#gn2pn0uhxE)"/><path fill="#2E2E2E" d="M4.51 82a.5.5 0 01-.5-.5v-1a.5.5 0 111 0v1a.5.5 0 01-.5.5m18.746-9.5c-.55 0-1 .449-1 1a1 1 0 101-1m0 3c-1.102 0-2-.897-2-2s.898-2 2-2c1.103 0 2 .897 2 2s-.897 2-2 2" mask="url(#gn2pn0uhxE)"/><path fill="#2E2E2E" d="M23.007 76.5a.5.5 0 01-.5-.5v-1a.5.5 0 111 0v1a.5.5 0 01-.5.5M6.26 66.5a1.001 1.001 0 000 2 1 1 0 00-.001-2m0 3c-1.103 0-2-.897-2-2s.897-2 2-2 2 .897 2 2-.897 2-2 2" mask="url(#gn2pn0uhxE)"/><path fill="#2E2E2E" d="M6.01 70.5a.5.5 0 01-.5-.5v-1a.5.5 0 11.999 0v1a.5.5 0 01-.5.5m.251-16a1.001 1.001 0 000 2 1 1 0 00-.001-2m0 3c-1.103 0-2-.897-2-2s.897-2 2-2 2 .897 2 2-.897 2-2 2" mask="url(#gn2pn0uhxE)"/><path fill="#2E2E2E" d="M6.01 58.5a.5.5 0 01-.5-.5v-1a.5.5 0 11.999 0v1a.5.5 0 01-.5.5m.251-22a1.001 1.001 0 000 2 1 1 0 00-.001-2m0 3c-1.103 0-2-.897-2-2s.897-2 2-2 2 .897 2 2-.897 2-2 2" mask="url(#gn2pn0uhxE)"/><path fill="#2E2E2E" d="M6.01 40.5a.5.5 0 01-.5-.5v-1a.5.5 0 11.999 0v1a.5.5 0 01-.5.5M17.257 33a1.001 1.001 0 101 1c0-.551-.449-1-1-1m0 3c-1.102 0-2-.897-2-2s.898-2 2-2c1.103 0 2 .897 2 2s-.897 2-2 2" mask="url(#gn2pn0uhxE)"/><path fill="#2E2E2E" d="M17.007 37a.5.5 0 01-.5-.5v-1a.5.5 0 011 0v1a.5.5 0 01-.5.5m5.75 11.5a1.001 1.001 0 000 2c.55 0 1-.448 1-1 0-.551-.45-1-1-1m0 3c-1.103 0-2-.897-2-2 0-1.102.897-2 2-2 1.102 0 2 .898 2 2 0 1.103-.898 2-2 2" mask="url(#gn2pn0uhxE)"/><path fill="#2E2E2E" d="M22.507 52.5a.5.5 0 01-.5-.5v-1a.5.5 0 111 0v1a.5.5 0 01-.5.5M10.274 94.782l-.115-.028-3.343-1.726a.25.25 0 01.229-.445l3.344 1.726a.251.251 0 01-.115.473M9.259 69.97l-.112-.027-1.828-.914a.25.25 0 11.223-.447l1.829.913a.25.25 0 01-.112.474m-.5-12l-.112-.026-1.828-.914a.25.25 0 11.223-.447l1.829.913a.25.25 0 01-.112.474m0-17.999l-.112-.027-1.828-.914a.25.25 0 11.223-.447l1.829.913a.25.25 0 01-.112.474m5.546 50.813a.25.25 0 01-.117-.472l2.235-1.172a.25.25 0 01.232.443l-2.234 1.172-.116.029" mask="url(#gn2pn0uhxE)"/><path fill="#2E2E2E" d="M20.304 52.281a.25.25 0 01-.117-.471l2.235-1.172a.25.25 0 11.232.443l-2.234 1.172-.116.028m-5.999-15.499a.25.25 0 01-.117-.472l2.235-1.172a.25.25 0 01.232.443l-2.234 1.172-.116.029" mask="url(#gn2pn0uhxE)"/></g></g></svg>