<svg xmlns="http://www.w3.org/2000/svg" xmlns:xlink="http://www.w3.org/1999/xlink" width="324" height="240"><defs><linearGradient id="fqhy3k3pfb" x1="-2059.55%" x2="26543.75%" y1="-3537.6%" y2="-3537.6%"><stop offset="0%" stop-color="#0BF"/><stop offset="100%" stop-color="#6ED2F3"/></linearGradient><linearGradient id="fq4ajo3ike" x1=".006%" x2="100.009%" y1="74.385%" y2="74.385%"><stop offset="0%" stop-color="#001B8F"/><stop offset="100%" stop-color="#001E8D"/></linearGradient><linearGradient id="ga3b80xieh" x1="-1.617%" x2="99.997%" y1="83.089%" y2="83.089%"><stop offset="0%" stop-color="#001B8F"/><stop offset="100%" stop-color="#001E8D"/></linearGradient><linearGradient id="84g8xkh0mk" x1="42.511%" x2="984.891%" y1="-82.247%" y2="-82.247%"><stop offset="0%" stop-color="#001B8F"/><stop offset="100%" stop-color="#001E8D"/></linearGradient><linearGradient id="2szwxmpein" x1="0%" x2="100.001%" y1="50.005%" y2="50.005%"><stop offset="0%" stop-color="#001B8F"/><stop offset="100%" stop-color="#001E8D"/></linearGradient><linearGradient id="0ryf4ab0oq" x1="-.963%" x2="99.993%" y1="50%" y2="50%"><stop offset="0%" stop-color="#001B8F"/><stop offset="100%" stop-color="#001E8D"/></linearGradient><linearGradient id="w8lfudkjjt" x1="45.3%" x2="1030.36%" y1="-61.15%" y2="-61.15%"><stop offset="0%" stop-color="#001B8F"/><stop offset="100%" stop-color="#001E8D"/></linearGradient><linearGradient id="qv2l22uxxw" x1="-320.482%" x2="151.867%" y1="498.75%" y2="498.75%"><stop offset="0%" stop-color="#7FDDFF"/><stop offset="100%" stop-color="#FCFCFC"/></linearGradient><linearGradient id="ibniz40ifz" x1="-189.149%" x2="207.314%" y1="477.05%" y2="477.05%"><stop offset="0%" stop-color="#7FDDFF"/><stop offset="100%" stop-color="#FCFCFC"/></linearGradient><linearGradient id="dg7unp7jaC" x1="-272.5%" x2="656.26%" y1="-414.35%" y2="-414.35%"><stop offset="0%" stop-color="#001B8F"/><stop offset="100%" stop-color="#001E8D"/></linearGradient><linearGradient id="e91idrig2F" x1="-95.845%" x2="100.012%" y1="143.157%" y2="143.157%"><stop offset="0%" stop-color="#7FDDFF"/><stop offset="100%" stop-color="#FCFCFC"/></linearGradient><linearGradient id="hcysawp0nI" x1="-272.65%" x2="656.16%" y1="-414.35%" y2="-414.35%"><stop offset="0%" stop-color="#001B8F"/><stop offset="100%" stop-color="#001E8D"/></linearGradient><path id="jj4pavrfra" d="M.43.43H.338.52.43"/><path id="4gxoh7ijwd" d="M0 3.438c-.015-.764.426-1.648 1.266-2.362C2.09.374 3.11 0 3.999 0c.57 0 1.085.154 1.46.473a1.583 1.583 0 01.001 0C5.084.153 4.569 0 4 0c-.89 0-1.91.374-2.735 1.076C.454 1.766.016 2.614 0 3.36v.078"/><path id="422d0iuk2g" d="M0 3.438c.19-.693.65-1.441 1.345-2.09C2.276.478 3.397 0 4.313 0c.494 0 .928.14 1.24.432.316.294.465.705.463 1.172v-.026C6.012 1.122 5.863.72 5.554.432 5.24.139 4.807 0 4.313 0c-.916 0-2.037.478-2.968 1.348C.651 1.997.19 2.745 0 3.438"/><path id="mnce3s9i5j" d="M.365.86A2.863 2.863 0 01.364.801V.86"/><path id="wqkxwd3jsm" d="M0 4.1c0-.895.458-1.94 1.31-2.79C2.16.458 3.206 0 4.1 0c.545 0 1.035.17 1.39.527.36.36.53.859.526 1.413v-.045C6.01 1.358 5.84.877 5.49.527 5.138.174 4.656.004 4.117 0h-.036c-.89.006-1.926.464-2.771 1.31C.458 2.16 0 3.205 0 4.1"/><path id="dr7c5zilsp" d="M0 3.398c.144-.73.555-1.498 1.208-2.144C2.034.435 3.057 0 3.951 0c.582 0 1.11.184 1.494.565.392.389.577.923.57 1.511v-.062C6.01 1.451 5.823.94 5.445.565 5.06.184 4.533 0 3.951 0c-.894 0-1.917.435-2.743 1.254C.555 1.9.144 2.667 0 3.398"/><path id="lh1h7wlohs" d="M.39.836a4.145 4.145 0 010-.013v.013"/><path id="x2o1ndokqv" d="M1.719.616C1.354.37.904.25.406.244H.327a2.808 2.808 0 00.04-.001c.513 0 .977.12 1.352.373"/><path id="jzhx0n5cry" d="M0 .622C.514.369 1.027.238 1.499.238a2.284 2.284 0 01.05 0h-.1C.99.248.496.378 0 .622"/><path id="bzzs6206qB" d="M.43.43H.392h.076H.43"/><path id="ml7jshktvE" d="M3.438 1.719v-.02C3.434 1.223 3.224.79 2.79.474 2.357.157 1.767.003 1.118 0h-.035A4.839 4.839 0 001.1 0c.656 0 1.253.154 1.69.474.44.32.65.762.647 1.245"/><path id="g2hryac6iH" d="M.43.43H.386h.085H.43"/></defs><g fill="none" fill-rule="evenodd"><path fill="#FFF" d="M0 0h324v240H0z"/><path fill="#16161F" d="M183.744 179.663c6.708 0 11.604-5.457 12.147-12.147.484-5.97-4.798-1.224-8.744 2.85-3.666 3.784-11.841 8.368-3.403 9.297zm37.374-18.687c6.708 0 11.604-5.457 12.147-12.147.484-5.97-4.798-1.224-8.744 2.85-3.666 3.784-11.841 8.368-3.403 9.297zm38.309-19.622c6.708 0 11.603-5.456 12.146-12.146.485-5.97-4.798-1.225-8.744 2.849-3.666 3.785-11.84 8.369-3.402 9.297zM153.845 86.228c6.708 0 11.603-5.457 12.146-12.147.485-5.97-4.798-1.225-8.744 2.85-3.666 3.784-11.84 8.368-3.402 9.297zm-37.375 18.687c6.709 0 11.604-5.457 12.147-12.147.485-5.97-4.798-1.225-8.744 2.85-3.666 3.784-11.84 8.368-3.403 9.297zm-37.374 18.687c6.709 0 11.604-5.457 12.147-12.147.484-5.97-4.798-1.224-8.744 2.85-3.666 3.784-11.841 8.368-3.403 9.297z" opacity=".1"/><g opacity=".8"><path fill="#16161F" d="M67.262 200.219a.653.653 0 01-.293-1.237l203.23-101.819a.653.653 0 01.583 1.168L67.551 200.15a.656.656 0 01-.29.068m-14.608-7.734a.65.65 0 01-.292-1.232L254.729 90.288a.65.65 0 11.582 1.163L52.943 192.416a.656.656 0 01-.29.068"/><path fill="#16161F" d="M182.863 143.5a.602.602 0 01-.274-.067l-7.351-3.839a.677.677 0 01-.283-.883.605.605 0 01.83-.3l7.352 3.838a.678.678 0 01.283.883.616.616 0 01-.557.368m-110.02 55a.627.627 0 01-.283-.068l-17.624-8.988a.673.673 0 01-.292-.887.631.631 0 01.858-.3l17.625 8.987a.672.672 0 01.291.887.64.64 0 01-.575.369m6.015-2.578a.626.626 0 01-.282-.068l-17.624-8.988a.673.673 0 01-.292-.887.631.631 0 01.858-.301l17.624 8.987c.318.162.448.56.292.888a.642.642 0 01-.576.369m6.875-3.438a.613.613 0 01-.282-.068l-17.624-8.988a.673.673 0 01-.292-.887.632.632 0 01.858-.3l17.624 8.987c.318.162.448.56.292.887a.641.641 0 01-.576.37m6.016-3.438a.627.627 0 01-.283-.068l-17.624-8.988a.672.672 0 01-.291-.887.631.631 0 01.858-.301l17.624 8.987c.317.162.448.56.292.888a.642.642 0 01-.576.369m6.836-3.437a.656.656 0 01-.313-.08l-3.796-2.035a.711.711 0 01-.29-.945.668.668 0 01.917-.298l3.796 2.036a.71.71 0 01.29.944.678.678 0 01-.604.377m6.107-3.437a.535.535 0 01-.253-.065l-2.259-1.23c-.294-.16-.419-.562-.28-.899.14-.336.492-.478.786-.32l2.259 1.23c.294.16.419.563.28.9-.102.242-.313.384-.533.384m6.852-3.438a.626.626 0 01-.268-.06l-4.792-2.256a.581.581 0 01-.281-.79.62.62 0 01.817-.27l4.792 2.256c.304.143.43.496.282.79a.613.613 0 01-.55.33m6.898-2.578a.524.524 0 01-.253-.065l-2.259-1.23c-.294-.16-.419-.562-.28-.899.14-.336.493-.478.786-.319l2.259 1.23c.294.16.419.562.28.899-.102.242-.313.384-.533.384m5.932-3.437a.72.72 0 01-.275-.054l-1.233-.5c-.338-.138-.49-.498-.338-.805.152-.307.55-.444.888-.307l1.233.501c.339.138.49.498.339.805a.68.68 0 01-.614.36m6.926-3.438a.605.605 0 01-.274-.067l-7.35-3.839c-.309-.16-.435-.555-.284-.882.152-.326.524-.461.831-.3l7.351 3.838c.308.16.435.555.284.882a.619.619 0 01-.558.368m6.838-2.578a.629.629 0 01-.286-.07l-3.84-2.013c-.327-.171-.464-.598-.305-.953.158-.354.551-.5.879-.33l3.84 2.012c.327.17.463.598.305.952a.655.655 0 01-.593.402m6.016-3.437a.621.621 0 01-.287-.071l-3.84-2.013c-.326-.17-.463-.597-.305-.952.159-.354.552-.501.88-.33l3.84 2.011c.326.171.463.598.304.953a.656.656 0 01-.592.402m6.874-3.438a.632.632 0 01-.286-.07l-3.84-2.013c-.326-.171-.463-.598-.305-.953.159-.354.552-.5.88-.33l3.84 2.012c.326.17.463.598.304.952a.654.654 0 01-.593.402m6.063-3.438a.624.624 0 01-.268-.059l-4.792-2.257a.58.58 0 01-.281-.789.621.621 0 01.818-.272l4.792 2.257c.303.143.43.497.281.79a.613.613 0 01-.55.33m6.814-3.437a.73.73 0 01-.274-.053l-1.233-.501c-.34-.138-.491-.498-.34-.805.154-.306.551-.444.89-.306l1.232.5c.34.138.491.499.34.805a.682.682 0 01-.615.36m6.015-2.578a.715.715 0 01-.274-.054l-1.233-.5c-.339-.137-.49-.498-.338-.805.151-.307.549-.444.888-.306l1.233.5c.34.138.491.499.338.805a.675.675 0 01-.613.36m6.936-3.437a.637.637 0 01-.268-.06l-4.793-2.257a.58.58 0 01-.28-.789.62.62 0 01.817-.272l4.792 2.257c.303.143.43.496.281.79a.612.612 0 01-.55.33m12.83-6.874a.73.73 0 01-.274-.054l-1.233-.5c-.34-.138-.491-.498-.338-.805.15-.307.549-.444.888-.307l1.233.5c.339.139.49.5.338.806a.679.679 0 01-.614.36m6.077-3.438a.626.626 0 01-.268-.06l-4.792-2.256a.58.58 0 01-.281-.79.62.62 0 01.818-.271l4.791 2.256c.304.143.43.497.282.79a.613.613 0 01-.55.331m6.897-2.578a.524.524 0 01-.253-.065l-2.258-1.23c-.294-.16-.42-.562-.28-.898.14-.337.492-.48.786-.32l2.259 1.23c.293.16.419.562.279.898-.101.243-.313.385-.533.385m6.806-3.437a.617.617 0 01-.286-.071l-3.84-2.012c-.327-.171-.464-.598-.305-.953.158-.353.55-.503.88-.33l3.839 2.011c.327.172.464.598.305.952a.653.653 0 01-.593.402m6.016-3.437a.636.636 0 01-.287-.07l-3.84-2.013c-.326-.171-.463-.597-.305-.952.159-.353.55-.504.88-.331l3.84 2.012c.326.171.463.598.305.952a.657.657 0 01-.593.402m6.875-3.438a.623.623 0 01-.287-.07l-3.84-2.013c-.326-.17-.463-.597-.305-.952.158-.354.55-.503.88-.33l3.84 2.011c.326.172.463.598.305.952a.655.655 0 01-.593.402m6.875-2.578a.623.623 0 01-.287-.07l-3.84-2.013c-.326-.17-.463-.598-.305-.952.158-.354.55-.503.88-.33l3.84 2.01c.326.173.463.599.305.953a.655.655 0 01-.593.402m6.001-3.437a.73.73 0 01-.274-.054l-1.233-.5c-.34-.138-.491-.498-.339-.805.152-.307.55-.444.889-.307l1.233.501c.339.138.49.498.338.804a.679.679 0 01-.614.36m6.077-3.437a.626.626 0 01-.268-.06l-4.793-2.256a.58.58 0 01-.28-.79.62.62 0 01.817-.271l4.792 2.256c.304.144.43.497.282.79a.613.613 0 01-.55.331m6.897-3.437a.532.532 0 01-.253-.065l-2.259-1.23c-.293-.16-.418-.562-.278-.898.139-.337.49-.48.785-.32l2.259 1.23c.293.159.419.562.278.898-.1.243-.312.385-.532.385m6.843-3.438a.571.571 0 01-.273-.067l-7.352-3.838a.678.678 0 01-.283-.882c.152-.327.526-.462.831-.301l7.352 3.838c.308.16.434.555.283.882a.619.619 0 01-.558.368m6.827-2.578c-.1 0-.2-.021-.296-.068l-13.27-6.425a.648.648 0 01-.304-.877.675.675 0 01.896-.296l13.27 6.426c.332.16.469.553.304.876a.671.671 0 01-.6.364m6.043-3.438a.616.616 0 01-.282-.068l-17.624-8.987a.67.67 0 01-.29-.888.63.63 0 01.857-.301l17.624 8.987c.317.162.448.56.29.888a.636.636 0 01-.574.37"/><g transform="translate(89.813 185.61)"><mask id="cugsqz4e0c" fill="#fff"><use xlink:href="#jj4pavrfra"/></mask><path fill="url(#fqhy3k3pfb)" d="M.43.43H.338.52.43" mask="url(#cugsqz4e0c)"/></g><path fill="#FFF" d="M248.797 85.846v15.774c0 .793-.65 1.721-1.364 2.078-5.967 2.981-54.25 27.16-72.657 36.364l-.039-.078 5.876-3.17c.41-.435.656-1.097.656-1.948V119.28c0-2.15-1.558-4.676-3.487-5.637l-10.798-5.404-5.72 2.864-.123-.266c17.726-8.865 65.794-32.772 71.89-35.824.708-.35 1.877-.35 2.585 0l9.253 4.605c2.123 1.065 3.928 3.85 3.928 6.228"/><path fill="#E7E7E8" d="M162 109.381l10.844 5.474c1.933.976 3.499 3.535 3.499 5.716v15.799c0 .862-.245 1.535-.66 1.975l4.564-1.975c.415-.44.66-1.113.66-1.975v-15.799c0-2.18-1.567-4.74-3.5-5.716l-10.843-5.474-4.564 1.975"/><path fill="#16161F" d="M174.634 140.922a.655.655 0 01-.292-1.239c11.898-5.957 36.223-18.153 53.656-26.893l19.347-9.7c.517-.258 1.007-.99 1.007-1.503V85.71c0-2.106-1.643-4.708-3.587-5.682l-9.292-4.634c-.528-.264-1.487-.264-2.014 0-2.248 1.126-10.177 5.08-20.193 10.074-17.203 8.578-40.766 20.327-52.04 25.975a.653.653 0 01-.584-1.17 44188.044 44188.044 0 0152.043-25.976c10.015-4.994 17.942-8.946 20.19-10.072.892-.447 2.288-.447 3.18 0l9.293 4.634c2.376 1.19 4.308 4.264 4.308 6.851v15.876c0 1.014-.758 2.188-1.727 2.673-2.14 1.071-9.684 4.854-19.348 9.699-17.432 8.74-41.758 20.936-53.656 26.894a.644.644 0 01-.29.069"/><path fill="#16161F" d="M192.518 116.098v4.236L243.2 95.277v-4.236l-50.682 25.057zm-.65 5.918a.646.646 0 01-.34-.096.643.643 0 01-.31-.547v-5.672c0-.244.14-.466.36-.575l51.982-25.699a.65.65 0 01.94.575v5.672c0 .243-.14.466-.36.574l-51.981 25.7a.657.657 0 01-.29.068zm-2.845-3.704l-2.945 1.422c-.189.093-.389.36-.397.465v10.703l2.984-1.447c.177-.089.358-.36.358-.465v-10.678zm-3.534 14.016c-.653 0-1.145-.49-1.145-1.139v-10.993c0-.704.59-1.378 1.144-1.653l3.232-1.548c.178-.09.371-.136.563-.136.614 0 1.076.49 1.076 1.14v10.991c0 .719-.568 1.388-1.101 1.654l-3.188 1.546c-.179.09-.381.138-.58.138z"/><path fill="#16161F" d="M197.664 119.438c-.237 0-.43-.155-.43-.344v-6.188c0-.19.193-.343.43-.343s.43.154.43.343v6.188c0 .19-.193.343-.43.343m5.156-2.577c-.237 0-.43-.155-.43-.344v-6.188c0-.19.193-.344.43-.344.238 0 .43.154.43.344v6.188c0 .19-.192.343-.43.343m5.157-2.578c-.238 0-.43-.154-.43-.343v-6.188c0-.19.192-.344.43-.344.237 0 .43.154.43.344v6.188c0 .19-.193.343-.43.343m5.156-2.578c-.237 0-.43-.154-.43-.344v-6.187c0-.19.193-.344.43-.344s.43.154.43.344v6.187c0 .19-.193.344-.43.344m5.157-2.578c-.238 0-.43-.154-.43-.344v-6.187c0-.19.192-.344.43-.344.236 0 .429.154.429.344v6.187c0 .19-.193.344-.43.344m5.156-2.578c-.237 0-.43-.154-.43-.344v-6.187c0-.19.193-.344.43-.344.238 0 .43.154.43.344v6.187c0 .19-.192.344-.43.344m5.157-2.578c-.238 0-.43-.154-.43-.344v-6.188c0-.19.192-.343.43-.343.237 0 .43.154.43.343v6.188c0 .19-.193.344-.43.344m5.156-2.579c-.237 0-.43-.153-.43-.343v-6.188c0-.19.193-.343.43-.343s.43.154.43.343v6.188c0 .19-.193.344-.43.344m5.156-2.578c-.237 0-.43-.155-.43-.344V92.28c0-.19.193-.343.43-.343s.43.154.43.343v6.188c0 .19-.193.343-.43.343m-41.552 30.532c-.766 0-1.652.526-2.313 1.372-.963 1.235-1.168 2.82-.448 3.462.207.184.473.277.793.277.766 0 1.652-.526 2.313-1.373.5-.642.808-1.379.867-2.076.03-.351.015-.999-.418-1.384-.207-.185-.474-.278-.794-.278m-1.968 6.423a2.336 2.336 0 01-1.579-.582c-1.274-1.134-1.147-3.466.29-5.309.902-1.154 2.12-1.844 3.257-1.844.605 0 1.152.201 1.579.581.641.57.945 1.463.856 2.511-.08.96-.488 1.953-1.146 2.798-.902 1.155-2.12 1.845-3.257 1.845m-8.351-1.266c-.766 0-1.652.525-2.312 1.372-.501.641-.81 1.378-.869 2.075-.028.352-.014 1 .42 1.385.207.185.473.279.793.279.766 0 1.652-.526 2.313-1.373.963-1.235 1.168-2.82.449-3.461-.208-.184-.474-.278-.794-.278m-1.968 6.423c-.606 0-1.152-.2-1.58-.582-.64-.57-.943-1.461-.855-2.51.081-.96.488-1.954 1.147-2.798.9-1.155 2.118-1.844 3.256-1.844.605 0 1.152.2 1.58.58 1.274 1.134 1.146 3.466-.291 5.31-.902 1.154-2.119 1.844-3.257 1.844"/><path fill="#16161F" d="M186.063 137.484a.848.848 0 01-.61-.25.846.846 0 01-.25-.614c0-.225.087-.45.25-.614.318-.32.894-.32 1.212 0a.882.882 0 01.257.614c0 .233-.094.45-.257.614a.83.83 0 01-.602.25m10.312-5.156a.831.831 0 01-.602-.25.87.87 0 01-.257-.615c0-.224.094-.45.257-.614.327-.32.893-.32 1.212 0 .163.165.25.39.25.614a.844.844 0 01-.25.614.831.831 0 01-.61.251m-6.205 2.578a.681.681 0 01-.6-.338c-.165-.303-.03-.671.3-.823l2.958-1.352c.33-.151.732-.029.898.274.166.303.03.67-.3.822l-2.957 1.352a.712.712 0 01-.298.065m52.738-28.766c-.766 0-1.652.525-2.313 1.372-.963 1.235-1.168 2.82-.448 3.462.206.183.473.277.793.277.766 0 1.652-.526 2.313-1.373.5-.642.808-1.38.867-2.076.03-.351.015-.999-.419-1.384-.206-.185-.474-.278-.793-.278m-1.968 6.422c-.606 0-1.152-.2-1.579-.58-1.275-1.135-1.146-3.467.29-5.31.902-1.154 2.12-1.844 3.257-1.844.605 0 1.151.2 1.579.581.64.57.945 1.462.856 2.511-.08.96-.488 1.953-1.147 2.798-.901 1.155-2.119 1.844-3.256 1.844m-8.351-1.266c-.766 0-1.652.526-2.312 1.373-.501.641-.81 1.378-.869 2.075-.029.352-.014 1 .42 1.385.207.185.473.278.793.278.766 0 1.653-.526 2.313-1.372.964-1.236 1.169-2.82.45-3.461-.208-.184-.476-.278-.795-.278m-1.968 6.423a2.338 2.338 0 01-1.58-.582c-.64-.57-.944-1.46-.855-2.51.081-.96.488-1.954 1.147-2.799.9-1.154 2.118-1.844 3.256-1.844.606 0 1.152.202 1.58.582 1.274 1.133 1.146 3.465-.291 5.308-.901 1.155-2.119 1.845-3.257 1.845"/><path fill="#16161F" d="M231.61 115.14a.834.834 0 01-.61-.25.86.86 0 01-.25-.614c0-.225.087-.45.25-.614.318-.32.893-.32 1.212 0a.882.882 0 01.257.614c0 .225-.094.45-.257.614a.83.83 0 01-.603.25m10.313-5.156a.833.833 0 01-.603-.25.877.877 0 01-.256-.616.89.89 0 01.256-.615c.32-.312.894-.32 1.213 0 .163.164.25.39.25.615 0 .234-.087.45-.25.615a.831.831 0 01-.61.251m-6.204 1.719a.679.679 0 01-.6-.339c-.166-.302-.031-.67.3-.822l2.956-1.352c.33-.152.732-.028.899.274.165.303.03.67-.3.822l-2.957 1.352a.715.715 0 01-.298.065m-31.827 17.187a.638.638 0 01-.454-1.091c1.979-1.974 2.67-3.969 2.677-3.988a.64.64 0 011.216.405c-.02.058-.324.95-1.098 2.152l17.228-8.595c1.923-1.95 2.597-3.896 2.603-3.916a.641.641 0 011.216.406c-.03.093-.781 2.287-2.985 4.488a.73.73 0 01-.167.12l-19.95 9.952a.636.636 0 01-.286.068"/><path fill="#16161F" d="M211.302 125.453a.31.31 0 01-.225-.1.367.367 0 010-.488c2.012-2.184 2.712-5.137 2.72-5.166.043-.185.216-.299.385-.25.17.046.272.233.23.417-.03.128-.746 3.163-2.886 5.487a.31.31 0 01-.224.1m5.155-3.437a.308.308 0 01-.224-.101.369.369 0 010-.488c2.012-2.184 2.713-5.137 2.72-5.166.043-.185.216-.297.385-.25.17.046.273.233.23.417-.03.128-.746 3.163-2.886 5.487a.304.304 0 01-.225.1m-13.033 6.875a.75.75 0 01-.255-.043l-3.784-1.354c-.352-.125-.523-.482-.383-.796.14-.314.542-.466.891-.34l3.785 1.353c.351.125.523.482.382.796-.107.239-.364.385-.636.385m-25.046 8.593a.322.322 0 01-.23-.547c.33-.34.397-.911.397-1.665v-15.117c0-2.05-1.364-4.326-3.105-5.18l-10.682-5.239a.322.322 0 01.283-.579l10.681 5.239c1.944.953 3.466 3.483 3.466 5.759v15.117c0 .911-.099 1.62-.58 2.115a.32.32 0 01-.23.097"/><path fill="#16161F" d="M180.47 137.484a.64.64 0 01-.445-.18.66.66 0 01-.022-.924c.31-.33.474-.853.474-1.511v-15.693c0-1.907-1.42-4.24-3.102-5.093l-10.721-5.437a.66.66 0 01-.289-.878.642.642 0 01.865-.293l10.72 5.439c2.14 1.085 3.816 3.836 3.816 6.262v15.694c0 1-.287 1.834-.83 2.412a.636.636 0 01-.466.203"/><g transform="translate(183.484 134.047)"><mask id="zb9o5ov66f" fill="#fff"><use xlink:href="#4gxoh7ijwd"/></mask><path fill="url(#fq4ajo3ike)" d="M0 3.438c-.015-.764.426-1.648 1.266-2.362C2.09.374 3.11 0 3.999 0c.57 0 1.085.154 1.46.473a1.583 1.583 0 01.001 0C5.084.153 4.569 0 4 0c-.89 0-1.91.374-2.735 1.076C.454 1.766.016 2.614 0 3.36v.078" mask="url(#zb9o5ov66f)"/></g><g transform="translate(193.797 128.89)"><mask id="naxq983pqi" fill="#fff"><use xlink:href="#422d0iuk2g"/></mask><path fill="url(#ga3b80xieh)" d="M0 3.438c.19-.693.65-1.441 1.345-2.09C2.276.478 3.397 0 4.313 0c.494 0 .928.14 1.24.432.316.294.465.705.463 1.172v-.026C6.012 1.122 5.863.72 5.554.432 5.24.139 4.807 0 4.313 0c-.916 0-2.037.478-2.968 1.348C.651 1.997.19 2.745 0 3.438" mask="url(#naxq983pqi)"/></g><g transform="translate(192.938 132.328)"><mask id="gzjy3mwdwl" fill="#fff"><use xlink:href="#mnce3s9i5j"/></mask><path fill="url(#84g8xkh0mk)" d="M.365.86A2.863 2.863 0 01.364.801V.86" mask="url(#gzjy3mwdwl)"/></g><g transform="translate(229.031 110.844)"><mask id="vulo1g69so" fill="#fff"><use xlink:href="#wqkxwd3jsm"/></mask><path fill="url(#2szwxmpein)" d="M0 4.1c0-.895.458-1.94 1.31-2.79C2.16.458 3.206 0 4.1 0c.545 0 1.035.17 1.39.527.36.36.53.859.526 1.413v-.045C6.01 1.358 5.84.877 5.49.527 5.138.174 4.656.004 4.117 0h-.036c-.89.006-1.926.464-2.771 1.31C.458 2.16 0 3.205 0 4.1" mask="url(#vulo1g69so)"/></g><g transform="translate(239.344 106.547)"><mask id="nz5yy0veor" fill="#fff"><use xlink:href="#dr7c5zilsp"/></mask><path fill="url(#0ryf4ab0oq)" d="M0 3.398c.144-.73.555-1.498 1.208-2.144C2.034.435 3.057 0 3.951 0c.582 0 1.11.184 1.494.565.392.389.577.923.57 1.511v-.062C6.01 1.451 5.823.94 5.445.565 5.06.184 4.533 0 3.951 0c-.894 0-1.917.435-2.743 1.254C.555 1.9.144 2.667 0 3.398" mask="url(#nz5yy0veor)"/></g><g transform="translate(238.484 109.125)"><mask id="3qi4vztm2u" fill="#fff"><use xlink:href="#lh1h7wlohs"/></mask><path fill="url(#w8lfudkjjt)" d="M.39.836a4.145 4.145 0 010-.013v.013" mask="url(#3qi4vztm2u)"/></g><path fill="#FFF" d="M109.762 135.515c-6.356 3.192-10.75 5.76-14.334 8.637-10.01 8.042-20.067 27.348-15.767 32.386.718 1.44-1.433 3.6 4.3 6.478 5.373 2.697 16.484-1.44 19.35-4.319l5.967-6.666c.267-.293.77-.675 1.125-.853l64.037-32.14c.709-.355 1.31-1.288 1.31-2.082v-15.834c0-2.384-1.75-5.183-3.873-6.249l-9.22-4.622c-.707-.356-1.86-.356-2.569 0-6.096 3.06-32.604 16.366-50.326 25.264"/><g transform="translate(113.016 170.14)"><mask id="pzmj0kjv6x" fill="#fff"><use xlink:href="#x2o1ndokqv"/></mask><path fill="url(#qv2l22uxxw)" d="M1.719.616C1.354.37.904.25.406.244H.327a2.808 2.808 0 00.04-.001c.513 0 .977.12 1.352.373" mask="url(#pzmj0kjv6x)"/></g><g transform="translate(122.469 165.844)"><mask id="cp8f7vwukA" fill="#fff"><use xlink:href="#jzhx0n5cry"/></mask><path fill="url(#ibniz40ifz)" d="M0 .622C.514.369 1.027.238 1.499.238a2.284 2.284 0 01.05 0h-.1C.99.248.496.378 0 .622" mask="url(#cp8f7vwukA)"/></g><g transform="translate(157.703 152.953)"><mask id="i2djs59qrD" fill="#fff"><use xlink:href="#bzzs6206qB"/></mask><path fill="url(#dg7unp7jaC)" d="M.43.43H.392h.076H.43" mask="url(#i2djs59qrD)"/></g><g transform="translate(158.563 147.797)"><mask id="tycb20sk8G" fill="#fff"><use xlink:href="#ml7jshktvE"/></mask><path fill="url(#e91idrig2F)" d="M3.438 1.719v-.02C3.434 1.223 3.224.79 2.79.474 2.357.157 1.767.003 1.118 0h-.035A4.839 4.839 0 001.1 0c.656 0 1.253.154 1.69.474.44.32.65.762.647 1.245" mask="url(#tycb20sk8G)"/></g><g transform="translate(168.016 148.656)"><mask id="l20e4mcy6J" fill="#fff"><use xlink:href="#g2hryac6iH"/></mask><path fill="url(#hcysawp0nI)" d="M.43.43H.386h.085H.43" mask="url(#l20e4mcy6J)"/></g><path fill="#16161F" d="M161.52 111.27c-.384 0-.748.071-1 .196-6.122 3.043-32.744 16.273-50.541 25.12-6.771 3.365-10.908 5.831-14.279 8.513-7.778 6.186-15.828 19.4-16.564 27.19-.177 1.873.098 3.247.817 4.082l.089.131c.263.524.249 1.069.234 1.596-.032 1.235-.07 2.635 3.792 4.554 1.07.532 2.461.802 4.136.802 5.535 0 12.53-2.97 14.544-4.974l5.968-6.602a5.26 5.26 0 011.324-.994l64.31-31.956c.5-.248.956-.958.956-1.49v-15.743c0-2.103-1.616-4.683-3.53-5.634l-9.258-4.596c-.252-.125-.615-.196-.999-.196zm-73.316 73.48c-1.879 0-3.466-.316-4.719-.938-4.251-2.114-4.56-3.926-4.512-5.748.01-.385.018-.695-.072-.925-.912-1.112-1.27-2.784-1.063-4.972.763-8.071 9.048-21.718 17.047-28.08 3.448-2.742 7.652-5.251 14.51-8.661 17.798-8.847 44.42-22.076 50.542-25.119.865-.43 2.299-.43 3.164 0l9.258 4.595c2.384 1.186 4.25 4.17 4.25 6.794v15.741c0 1.02-.736 2.185-1.675 2.65l-64.31 31.956a4.016 4.016 0 00-.943.706l-5.987 6.622c-2.462 2.45-9.905 5.379-15.49 5.379z"/><path fill="#16161F" d="M95.602 169.281l-.145-.002c-13.227-.361-13.379-7.95-13.379-8.273 0-.363.288-.656.642-.656.354 0 .642.293.642.656.003.267.22 6.637 12.13 6.962 1.339.042 3.619-.584 4.72-1.535 3.861-3.329 6.672-8.734 7.703-10.908-15.715.361-16.592-7.528-16.623-7.871a.652.652 0 01.581-.713.642.642 0 01.697.589c.01.09.96 7.333 16.339 6.65a.62.62 0 01.555.282c.126.185.15.423.062.63-.135.322-3.36 7.925-8.485 12.344-1.344 1.159-3.825 1.845-5.439 1.845"/><path fill="#16161F" d="M93.58 169.281a.334.334 0 01-.148-.63c7.099-3.58 12.895-13.71 12.952-13.812a.33.33 0 01.45-.124.335.335 0 01.123.454c-.24.423-5.952 10.405-13.23 14.077l-.147.035m35.557-3.437a.646.646 0 01-.462-1.107c2.013-2.001 2.716-4.022 2.724-4.042a.65.65 0 01.824-.408c.341.114.526.48.412.819-.02.059-.33.963-1.116 2.181l18.827-9.36c1.957-1.977 2.643-3.95 2.65-3.97a.651.651 0 011.236.413c-.031.093-.795 2.317-3.037 4.547a.661.661 0 01-.17.122l-21.597 10.737a.657.657 0 01-.291.068"/><path fill="#16161F" d="M138.255 161.547a.311.311 0 01-.225-.1.37.37 0 010-.489c2.012-2.183 2.713-5.136 2.72-5.166.043-.184.213-.299.385-.25.17.047.273.234.23.418-.029.129-.746 3.162-2.886 5.486a.304.304 0 01-.224.1m6.015-2.577a.31.31 0 01-.224-.1.368.368 0 010-.489c2.012-2.183 2.713-5.135 2.72-5.165.042-.185.214-.3.385-.25.17.046.273.233.23.417-.03.128-.746 3.162-2.886 5.486a.306.306 0 01-.225.1m-14.753 6.876a.75.75 0 01-.254-.044l-3.785-1.352c-.351-.126-.523-.482-.382-.796.14-.315.537-.469.892-.342l3.784 1.353c.352.125.522.482.382.796-.108.24-.365.385-.637.385m1.988-18.804v4.233l40.365-19.906v-4.234l-40.365 19.907zm-.65 5.913a.641.641 0 01-.652-.642v-5.668c0-.244.14-.466.36-.575l41.667-20.547c.2-.1.44-.09.633.028a.64.64 0 01.309.546v5.668c0 .243-.14.466-.36.574l-41.667 20.549a.659.659 0 01-.29.067zm-16.655 3.035a50.19 50.19 0 01-2.965 5.818l9.065-4.532v-4.326l-6.1 3.04zm-4.827 8.137a.654.654 0 01-.525-1.046c.02-.028 2.135-2.904 4.243-7.829a.652.652 0 01.31-.328l7.262-3.62a.655.655 0 01.946.588v5.79c0 .248-.14.475-.362.586l-11.582 5.79a.646.646 0 01-.292.069zm17.775-14.875l-2.945 1.421c-.189.094-.389.36-.397.466v10.702l2.983-1.447c.178-.088.359-.36.359-.464V149.25zm-3.534 14.016c-.653 0-1.145-.49-1.145-1.14v-10.991c0-.705.59-1.379 1.144-1.654l3.232-1.547c.178-.089.371-.136.563-.136.614 0 1.076.489 1.076 1.139v10.992c0 .718-.567 1.388-1.101 1.654l-3.188 1.546a1.316 1.316 0 01-.58.138z"/><path fill="#16161F" d="M136.648 150.375c-.237 0-.43-.154-.43-.344v-6.187c0-.19.193-.344.43-.344.238 0 .43.154.43.344v6.187c0 .19-.192.344-.43.344m5.157-2.578c-.238 0-.43-.15-.43-.334v-5.348c0-.184.192-.334.43-.334.237 0 .43.15.43.334v5.348c0 .184-.193.334-.43.334m5.155-2.578c-.236 0-.429-.154-.429-.344v-6.188c0-.19.193-.343.43-.343s.43.154.43.344v6.187c0 .19-.193.344-.43.344m5.156-2.579c-.237 0-.43-.153-.43-.343v-6.188c0-.19.193-.343.43-.343s.43.154.43.343v6.188c0 .19-.193.344-.43.344m5.156-2.578c-.237 0-.43-.154-.43-.344v-6.189c0-.19.193-.344.43-.344.238 0 .43.154.43.344v6.188c0 .19-.192.344-.43.344m5.157-2.578c-.238 0-.43-.154-.43-.343v-6.188c0-.19.192-.344.43-.344.237 0 .43.154.43.344v6.188c0 .19-.193.343-.43.343m5.156-2.578c-.237 0-.43-.154-.43-.344v-6.187c0-.19.193-.344.43-.344s.43.154.43.344v6.188c0 .19-.193.343-.43.343m-52.422 25.782c-.237 0-.43-.15-.43-.335v-5.347c0-.184.193-.334.43-.334s.43.15.43.334v5.347c0 .185-.193.335-.43.335m-31.029 4.296l-.073-.007a.322.322 0 01-.257-.384c1.492-6.408 8.548-14.613 8.847-14.96a.348.348 0 01.475-.043.31.31 0 01.045.453c-.072.084-7.25 8.434-8.708 14.689a.334.334 0 01-.33.252m-2.781 10.313a.291.291 0 01-.216-.096c-1.014-1.11-1.558-2.413-1.635-3.155a.306.306 0 01.264-.341c.17-.019.31.105.327.275.049.465.386 1.421 1.116 2.367l.226-.876c.183-.706-.186-1.847-.633-2.667-.393-.722-.657-1.486-.708-2.044a.305.305 0 01.268-.337.302.302 0 01.324.279c.034.367.218 1.032.634 1.797.492.902.931 2.199.69 3.133l-.37 1.435a.302.302 0 01-.214.22l-.073.01m6.754 1.508a41.3 41.3 0 003.965.43l1.879-1.913a46.405 46.405 0 01-2.486-.228c-1.057-.129-2.273.274-2.712.856l-.646.855zm4.085 1.07h-.018a41.365 41.365 0 01-4.682-.533.31.31 0 01-.237-.196.32.32 0 01.044-.307l.962-1.274c.578-.766 1.991-1.256 3.277-1.098 1 .12 2.056.209 3.137.266a.31.31 0 01.273.201.323.323 0 01-.07.338l-2.466 2.51a.305.305 0 01-.22.093zm31.263-11.579c-.766 0-1.651.526-2.312 1.373-.963 1.235-1.168 2.82-.449 3.46.207.184.474.278.793.278.767 0 1.653-.526 2.314-1.373.5-.642.808-1.378.867-2.076.03-.351.015-.999-.419-1.384-.207-.184-.474-.278-.794-.278zm-1.968 6.423a2.342 2.342 0 01-1.579-.581c-1.274-1.135-1.145-3.467.292-5.31.9-1.154 2.118-1.844 3.255-1.844.606 0 1.153.202 1.58.582.64.57.945 1.461.856 2.51-.08.96-.489 1.953-1.147 2.798-.902 1.155-2.119 1.845-3.257 1.845zm-8.35-1.267c-.766 0-1.652.526-2.313 1.373-.5.642-.808 1.378-.868 2.075-.029.351-.014 1 .42 1.385.207.184.473.278.793.278.766 0 1.652-.526 2.313-1.373.963-1.235 1.168-2.82.449-3.46-.207-.184-.474-.278-.794-.278zm-1.968 6.423a2.333 2.333 0 01-1.58-.582c-.64-.57-.944-1.462-.855-2.51.08-.96.488-1.954 1.147-2.799.901-1.154 2.118-1.843 3.256-1.843.605 0 1.152.2 1.58.58 1.274 1.135 1.145 3.466-.291 5.309-.902 1.155-2.12 1.845-3.257 1.845zm58.691-34.782c-.767 0-1.654.526-2.314 1.372-.502.642-.81 1.379-.87 2.076-.029.351-.015.999.419 1.385.207.184.475.278.795.278.767 0 1.654-.526 2.314-1.373.502-.642.81-1.379.87-2.076.029-.351.014-.999-.42-1.384-.207-.185-.475-.278-.794-.278zm-1.97 6.423a2.343 2.343 0 01-1.582-.582c-.64-.57-.944-1.462-.855-2.511.08-.96.488-1.953 1.148-2.798.902-1.154 2.12-1.844 3.259-1.844.606 0 1.153.201 1.58.581.642.57.946 1.461.857 2.51-.08.96-.488 1.954-1.148 2.8-.902 1.154-2.12 1.844-3.26 1.844zm-8.341-1.266c-.766 0-1.652.525-2.312 1.371-.963 1.235-1.169 2.82-.449 3.461.207.185.474.278.793.278.767 0 1.653-.526 2.314-1.373.5-.642.808-1.379.867-2.075.03-.352.015-1-.418-1.385-.208-.184-.475-.278-.795-.278zm-1.968 6.422a2.342 2.342 0 01-1.579-.581c-1.274-1.134-1.146-3.466.291-5.31.902-1.155 2.119-1.844 3.256-1.844.606 0 1.152.201 1.58.582.64.57.945 1.461.856 2.51-.08.96-.488 1.953-1.147 2.798-.902 1.155-2.119 1.845-3.257 1.845z"/><path fill="#16161F" d="M112.156 174.438a.84.84 0 01-.61-.251.863.863 0 01-.25-.615c0-.225.087-.45.25-.614.318-.32.902-.32 1.212.008a.85.85 0 01.258.606c0 .225-.095.45-.258.615a.833.833 0 01-.602.25m10.321-4.297a.834.834 0 01-.61-.25.853.853 0 01-.258-.614c0-.225.095-.45.258-.614.318-.32.885-.32 1.212 0a.878.878 0 010 1.228.83.83 0 01-.602.25m36.086-18.046a.88.88 0 01-.61-.251.874.874 0 01-.25-.614c0-.234.086-.45.25-.614.317-.32.893-.32 1.211 0 .163.163.258.38.258.614a.885.885 0 01-.258.614.862.862 0 01-.602.25m10.308-5.155a.856.856 0 01-.598-.251.88.88 0 01-.256-.614c0-.224.093-.45.256-.614.317-.32.89-.32 1.206 0a.873.873 0 01.256.614.862.862 0 01-.863.864m-53.466 24.923a.679.679 0 01-.6-.34c-.165-.302-.03-.67.3-.821l2.957-1.353c.33-.151.732-.029.899.274.165.303.03.67-.3.822l-2.957 1.352a.705.705 0 01-.299.065m46.422-22.343a.683.683 0 01-.614-.4.741.741 0 01.307-.969l3.784-1.993a.671.671 0 01.92.323c.17.357.033.79-.306.97l-3.785 1.992a.652.652 0 01-.306.077M84.85 180.453a.626.626 0 01-.262-.057c-2.781-1.275-4.749-2.898-4.831-2.967a.744.744 0 01-.117-.997.638.638 0 01.934-.126c.018.015 1.922 1.584 4.538 2.782.338.155.495.574.35.934a.665.665 0 01-.612.431m-6.21-80.35c-6.395 0-11.6 5.204-11.6 11.601 0 6.396 5.205 11.599 11.6 11.599 6.397 0 11.6-5.203 11.6-11.599 0-6.397-5.203-11.6-11.6-11.6zm0 24.49c-7.107 0-12.89-5.782-12.89-12.889 0-7.109 5.783-12.892 12.89-12.892 7.109 0 12.891 5.783 12.891 12.892 0 7.107-5.782 12.89-12.89 12.89zm-.429 12.891c-5.06 0-9.023-2.094-9.023-4.767 0-2.329 2.994-4.254 7.283-4.683a.655.655 0 01.721.583.653.653 0 01-.588.713c-3.479.347-6.101 1.803-6.101 3.387 0 1.639 3.165 3.465 7.708 3.465s7.708-1.826 7.708-3.465c0-1.584-2.622-3.04-6.1-3.387a.653.653 0 01-.589-.713.659.659 0 01.721-.583c4.288.429 7.283 2.355 7.283 4.683 0 2.673-3.963 4.767-9.023 4.767"/><path fill="#16161F" d="M78.297 131.826c.124.041.564.041.687 0v-6.774h-.687v6.774zm.344 1.362c-1.188 0-1.72-.631-1.72-1.256v-7.539c0-.363.309-.659.688-.659h2.063c.38 0 .687.296.687.66v7.538c0 .625-.531 1.255-1.718 1.255zm37.812-51.991c-6.396 0-11.6 5.204-11.6 11.6s5.204 11.6 11.6 11.6c6.397 0 11.6-5.204 11.6-11.6s-5.203-11.6-11.6-11.6zm0 24.49c-7.108 0-12.89-5.782-12.89-12.89 0-7.108 5.782-12.89 12.89-12.89 7.108 0 12.89 5.782 12.89 12.89 0 7.108-5.782 12.89-12.89 12.89zm-.429 12.891c-5.06 0-9.024-2.094-9.024-4.767 0-2.329 2.995-4.254 7.284-4.683a.654.654 0 01.72.583.652.652 0 01-.588.713c-3.478.347-6.101 1.804-6.101 3.387 0 1.639 3.166 3.465 7.709 3.465 4.543 0 7.708-1.826 7.708-3.465 0-1.583-2.623-3.04-6.1-3.387a.654.654 0 01-.59-.713.656.656 0 01.722-.583c4.288.43 7.283 2.355 7.283 4.683 0 2.673-3.964 4.767-9.023 4.767"/><path fill="#16161F" d="M116.11 112.92c.123.04.563.04.687 0v-6.774h-.688v6.774zm.343 1.361c-1.187 0-1.719-.63-1.719-1.255v-7.539c0-.364.308-.659.688-.659h2.062c.38 0 .688.295.688.659v7.54c0 .624-.532 1.254-1.719 1.254zm37.813-51.991c-6.396 0-11.6 5.205-11.6 11.602 0 6.395 5.204 11.598 11.6 11.598s11.6-5.203 11.6-11.598c0-6.397-5.204-11.601-11.6-11.601zm0 24.491c-7.108 0-12.891-5.782-12.891-12.89 0-7.107 5.783-12.891 12.89-12.891 7.109 0 12.891 5.783 12.891 12.892 0 7.107-5.782 12.89-12.89 12.89zm-.43 12.891c-5.06 0-9.023-2.094-9.023-4.768 0-2.328 2.994-4.253 7.283-4.682a.654.654 0 01.721.583.653.653 0 01-.588.713c-3.479.347-6.101 1.803-6.101 3.386 0 1.64 3.165 3.466 7.708 3.466s7.708-1.827 7.708-3.466c0-1.583-2.622-3.04-6.1-3.386a.653.653 0 01-.589-.713.657.657 0 01.721-.583c4.288.429 7.283 2.354 7.283 4.682 0 2.674-3.963 4.768-9.023 4.768"/><path fill="#16161F" d="M153.063 94.014c.123.04.563.04.687 0V87.24h-.688v6.774zm.343 1.361c-1.187 0-1.719-.63-1.719-1.255v-7.54c0-.363.309-.658.688-.658h2.063c.379 0 .687.295.687.659v7.539c0 .624-.531 1.255-1.719 1.255zm30.079 60.588c-6.397 0-11.6 5.203-11.6 11.6 0 6.396 5.203 11.6 11.6 11.6 6.396 0 11.6-5.204 11.6-11.6 0-6.397-5.204-11.6-11.6-11.6zm0 24.49c-7.108 0-12.891-5.782-12.891-12.89 0-7.108 5.783-12.891 12.89-12.891 7.109 0 12.891 5.783 12.891 12.891s-5.782 12.89-12.89 12.89zm-.43 12.891c-5.06 0-9.024-2.095-9.024-4.768 0-2.328 2.995-4.254 7.284-4.683a.658.658 0 01.72.582.654.654 0 01-.588.714c-3.478.347-6.1 1.803-6.1 3.387 0 1.639 3.165 3.466 7.708 3.466s7.708-1.827 7.708-3.466c0-1.584-2.622-3.04-6.1-3.387a.654.654 0 01-.589-.714.661.661 0 01.72-.582c4.29.429 7.284 2.355 7.284 4.683 0 2.673-3.963 4.768-9.023 4.768"/><path fill="#16161F" d="M183.14 187.685c.124.041.564.041.688 0v-6.773h-.687v6.773zm.344 1.362c-1.187 0-1.718-.63-1.718-1.255v-7.54c0-.364.307-.658.687-.658h2.063c.38 0 .687.294.687.659v7.539c0 .625-.531 1.255-1.719 1.255zm75.626-70.897c-6.397 0-11.6 5.204-11.6 11.601 0 6.395 5.203 11.599 11.6 11.599 6.396 0 11.6-5.204 11.6-11.599 0-6.397-5.204-11.6-11.6-11.6zm0 24.49c-7.108 0-12.891-5.782-12.891-12.889 0-7.109 5.783-12.892 12.89-12.892 7.109 0 12.891 5.783 12.891 12.892 0 7.107-5.782 12.89-12.89 12.89zm-.43 12.891c-5.06 0-9.024-2.094-9.024-4.768 0-2.328 2.995-4.254 7.284-4.683a.659.659 0 01.72.583.652.652 0 01-.588.713c-3.478.347-6.1 1.804-6.1 3.387 0 1.64 3.165 3.466 7.708 3.466s7.708-1.827 7.708-3.466c0-1.583-2.622-3.04-6.1-3.387a.652.652 0 01-.589-.713.662.662 0 01.72-.583c4.29.43 7.284 2.355 7.284 4.683 0 2.674-3.963 4.768-9.023 4.768"/><path fill="#16161F" d="M257.906 149.872c.124.042.564.042.688 0V143.1h-.688v6.773zm.344 1.362c-1.187 0-1.719-.63-1.719-1.255v-7.539c0-.364.308-.659.688-.659h2.062c.38 0 .688.295.688.66v7.538c0 .625-.532 1.255-1.719 1.255zm-36.953-14.178c-6.397 0-11.6 5.204-11.6 11.601 0 6.396 5.203 11.599 11.6 11.599 6.396 0 11.6-5.203 11.6-11.599 0-6.397-5.204-11.6-11.6-11.6zm0 24.49c-7.108 0-12.89-5.781-12.89-12.889s5.782-12.891 12.89-12.891c7.108 0 12.89 5.783 12.89 12.891s-5.782 12.89-12.89 12.89zm-.429 12.892c-5.06 0-9.024-2.095-9.024-4.769 0-2.328 2.995-4.253 7.284-4.683a.66.66 0 01.72.583.654.654 0 01-.588.714c-3.478.347-6.101 1.803-6.101 3.386 0 1.64 3.166 3.466 7.709 3.466 4.542 0 7.708-1.826 7.708-3.466 0-1.583-2.623-3.04-6.1-3.386a.655.655 0 01-.59-.714.663.663 0 01.721-.583c4.289.43 7.284 2.355 7.284 4.683 0 2.674-3.963 4.769-9.023 4.769"/><path fill="#16161F" d="M220.094 168.779c.124.041.564.041.687 0v-6.774h-.687v6.774zm.344 1.362c-1.188 0-1.72-.63-1.72-1.256v-7.539c0-.364.308-.659.688-.659h2.063c.38 0 .687.295.687.66v7.538c0 .626-.531 1.256-1.719 1.256z"/></g></g></svg>