<svg xmlns="http://www.w3.org/2000/svg" xmlns:xlink="http://www.w3.org/1999/xlink" width="324" height="240"><defs><linearGradient id="k0ear33cyc" x1="-1965.337%" x2="100.008%" y1="2140.885%" y2="2140.885%"><stop offset="0%" stop-color="#7DD8FA"/><stop offset="100%" stop-color="#F7F7F7"/></linearGradient><linearGradient id="enrn1ba1nf" x1="1.75%" x2="2601.75%" y1="-806.6%" y2="-806.6%"><stop offset="0%" stop-color="#7DD8FA"/><stop offset="100%" stop-color="#F7F7F7"/></linearGradient><linearGradient id="cnsquno9ki" x1="-7.25%" x2="2392.75%" y1="-758.05%" y2="-758.05%"><stop offset="0%" stop-color="#7DD8FA"/><stop offset="100%" stop-color="#F7F7F7"/></linearGradient><path id="3oeej0gp4b" d="M7.57 1.9c0-.625-1.325-1.889-4.043-1.9h-.074c-.82.004-1.767.12-2.84.402C.578.608.453 1.035 0 1.467.454 1.035.578.608.613.402 1.703.116 2.66 0 3.49 0c2.743 0 4.08 1.272 4.08 1.9"/><path id="im11lyymqe" d="M.473.475H.436.51.473"/><path id="mfbvnq2cbh" d="M.473.476L.435.475H.51.473"/><filter id="7slfrfomua" color-interpolation-filters="auto"><feColorMatrix in="SourceGraphic" values="0 0 0 0 0.086275 0 0 0 0 0.086275 0 0 0 0 0.121569 0 0 0 1.000000 0"/></filter></defs><g fill="none" fill-rule="evenodd"><path fill="#FFF" d="M0 0h324v240H0z"/><g opacity=".9"><g fill="#2E2E2E" fill-rule="nonzero" opacity=".7"><path d="M157.908 205c-20.277 0-38.533-8.613-51.283-22.366l.93-.249c12.579 13.395 30.484 21.767 50.353 21.767 32.71 0 60.097-22.69 67.162-53.127l.93-.248C219.01 181.812 191.178 205 157.908 205zm0-139c16.384 0 31.448 5.623 43.355 15.037l-1.026.275c-11.682-9.065-26.372-14.464-42.329-14.464-28.89 0-53.63 17.7-63.88 42.807l-1.028.273C103.228 84.198 128.434 66 157.908 66z"/><path d="M114.218 108.83l.487.845c-4.357 7.432-6.855 16.087-6.855 25.325 0 27.697 22.453 50.15 50.15 50.15l.28-.002.489.846A49.19 49.19 0 01158 186c-28.166 0-51-22.833-51-51 0-9.568 2.635-18.52 7.218-26.17zM158 84c28.167 0 51 22.833 51 51 0 10.402-3.114 20.077-8.46 28.142l-.476-.824A49.924 49.924 0 00208.15 135c0-27.697-22.453-50.15-50.15-50.15-.88 0-1.755.023-2.624.067l-.477-.824A50.622 50.622 0 01158 84z"/><path d="M157.5 100c19.606 0 35.5 15.894 35.5 35.5S177.106 171 157.5 171 122 155.106 122 135.5s15.894-35.5 35.5-35.5zm0 .845c-19.14 0-34.655 15.516-34.655 34.655 0 19.14 15.516 34.655 34.655 34.655 19.14 0 34.655-15.516 34.655-34.655 0-19.14-15.516-34.655-34.655-34.655zM79 146.037h.855c4.78 33.878 31.245 60.768 64.864 66.103v.86C110.63 207.65 83.793 180.385 79 146.037zm102.138 64.14v-.892c27.846-9.086 48.804-33.467 53.007-63.248H235c-4.221 30.253-25.545 55.011-53.862 64.14zm50.437-100.647h-.895c-7.935-23.07-26.35-41.247-49.541-48.815v-.892c23.66 7.627 42.438 26.167 50.436 49.707zM144.72 57v.86c-28.681 4.55-52.154 24.789-61.4 51.67h-.895c9.294-27.353 33.143-47.955 62.294-52.53z"/></g><path fill="#FFF" d="M251 116.44a.616.616 0 01-.336.593l-2.563 1.29c-.627.312-1.601.533-2.368.533-.091 0-.17-.007-.256-.013l-31.02-2.22a.598.598 0 01-.128.263c-6.197 7.267-17.805 15.121-35.495 24.003-2.313 1.163-3.61 2.319-4.754 3.334-.396.355-.773.691-1.175 1.004.913.275 1.833.55 2.764.825a.702.702 0 01.262-.171l1.826-.612a.61.61 0 01.773.386.62.62 0 01-.384.777l-.56.19c2.167.635 4.365 1.272 6.587 1.908a.556.556 0 01.28-.202l1.826-.612a.614.614 0 01.773.386.619.619 0 01-.383.776l-.585.196c2.843.808 5.704 1.615 8.547 2.404a.769.769 0 01.17-.092l1.826-.611a.614.614 0 01.773.385.62.62 0 01-.383.777l-.323.11c2.368.648 4.718 1.29 7.025 1.915a.623.623 0 01.213-.129l1.826-.611c.323-.11.67.067.773.385a.62.62 0 01-.383.777l-.39.128c18.134 4.888 33.364 8.68 34.91 9.066l3.738-4.784c.408-.673 1.242-1.456 1.93-1.804l1.296-.649.08-.036.103-.037.14-.018.164.024.091.03.025.019.085.049.06.055.068.08.03.042.025.037-.013.104-.024.165v.006l.024.16-.006.097-2.617 5.732c-.62 1.34-1.936 3.193-3.166 3.976-1.193.759-3.04 1.658-5.098 1.658l-.15-.025c-.64.257-1.314.404-1.947.404-.128 0-.256-.006-.384-.018l-34.3-3.512c-3.586 3.579-8.95 8.081-14.312 9.33l-.14.011-.158-.024-.024.018a1.9 1.9 0 01-.993.27c-1.132 0-2.398-.9-3.226-2.288-1.053-1.762-1.04-3.67-.024-4.527a.579.579 0 01.091-.465c.073-.098 1.522-2.147 4.377-3.799l-18.767-1.92-.116.14-.322.282c-3.89 3.352-9.216 7.946-14.725 9.212l-.14.012-.159-.024-.024.018c-.298.177-.627.27-.992.27-1.132 0-2.399-.9-3.226-2.289-1.047-1.755-1.041-3.664-.031-4.52a.62.62 0 01.146-.532c.098-.104 2.149-2.35 5.43-4.02l-7.366-.758a.506.506 0 01-.158.123c-3.263 1.639-5.795 2.404-8.242 3.138-2.118.636-4.115 1.235-6.367 2.367-6.252 3.144-11.511 5.848-15.736 8.02C96.011 183.451 92.998 185 79.948 185c-3.209 0-4.353-1.37-4.743-2.52-1.083-3.175 2.295-8.326 6.087-11.335 2.454-4.925 3.744-7.433 11.164-11.158.335-.165 14.05-6.9 30.76-15.115l-4.603-9.005-.018.013c-1.784 1.003-3.512 1.7-5.132 2.08l-.14.012-.158-.025-.024.018c-.298.178-.627.27-.992.27-1.133 0-2.399-.9-3.227-2.288-1.047-1.756-1.04-3.664-.03-4.52-.03-.16 0-.331.097-.472.067-.092 1.644-2.318 4.76-4.013a.609.609 0 01.268-.073l-12.801-25.05c-.712-1.388-.658-3.535.122-4.881l4.862-8.448c.396-.685 1.254-1.492 1.954-1.847l1.346-.673a.609.609 0 01.864.703l-1.808 6.809c-.298 1.107.128 2.716.925 3.517 3.36 3.383 10.75 10.62 21.507 20.095l1.722-.575a.614.614 0 01.773.385.62.62 0 01-.383.777l-1.047.349a485.112 485.112 0 004.529 3.92l1.607-.537a.615.615 0 01.773.385.62.62 0 01-.384.777l-.913.306a462.436 462.436 0 006.008 5.052l1.212-.403a.615.615 0 01.773.385.62.62 0 01-.384.777l-.499.165a756.677 756.677 0 003.732 3.059.575.575 0 01.219.41c16.374-8.063 30.862-15.195 34.43-16.994 7.913-3.976 11.474-5.56 17.92-7.922l-4.985-12.802a1.97 1.97 0 01.937-2.46l2.563-1.284a.61.61 0 01.657.067l9.606 7.842 12.637-23.704c.383-.71 1.211-1.523 1.93-1.884l6.215-3.12a.608.608 0 01.852.734l-9.575 29.43c1.4-.55 3.962-1.48 5.344-1.48.651 0 1.163.336 1.406.923.524 1.279-.34 3.768-.974 4.405l-3.147 3.688 26.03 8.136a.63.63 0 01.427.538"/><g filter="url(#7slfrfomua)" opacity=".9" transform="translate(74 70)"><g transform="translate(145.72 31.364)"><mask id="0xyprepqad" fill="#fff"><use xlink:href="#3oeej0gp4b"/></mask><path fill="url(#k0ear33cyc)" d="M7.57 1.9c0-.625-1.325-1.889-4.043-1.9h-.074c-.82.004-1.767.12-2.84.402C.578.608.453 1.035 0 1.467.454 1.035.578.608.613.402 1.703.116 2.66 0 3.49 0c2.743 0 4.08 1.272 4.08 1.9" mask="url(#0xyprepqad)"/></g><g transform="translate(76.645 100.744)"><mask id="7w49vblcsg" fill="#fff"><use xlink:href="#im11lyymqe"/></mask><path fill="url(#enrn1ba1nf)" d="M.473.475H.436.51.473" mask="url(#7w49vblcsg)"/></g><g transform="translate(110.71 103.595)"><mask id="giel72sngj" fill="#fff"><use xlink:href="#mfbvnq2cbh"/></mask><path fill="url(#cnsquno9ki)" d="M.473.476L.435.475H.51.473" mask="url(#giel72sngj)"/></g><path fill="#000" d="M4.96 115c-3.217 0-4.36-1.376-4.754-2.53-1.087-3.19 2.303-8.358 6.1-11.378 2.457-4.947 3.751-7.46 11.193-11.206.821-.404 81.739-40.216 90.907-44.83 9.843-4.954 12.976-6.205 23.254-9.855a.608.608 0 01.778.374.616.616 0 01-.372.784c-10.218 3.63-13.333 4.873-23.115 9.796-9.173 4.616-90.095 44.43-90.911 44.832-7.135 3.59-8.253 5.843-10.704 10.777a.615.615 0 01-.172.21c-3.887 3.044-6.6 7.762-5.804 10.097.385 1.128 1.596 1.7 3.6 1.7 12.785 0 15.77-1.536 35.196-11.535 4.236-2.18 9.508-4.894 15.78-8.051 2.351-1.183 4.406-1.802 6.58-2.457 2.404-.724 4.89-1.473 8.063-3.07a.609.609 0 01.819.275.617.617 0 01-.274.824c-3.268 1.644-5.804 2.408-8.258 3.148-2.122.64-4.127 1.243-6.384 2.379-6.268 3.154-11.536 5.866-15.77 8.045C21.06 113.445 18.038 115 4.958 115M97.13 76.033a.609.609 0 01-.51-.276.624.624 0 01.17-.861c.604-.408 1.138-.887 1.758-1.441 1.148-1.03 2.58-2.312 5.051-3.564 17.664-8.942 29.233-16.81 35.366-24.055.22-.26.608-.29.864-.067a.625.625 0 01.066.875c-6.241 7.372-17.934 15.34-35.748 24.358-2.328 1.178-3.635 2.35-4.787 3.383-.626.56-1.216 1.09-1.89 1.544a.611.611 0 01-.34.104"/><path fill="#000" d="M48.724 75.083a.614.614 0 01-.546-.33L26.048 31.96c-.711-1.377-.657-3.507.123-4.847l4.892-8.388c.395-.678 1.258-1.483 1.963-1.833l1.352-.672a.615.615 0 01.66.073.604.604 0 01.205.627l-1.817 6.765c-.295 1.098.13 2.697.93 3.492 4.979 4.948 18.767 18.232 39.224 34.676.262.21.303.593.09.854a.616.616 0 01-.86.09c-20.502-16.48-34.328-29.8-39.32-34.761-1.105-1.1-1.653-3.149-1.246-4.665l1.467-5.461-.138.069c-.495.246-1.174.88-1.452 1.355l-4.89 8.388c-.574.984-.617 2.671-.094 3.683l22.13 42.792a.605.605 0 01-.544.885m18.77 13.103l92.379 9.429c1.125.115 2.677-.544 3.38-1.439l1.209-1.541c-5.456-1.355-43.465-10.863-70.884-19.26-1.592.423-14.199 3.84-20.35 7.2-4.65 2.54-5.564 4.712-5.734 5.611zm92.64 10.658c-.13 0-.259-.007-.385-.019l-92.947-9.487a.606.606 0 01-.534-.486c-.072-.356-.497-3.589 6.378-7.345 6.671-3.643 20.217-7.205 20.79-7.354a.6.6 0 01.331.007c28.626 8.776 68.949 18.79 71.517 19.426l3.73-4.753c.402-.67 1.24-1.453 1.926-1.797l1.343-.672a.608.608 0 11.543 1.089l-1.343.672c-.492.245-1.165.88-1.442 1.358l-.048.07-5.786 7.376c-.88 1.12-2.603 1.915-4.074 1.915z"/><path fill="#000" d="M162.404 98.843a.608.608 0 01-.598-.618c0-.341.268-.618.598-.618 1.732 0 3.33-.807 4.366-1.483.966-.632 2.137-2.304 2.667-3.49l2.584-5.788a.59.59 0 01.793-.302c.3.143.43.51.292.82l-2.584 5.787c-.606 1.357-1.903 3.226-3.114 4.017-1.17.764-2.986 1.675-5.004 1.675m-23.407-53.837l31.593 2.25c.58.043 1.489-.147 1.98-.392l1.205-.6-25.627-7.951a26.947 26.947 0 00-5.715 3.456c-1.685 1.344-2.796 2.5-3.436 3.237zm31.756 3.465a3.96 3.96 0 01-.249-.008l-32.737-2.332a.603.603 0 01-.461-.938c.052-.078 1.3-1.92 4.369-4.368 3.066-2.446 6.088-3.665 6.216-3.716a.612.612 0 01.405-.016l27.278 8.462a.607.607 0 01.091 1.119l-2.553 1.272c-.62.31-1.59.525-2.359.525zm-43.927-10.454a.607.607 0 01-.564-.39l-5.013-12.913c-.36-.93.05-2.007.936-2.454l2.552-1.287a.605.605 0 01.654.073l9.697 7.943c.26.212.299.597.088.859s-.592.302-.853.089l-9.394-7.694-2.202 1.11a.754.754 0 00-.35.915l5.014 12.915a.612.612 0 01-.564.834"/><path fill="#000" d="M154.493 1.806l-4.9 2.458c-.486.244-1.139.88-1.395 1.361l-17.144 32.101c1.343-.078 3.8-.328 5.374-1.117l.08-.033c.052-.018 5.243-1.778 8.16-4.625l9.825-30.145zM130.601 37.75v.609l.002-.61h-.002zm-.001 0v.609-.61zm0 1.218c-.366 0-.672-.162-.841-.444-.17-.287-.166-.643.013-.976L147.127 5.05c.379-.71 1.206-1.516 1.923-1.876l6.2-3.11a.607.607 0 01.848.734l-10.321 31.673a.605.605 0 01-.148.24c-2.996 3.007-8.145 4.819-8.697 5.007-1.912.943-4.752 1.186-6.281 1.248h-.05z"/><path fill="#000" d="M148.857 38.017a.637.637 0 01-.407-.144.57.57 0 01-.069-.837l3.765-4.158c.373-.356 1.087-2.274.764-3.012-.051-.117-.102-.166-.288-.166-1.439 0-4.839 1.252-6.027 1.734a.64.64 0 01-.824-.312.584.584 0 01.33-.78c.184-.074 4.533-1.83 6.52-1.83.67 0 1.198.328 1.449.899.541 1.238-.353 3.656-1.005 4.273l-3.731 4.125a.643.643 0 01-.477.208M66.875 65.579a.309.309 0 01-.214-.086L42.674 42.59a.3.3 0 01-.083-.295.31.31 0 01.223-.214l4.92-1.205a.307.307 0 01.373.22.302.302 0 01-.224.365l-4.385 1.074L67.09 65.061a.297.297 0 01.005.427.31.31 0 01-.22.09m70.459 24.712l-.075-.01-50.92-12.7a.303.303 0 11.151-.586l50.819 12.675 4.199-1.775a.311.311 0 01.403.16.302.302 0 01-.162.397l-4.294 1.814-.12.024"/><path fill="#000" d="M111.025 83.636a.317.317 0 01-.293-.223c-.064-.183.014-.39.176-.464.031-.014 3.184-1.437 5.064-2.146.165-.062.343.04.399.226.055.187-.035.389-.2.451-1.862.701-4.998 2.116-5.029 2.13l-.117.026M58.036 57.025a.318.318 0 01-.293-.224c-.065-.182.014-.39.176-.463.031-.015 3.184-1.438 5.064-2.146.167-.062.344.04.398.226.056.186-.034.388-.199.45-1.862.701-4.998 2.117-5.029 2.131l-.117.026m75.092-23.761a.29.29 0 01-.214-.095l-6.987-7.723a.297.297 0 01.084-.466l2.329-1.189a.289.289 0 01.39.133.3.3 0 01-.13.399l-1.983 1.011 6.725 7.432a.3.3 0 01-.016.42.29.29 0 01-.198.078m33.539 12.356l-.068-.008-23.484-5.132a.283.283 0 01-.225-.341.299.299 0 01.36-.214l23.38 5.109 2.311-1.095a.31.31 0 01.404.128.278.278 0 01-.135.382l-2.408 1.14-.135.03m-25.362-10.454l-.11-.018a.301.301 0 01-.186-.39l12.616-32.659a.319.319 0 01.406-.178.3.3 0 01.186.389L141.6 34.969a.315.315 0 01-.295.196M15.173 105.496c-4.37 0-8.504-2.16-9.43-4.076a.66.66 0 01.28-.869.617.617 0 01.84.29c.895 1.853 7.266 4.79 12.397 2.554.154-.067.392-.332.463-.515l.462-1.195c-5.64 2.051-11.159-.665-12.525-2.785a.662.662 0 01.173-.898.61.61 0 01.868.18c1.059 1.641 6.505 4.37 11.806 1.982.564-.254.902-.004 1.022.117.118.118.37.459.143 1.044l-.787 2.036c-.197.509-.676 1.026-1.138 1.228-1.468.64-3.036.907-4.574.907"/><path fill="#000" d="M8.832 103.595l-.141-.03c-.156-.07-.22-.242-.141-.383l1.261-2.28a.331.331 0 01.423-.128c.156.07.22.242.141.383l-1.261 2.28a.32.32 0 01-.282.158m4.652.95l-.057-.008c-.127-.038-.204-.193-.173-.346l.474-2.28c.031-.154.158-.247.286-.208.127.038.204.193.172.346l-.473 2.28c-.027.13-.123.216-.229.216m4.021.951c-.26 0-.473-.128-.473-.285v-2.281c0-.158.212-.285.473-.285.262 0 .473.127.473.285v2.28c0 .158-.211.286-.473.286M7.44 115l-.13-.034a.33.33 0 01-.131-.427c2.205-4.804-1-6.55-2.205-7.208-1.048-.57-2.681.012-2.697.018-.154.056-.319-.035-.37-.201-.05-.167.032-.347.185-.403.076-.027 1.881-.67 3.143.018 3.273 1.782 4.102 4.495 2.466 8.061a.29.29 0 01-.261.176m100.414-15.824a.604.604 0 00-.341.097c-.523.35-.571 1.735.197 3.161.657 1.222 1.534 1.778 2.07 1.778.13 0 .245-.033.341-.097.523-.35.572-1.734-.197-3.16-.657-1.222-1.534-1.779-2.07-1.779zm1.926 6.32c-1.072 0-2.273-.942-3.058-2.4-1.064-1.976-.976-4.139.198-4.924.277-.185.591-.28.934-.28 1.073 0 2.273.943 3.058 2.402 1.064 1.975.977 4.136-.198 4.922-.277.186-.591.28-.934.28z"/><path fill="#000" d="M110.768 102.645c-.196 0-.386-.022-.57-.065-.492-.117-.894-.391-1.134-.77-.585-.924-.097-2.186 1.11-2.873a.718.718 0 01.952.224.64.64 0 01-.238.902c-.552.314-.79.825-.635 1.072.065.101.189.149.282.171.291.07.68-.007 1.016-.198a.715.715 0 01.952.226c.198.31.09.713-.237.9-.475.27-.999.41-1.498.41m-3.267-3.801a.538.538 0 01-.33-.113.645.645 0 01-.142-.86c.079-.12 1.968-2.96 5.715-4.678.29-.137.632.01.757.324.126.314-.01.678-.303.812-3.43 1.573-5.206 4.226-5.223 4.253a.57.57 0 01-.474.262m3.809 5.702a.612.612 0 01-.135-1.205c5.067-1.19 10.218-5.59 13.647-9.07.236-.239.616-.239.851 0s.235.625 0 .863c-3.54 3.594-8.882 8.14-14.226 9.397l-.136.015"/><path fill="#000" d="M120.703 98.843l-.064-.005c-.173-.032-.286-.185-.252-.341.006-.024.521-2.478-1.067-3.911a.27.27 0 010-.41.346.346 0 01.454 0c1.833 1.655 1.268 4.322 1.243 4.434-.031.138-.165.233-.314.233m-8.408-.95a.662.662 0 01-.497-.217.547.547 0 01-.002-.734l2.3-2.632a.678.678 0 01.898-.09c.275.2.32.569.1.821l-.483.552.847-.388 1.862-.99c.307-.163.697-.067.873.212.177.28.073.637-.232.8l-1.896 1.007-3.485 1.597a.678.678 0 01-.285.062m.869 5.702l-.046-.003a.323.323 0 01-.271-.365c.345-2.44-.84-4.244-1.58-5.102-.883-1.027-1.778-1.489-2.13-1.489a.32.32 0 01-.32-.322.32.32 0 01.32-.322c.672 0 1.746.703 2.613 1.711.81.942 2.111 2.922 1.73 5.615a.322.322 0 01-.316.277M34.994 62.11a.604.604 0 00-.341.097c-.524.35-.572 1.735.197 3.161.657 1.222 1.534 1.778 2.07 1.778.13 0 .245-.033.341-.097.524-.35.572-1.734-.197-3.16-.657-1.222-1.534-1.779-2.07-1.779zm1.927 6.32c-1.073 0-2.274-.942-3.06-2.4-1.063-1.976-.976-4.139.2-4.924.276-.185.59-.28.933-.28 1.073 0 2.273.943 3.058 2.402 1.064 1.975.977 4.136-.198 4.922-.277.185-.591.28-.933.28z"/><path fill="#000" d="M36.961 65.579c-.195 0-.387-.022-.57-.065-.49-.117-.894-.391-1.134-.77-.584-.924-.097-2.186 1.11-2.874a.718.718 0 01.952.225.638.638 0 01-.237.901c-.553.315-.791.826-.634 1.073.063.101.187.149.28.17.292.071.681-.006 1.018-.197a.715.715 0 01.95.225.637.637 0 01-.237.901 3.06 3.06 0 01-1.498.41m-2.298-3.801a.614.614 0 01-.343-.104.562.562 0 01-.147-.802c.064-.089 1.614-2.183 4.684-3.777a.615.615 0 01.813.232c.157.28.049.63-.242.78-2.823 1.466-4.259 3.406-4.273 3.425a.607.607 0 01-.492.246M38.5 67.48c-.296 0-.564-.169-.634-.418-.08-.29.137-.58.488-.646 1.615-.31 3.348-.888 5.15-1.72.314-.144.71-.052.886.208.176.26.063.588-.251.733-1.909.88-3.756 1.496-5.491 1.829l-.148.013m.945-6.653a.696.696 0 01-.508-.209.496.496 0 01.04-.73l.89-.79A.735.735 0 0140.66 59c.306-.151.698-.065.881.195.186.263.086.603-.222.762l-1.539.79a.744.744 0 01-.335.08"/><path fill="#000" d="M40.303 67.48l-.045-.004a.323.323 0 01-.272-.365c.346-2.44-.84-4.243-1.58-5.102-.882-1.027-1.777-1.489-2.13-1.489a.32.32 0 01-.319-.322.32.32 0 01.32-.322c.671 0 1.746.704 2.612 1.711.81.942 2.112 2.923 1.73 5.615a.32.32 0 01-.316.277m33.486 27.896a.588.588 0 00-.34.096c-.524.35-.572 1.735.196 3.163.657 1.22 1.533 1.776 2.07 1.776.13 0 .245-.032.34-.096.245-.163.385-.556.385-1.077 0-.64-.212-1.4-.581-2.084-.658-1.222-1.534-1.778-2.07-1.778zm1.925 6.32c-1.072 0-2.272-.943-3.057-2.4-1.063-1.977-.976-4.14.199-4.925.277-.185.591-.28.933-.28 1.072 0 2.273.943 3.058 2.402.48.892.744 1.868.744 2.745 0 .998-.335 1.772-.943 2.178-.277.185-.591.28-.934.28z"/><path fill="#000" d="M76.7 98.843c-.715 0-1.352-.289-1.7-.837-.585-.922-.098-2.184 1.108-2.87a.717.717 0 01.953.223.637.637 0 01-.237.9c-.553.316-.791.826-.635 1.073.155.244.744.287 1.299-.027a.718.718 0 01.951.226c.197.31.09.714-.239.9a3.078 3.078 0 01-1.5.412m-3.228-2.851a.608.608 0 01-.412-.162.628.628 0 01-.04-.878c.104-.117 2.624-2.9 6.557-4.611.31-.138.671.01.803.326a.624.624 0 01-.321.816c-3.679 1.6-6.11 4.279-6.135 4.306a.606.606 0 01-.452.203m3.784 5.702a.603.603 0 01-.135-1.193c5.244-1.185 10.463-5.608 14.273-8.838l.327-.277a.614.614 0 01.862.065.6.6 0 01-.065.852l-.327.277c-3.908 3.312-9.26 7.848-14.798 9.1l-.137.014"/><path fill="#000" d="M86.753 95.992l-.04-.005c-.136-.028-.228-.19-.205-.36.004-.032.399-3.219-1.247-4.774-.11-.104-.132-.3-.05-.439.083-.137.238-.166.348-.063 1.89 1.786 1.458 5.233 1.44 5.379-.02.153-.126.262-.246.262m-8.536-1.902a.618.618 0 01-.49-.243.655.655 0 01.01-.81l2.815-3.468a.616.616 0 01.881-.082.655.655 0 01.08.905l-.9 1.11.703-.362 2.908-1.716a.617.617 0 01.854.237c.172.307.069.7-.23.877l-2.941 1.734-3.41 1.751a.612.612 0 01-.28.068m.882 6.653l-.045-.003a.322.322 0 01-.271-.364c.345-2.442-.842-4.245-1.581-5.104-.883-1.026-1.777-1.488-2.13-1.488a.322.322 0 010-.645c.672 0 1.746.704 2.613 1.71.81.942 2.112 2.923 1.73 5.617a.321.321 0 01-.316.277m21.77-23.761c-.238 0-.459-.167-.539-.433-.099-.332.062-.69.36-.8l1.703-.635c.299-.11.619.069.717.4.1.333-.06.692-.358.802l-1.703.634a.518.518 0 01-.18.032m8.516 2.852c-.238 0-.459-.168-.538-.434-.1-.332.06-.69.358-.8l1.704-.634c.3-.112.619.068.718.4.099.332-.062.69-.359.801l-1.703.634a.52.52 0 01-.18.033M68.697 58.926c-.238 0-.46-.168-.539-.434-.099-.332.062-.69.36-.8l1.702-.634c.299-.112.62.068.718.4.1.332-.061.691-.358.801l-1.703.634a.52.52 0 01-.18.033m51.096 23.76c-.237 0-.458-.168-.538-.433-.1-.332.062-.691.359-.801l1.703-.634c.3-.111.62.069.718.4.1.333-.061.691-.358.801l-1.704.634a.52.52 0 01-.18.033m-57.72-29.463c-.238 0-.459-.168-.539-.433-.098-.332.062-.69.36-.801l1.703-.634c.298-.11.619.07.718.401.1.332-.062.69-.359.8l-1.703.634a.52.52 0 01-.18.033m67.183 31.364c-.238 0-.459-.168-.538-.434-.1-.331.06-.69.358-.8l1.704-.634c.3-.112.619.069.717.4.1.333-.06.691-.358.801l-1.703.634a.52.52 0 01-.18.033m-72.86-36.116c-.238 0-.46-.168-.539-.433-.099-.332.062-.69.36-.801l1.702-.634c.298-.111.619.07.718.401.1.332-.062.69-.358.801l-1.703.634a.518.518 0 01-.18.032M32.645 99.793c-.261 0-.473-.283-.473-.633v-.634c0-.35.212-.633.473-.633s.473.283.473.633v.634c0 .35-.212.633-.473.633m2.839-1.9c-.261 0-.473-.284-.473-.634v-.634c0-.35.212-.633.473-.633s.473.283.473.633v.634c0 .35-.212.634-.473.634m3.785-1.901c-.261 0-.473-.283-.473-.634v-.633c0-.35.212-.634.473-.634s.473.283.473.634v.633c0 .35-.212.634-.473.634m3.785-1.902c-.261 0-.473-.282-.473-.633v-.633c0-.35.212-.634.473-.634.26 0 .473.283.473.634v.633c0 .35-.212.634-.473.634m3.785-1.901c-.261 0-.473-.283-.473-.634v-.633c0-.35.212-.634.473-.634.26 0 .473.283.473.634v.633c0 .35-.212.634-.473.634m3.785-1.9c-.262 0-.473-.284-.473-.634v-.634c0-.35.211-.634.473-.634.26 0 .473.284.473.634v.634c0 .35-.212.633-.473.633m3.785-1.901c-.262 0-.474-.283-.474-.633v-.634c0-.35.212-.633.474-.633.26 0 .473.283.473.633v.634c0 .35-.212.633-.473.633m6.623-3.801c-.26 0-.473-.283-.473-.634v-.633c0-.35.212-.634.473-.634s.473.283.473.634v.633c0 .35-.212.634-.473.634m3.785-1.901c-.261 0-.473-.283-.473-.634v-.633c0-.35.212-.634.473-.634s.473.283.473.634v.633c0 .35-.212.634-.473.634m3.785-1.901c-.261 0-.473-.283-.473-.633v-.634c0-.35.212-.634.473-.634s.473.284.473.634v.634c0 .35-.212.633-.473.633m3.785-1.901c-.261 0-.473-.283-.473-.633v-.634c0-.35.212-.634.473-.634s.473.284.473.634v.634c0 .35-.212.633-.473.633m3.785-1.901c-.261 0-.473-.283-.473-.633v-.634c0-.35.212-.633.473-.633s.473.283.473.633v.634c0 .35-.212.633-.473.633m3.785-.95c-.261 0-.473-.283-.473-.634v-.633c0-.35.212-.634.473-.634s.473.283.473.634v.633c0 .35-.212.634-.473.634m3.785-1.901c-.261 0-.473-.283-.473-.633v-.634c0-.35.212-.634.473-.634s.473.284.473.634v.634c0 .35-.212.633-.473.633m3.785-1.901c-.261 0-.473-.283-.473-.633v-.634c0-.35.212-.633.473-.633s.473.283.473.633v.634c0 .35-.212.633-.473.633m2.839-1.901c-.262 0-.474-.283-.474-.633v-.634c0-.35.212-.633.474-.633.26 0 .473.283.473.633v.634c0 .35-.212.634-.473.634m3.784-1.901c-.261 0-.473-.283-.473-.634v-.633c0-.35.212-.634.474-.634.261 0 .473.283.473.634v.633c0 .35-.212.634-.473.634m7.569-3.802c-.261 0-.473-.283-.473-.634v-.633c0-.35.212-.634.473-.634.262 0 .474.283.474.634v.633c0 .35-.212.634-.474.634m3.785-1.901c-.261 0-.473-.283-.473-.633v-.634c0-.35.212-.634.473-.634.262 0 .473.284.473.634v.634c0 .35-.211.633-.473.633m3.785-1.901c-.261 0-.473-.283-.473-.633v-.634c0-.35.212-.633.473-.633.262 0 .473.283.473.633v.634c0 .35-.211.633-.473.633m3.785-1.9c-.261 0-.473-.284-.473-.634v-.634c0-.35.212-.633.473-.633.262 0 .473.283.473.633v.634c0 .35-.211.634-.473.634m2.839-1.901c-.262 0-.473-.283-.473-.634v-.633c0-.35.211-.634.473-.634s.473.283.473.634v.633c0 .35-.211.634-.473.634m3.785-1.901c-.262 0-.473-.283-.473-.634v-.633c0-.35.211-.634.473-.634s.473.283.473.634v.633c0 .35-.211.634-.473.634m3.785-1.901c-.262 0-.473-.283-.473-.633v-.634c0-.35.211-.634.473-.634s.473.284.473.634v.634c0 .35-.211.633-.473.633M28.483 97.57a.874.874 0 00-.385.092l-.276.132c-.493.238-.78.87-.64 1.41.23.88.5 2.165.488 3.282-.003.318.08.425.106.45.034.034.094.092.407-.058l.275-.133c.547-.263 1.163-.969 1.169-1.52.012-1.051-.247-2.278-.468-3.122a.68.68 0 00-.676-.534zm-.609 6.025a.788.788 0 01-.562-.218c-.2-.195-.298-.497-.295-.898.012-1.05-.247-2.278-.467-3.122-.215-.824.216-1.756.98-2.124l.275-.132c.22-.106.447-.159.678-.159.626 0 1.152.406 1.309 1.01.229.879.5 2.162.487 3.28-.009.83-.8 1.724-1.529 2.075l-.275.132a1.416 1.416 0 01-.601.156zm29.943-20.282a.876.876 0 00-.386.093l-.275.132c-.494.237-.781.87-.64 1.41.229.88.5 2.164.487 3.281-.003.319.08.426.106.45.034.034.094.094.408-.058l.274-.132c.547-.263 1.163-.969 1.17-1.52.01-1.051-.248-2.278-.469-3.122a.68.68 0 00-.675-.534zm-.61 6.026a.784.784 0 01-.561-.218c-.2-.195-.3-.497-.295-.898.012-1.05-.247-2.278-.468-3.122-.215-.824.216-1.757.981-2.124l.275-.132c.219-.106.447-.159.678-.159.625 0 1.151.406 1.308 1.009.23.88.5 2.162.487 3.28-.009.832-.8 1.725-1.529 2.075l-.275.133a1.416 1.416 0 01-.6.156zm41.298-25.985a.887.887 0 00-.386.093l-.275.133c-.494.237-.781.869-.64 1.41.23.88.5 2.164.487 3.28-.003.32.08.426.107.45.033.034.093.094.407-.057l.274-.133c.547-.262 1.163-.969 1.17-1.52.012-1.051-.248-2.278-.468-3.122a.682.682 0 00-.676-.534zm-.61 6.026a.782.782 0 01-.56-.218c-.2-.195-.3-.497-.296-.898.012-1.05-.247-2.277-.468-3.122-.214-.824.217-1.756.981-2.124l.275-.132c.218-.105.447-.159.678-.159.625 0 1.151.406 1.308 1.01.23.879.5 2.162.488 3.28-.009.831-.801 1.724-1.53 2.075l-.275.132a1.416 1.416 0 01-.6.156zm29.943-21.232c-.13 0-.258.03-.385.092l-.276.132c-.494.238-.78.87-.64 1.41.23.881.5 2.165.488 3.282-.004.319.08.425.106.45.033.034.094.093.407-.058l.275-.132c.546-.263 1.163-.97 1.169-1.521.012-1.05-.248-2.278-.468-3.122a.68.68 0 00-.676-.533zm-.61 6.026a.782.782 0 01-.56-.219c-.2-.194-.3-.496-.296-.898.013-1.05-.247-2.277-.468-3.122-.214-.823.217-1.756.982-2.124l.274-.132c.219-.105.447-.158.678-.158.626 0 1.151.405 1.309 1.008.23.88.5 2.163.487 3.28-.009.832-.801 1.725-1.53 2.076l-.274.132a1.408 1.408 0 01-.601.157z"/></g></g></g></svg>